M48
; DRILL file KiCad 10.0.5 date 2026-08-20T23:15:31
; FORMAT={-:-/ absolute / metric / decimal}
; #@! TF.CreationDate,2026-08-20T23:15:31-07:00
; #@! TF.GenerationSoftware,Kicad,Pcbnew,10.0.5
; #@! TF.FileFunction,MixedPlating,1,4
FMAT,2
METRIC
; #@! TA.AperFunction,Plated,PTH,ViaDrill
T1C0.200
; #@! TA.AperFunction,Plated,PTH,ComponentDrill
T2C1.000
%
G90
G05
T1
X15.558Y107.807
X15.617Y98.93
X15.621Y86.934
X21.133Y74.929
X26.617Y107.23
X26.619Y99.064
X26.619Y86.934
X30.53Y139.392
X33.07Y142.421
X35.232Y46.931
X35.233Y107.23
X35.61Y145.448
X36.425Y35.618
X36.439Y130.551
X37.317Y23.625
X37.621Y74.929
X37.623Y86.936
X37.623Y99.192
X37.63Y58.913
X37.827Y145.436
X39.0Y130.556
X39.34Y126.031
X40.69Y145.45
X44.146Y145.883
X46.233Y107.23
X46.933Y59.85
X46.936Y99.745
X47.237Y35.621
X48.618Y46.931
X48.625Y22.947
X55.93Y145.447
X55.93Y135.936
X57.227Y86.936
X57.233Y107.23
X57.487Y75.627
X58.131Y99.656
X58.215Y35.619
X58.215Y23.62
X58.47Y145.437
X59.247Y47.625
X68.224Y74.94
X68.227Y86.936
X68.233Y107.23
T2
X29.5Y131.925
X32.04Y131.925
X34.58Y131.925
X37.12Y131.925
X39.66Y131.925
X42.2Y131.925
X44.74Y131.925
X47.28Y131.925
M30
