%TF.GenerationSoftware,KiCad,Pcbnew,10.0.5*%
%TF.CreationDate,2026-08-21T12:32:17-07:00*%
%TF.ProjectId,calculator,63616c63-756c-4617-946f-722e6b696361,v1.0.0*%
%TF.SameCoordinates,Original*%
%TF.FileFunction,Copper,L2,Bot*%
%TF.FilePolarity,Positive*%
%FSLAX46Y46*%
G04 Gerber Fmt 4.6, Leading zero omitted, Abs format (unit mm)*
G04 Created by KiCad (PCBNEW 10.0.5) date 2026-08-21 12:32:17*
%MOMM*%
%LPD*%
G01*
G04 APERTURE LIST*
%TA.AperFunction,ComponentPad*%
%ADD10R,1.700000X1.700000*%
%TD*%
%TA.AperFunction,ComponentPad*%
%ADD11C,1.700000*%
%TD*%
%TA.AperFunction,SMDPad,CuDef*%
%ADD12R,1.200000X1.700000*%
%TD*%
%TA.AperFunction,SMDPad,CuDef*%
%ADD13O,1.200000X1.700000*%
%TD*%
%TA.AperFunction,SMDPad,CuDef*%
%ADD14R,1.752600X1.752600*%
%TD*%
%TA.AperFunction,SMDPad,CuDef*%
%ADD15C,1.752600*%
%TD*%
%TA.AperFunction,ViaPad*%
%ADD16C,0.400000*%
%TD*%
%TA.AperFunction,Conductor*%
%ADD17C,0.150000*%
%TD*%
G04 APERTURE END LIST*
D10*
%TO.P,Disp,1*%
%TO.N,VCC*%
X29500000Y125925000D03*
D11*
%TO.P,Disp,2*%
%TO.N,GND*%
X32040000Y125925000D03*
%TO.P,Disp,3*%
%TO.N,P21*%
X34580000Y125925000D03*
%TO.P,Disp,4*%
%TO.N,P20*%
X37120000Y125925000D03*
%TO.P,Disp,5*%
%TO.N,P19*%
X39660000Y125925000D03*
%TO.P,Disp,6*%
%TO.N,P18*%
X42200000Y125925000D03*
%TO.P,Disp,7*%
%TO.N,N/C*%
X44740000Y125925000D03*
%TO.P,Disp,8*%
%TO.N,P10*%
X47280000Y125925000D03*
%TD*%
D12*
%TO.P,JST1,1*%
%TO.N,VCC*%
X69000000Y139000000D03*
D13*
%TO.P,JST1,2*%
%TO.N,GND*%
X67000000Y139000000D03*
%TD*%
D14*
%TO.P,MCU1,1*%
%TO.N,RAW*%
X58470000Y131380000D03*
D15*
%TO.P,MCU1,2*%
%TO.N,GND*%
X55930000Y131380000D03*
%TO.P,MCU1,3*%
%TO.N,RST*%
X53390000Y131380000D03*
%TO.P,MCU1,4*%
%TO.N,VCC*%
X50850000Y131380000D03*
%TO.P,MCU1,5*%
%TO.N,P21*%
X48310000Y131380000D03*
%TO.P,MCU1,6*%
%TO.N,P20*%
X45770000Y131380000D03*
%TO.P,MCU1,7*%
%TO.N,P19*%
X43230000Y131380000D03*
%TO.P,MCU1,8*%
%TO.N,P18*%
X40690000Y131380000D03*
%TO.P,MCU1,9*%
%TO.N,P15*%
X38150000Y131380000D03*
%TO.P,MCU1,10*%
%TO.N,P14*%
X35610000Y131380000D03*
%TO.P,MCU1,11*%
%TO.N,P16*%
X33070000Y131380000D03*
%TO.P,MCU1,12*%
%TO.N,P10*%
X30530000Y131380000D03*
%TO.P,MCU1,13*%
%TO.N,P1*%
X58470000Y146620000D03*
%TO.P,MCU1,14*%
%TO.N,P0*%
X55930000Y146620000D03*
%TO.P,MCU1,15*%
%TO.N,GND*%
X53390000Y146620000D03*
%TO.P,MCU1,16*%
X50850000Y146620000D03*
%TO.P,MCU1,17*%
%TO.N,P2*%
X48310000Y146620000D03*
%TO.P,MCU1,18*%
%TO.N,P3*%
X45770000Y146620000D03*
%TO.P,MCU1,19*%
%TO.N,P4*%
X43230000Y146620000D03*
%TO.P,MCU1,20*%
%TO.N,P5*%
X40690000Y146620000D03*
%TO.P,MCU1,21*%
%TO.N,P6*%
X38150000Y146620000D03*
%TO.P,MCU1,22*%
%TO.N,P7*%
X35610000Y146620000D03*
%TO.P,MCU1,23*%
%TO.N,P8*%
X33070000Y146620000D03*
%TO.P,MCU1,24*%
%TO.N,P9*%
X30530000Y146620000D03*
%TD*%
D16*
%TO.N,P10*%
X48551700Y33768100D03*
X68072500Y34549200D03*
X15788700Y34775000D03*
X36944900Y33496100D03*
%TO.N,P7*%
X15551700Y109788700D03*
%TO.N,P8*%
X26551700Y109786700D03*
%TO.N,P1*%
X26247100Y87780900D03*
X48551700Y82106300D03*
X58676800Y76421600D03*
X34786600Y83242500D03*
%TO.N,P9*%
X35298300Y108566900D03*
%TO.N,P0*%
X48758800Y87545400D03*
X58925000Y88122600D03*
X23104300Y87960100D03*
X55086900Y144151400D03*
X68057700Y87101000D03*
X36944900Y90943500D03*
%TO.N,P5*%
X57071100Y58775000D03*
X15250700Y57770800D03*
X33958100Y111164600D03*
X35072700Y58554000D03*
%TO.N,P15*%
X48853400Y133334000D03*
%TO.N,P14*%
X56991600Y133220600D03*
%TO.N,P4*%
X47425000Y99779600D03*
X25553100Y96925000D03*
X69647400Y100355200D03*
X43610200Y145287800D03*
%TO.N,P16*%
X70551700Y108664300D03*
%TO.N,P6*%
X38436900Y45462900D03*
X33429800Y140552600D03*
X49733800Y46192500D03*
X68063600Y46775000D03*
X14582600Y45462900D03*
%TO.N,P20*%
X45816700Y127951100D03*
X59551700Y115223400D03*
X29749500Y123395200D03*
%TD*%
%TO.N,P10*%
D17*
X36944900Y33496100D02*
X35666000Y34775000D01*
X30530000Y131380000D02*
X28121600Y128971600D01*
X45500800Y124145800D02*
X47280000Y125925000D01*
X48279700Y33496100D02*
X48551700Y33768100D01*
X28772900Y124145800D02*
X45500800Y124145800D01*
X36944900Y33496100D02*
X48279700Y33496100D01*
X67291400Y33768100D02*
X68072500Y34549200D01*
X28121600Y124797100D02*
X28772900Y124145800D01*
X35666000Y34775000D02*
X15788700Y34775000D01*
X48551700Y33768100D02*
X67291400Y33768100D01*
X28121600Y128971600D02*
X28121600Y124797100D01*
%TO.N,P7*%
X34197300Y148032700D02*
X29880900Y148032700D01*
X15551700Y133703500D02*
X15551700Y109788700D01*
X29880900Y148032700D02*
X15551700Y133703500D01*
X35610000Y146620000D02*
X34197300Y148032700D01*
%TO.N,P8*%
X33070000Y146620000D02*
X31959000Y147731000D01*
X30005900Y147731000D02*
X26551700Y144276800D01*
X26551700Y144276800D02*
X26551700Y109786700D01*
X31959000Y147731000D02*
X30005900Y147731000D01*
%TO.N,P1*%
X48551700Y82520400D02*
X48551700Y82106300D01*
X34786600Y83242500D02*
X47829600Y83242500D01*
X30785500Y83242500D02*
X34786600Y83242500D01*
X26247100Y87780900D02*
X30785500Y83242500D01*
X48551700Y82520400D02*
X52578000Y82520400D01*
X71115800Y101058200D02*
X52578000Y82520400D01*
X58470000Y146620000D02*
X63162800Y146620000D01*
X58676800Y76421600D02*
X52578000Y82520400D01*
X63162800Y146620000D02*
X71115800Y138667000D01*
X71115800Y138667000D02*
X71115800Y101058200D01*
X47829600Y83242500D02*
X48551700Y82520400D01*
%TO.N,P9*%
X27191400Y143281400D02*
X27191400Y116673800D01*
X27191400Y116673800D02*
X35298300Y108566900D01*
X30530000Y146620000D02*
X27191400Y143281400D01*
%TO.N,P0*%
X49668800Y147003500D02*
X49668800Y146218200D01*
X54818000Y147732000D02*
X50397300Y147732000D01*
X51735600Y144151400D02*
X55086900Y144151400D01*
X50397300Y147732000D02*
X49668800Y147003500D01*
X45360700Y90943500D02*
X36944900Y90943500D01*
X26087700Y90943500D02*
X23104300Y87960100D01*
X48758800Y87545400D02*
X45360700Y90943500D01*
X58925000Y88122600D02*
X67036100Y88122600D01*
X49668800Y146218200D02*
X51735600Y144151400D01*
X36944900Y90943500D02*
X26087700Y90943500D01*
X67036100Y88122600D02*
X68057700Y87101000D01*
X55930000Y146620000D02*
X54818000Y147732000D01*
%TO.N,P21*%
X41960000Y131724000D02*
X42723500Y132487500D01*
X41960000Y131075300D02*
X41960000Y131724000D01*
X47202500Y132487500D02*
X48310000Y131380000D01*
X39277000Y128392300D02*
X41960000Y131075300D01*
X42723500Y132487500D02*
X47202500Y132487500D01*
X37047300Y128392300D02*
X39277000Y128392300D01*
X34580000Y125925000D02*
X37047300Y128392300D01*
%TO.N,P5*%
X16033900Y58554000D02*
X35072700Y58554000D01*
X27511900Y133441900D02*
X27511900Y117610800D01*
X35293700Y58775000D02*
X35072700Y58554000D01*
X40690000Y146620000D02*
X27511900Y133441900D01*
X27511900Y117610800D02*
X33958100Y111164600D01*
X15250700Y57770800D02*
X16033900Y58554000D01*
X57071100Y58775000D02*
X35293700Y58775000D01*
%TO.N,P15*%
X38150000Y131380000D02*
X40104000Y133334000D01*
X40104000Y133334000D02*
X48853400Y133334000D01*
%TO.N,P14*%
X38392400Y134162400D02*
X35610000Y131380000D01*
X56991600Y133220600D02*
X56049800Y134162400D01*
X56049800Y134162400D02*
X38392400Y134162400D01*
%TO.N,P4*%
X43610200Y146239800D02*
X43610200Y145287800D01*
X47425000Y99779600D02*
X44570400Y96925000D01*
X43230000Y146620000D02*
X43610200Y146239800D01*
X69647400Y100355200D02*
X48000600Y100355200D01*
X48000600Y100355200D02*
X47425000Y99779600D01*
X44570400Y96925000D02*
X25553100Y96925000D01*
%TO.N,P16*%
X30102300Y132549900D02*
X27813600Y130261200D01*
X27813600Y124586300D02*
X43735600Y108664300D01*
X43735600Y108664300D02*
X70551700Y108664300D01*
X27813600Y130261200D02*
X27813600Y124586300D01*
X33070000Y131380000D02*
X31900100Y132549900D01*
X31900100Y132549900D02*
X30102300Y132549900D01*
%TO.N,P6*%
X67481100Y46192500D02*
X68063600Y46775000D01*
X14582600Y45462900D02*
X38436900Y45462900D01*
X38150000Y146620000D02*
X38150000Y145272800D01*
X49733800Y46192500D02*
X67481100Y46192500D01*
X49004200Y45462900D02*
X38436900Y45462900D01*
X38150000Y145272800D02*
X33429800Y140552600D01*
X49733800Y46192500D02*
X49004200Y45462900D01*
%TO.N,VCC*%
X39502400Y131814300D02*
X40488700Y132800600D01*
X51996800Y130233200D02*
X56407200Y130233200D01*
X57306100Y131132100D02*
X57306100Y132289300D01*
X40488700Y132800600D02*
X49429400Y132800600D01*
X66451100Y136967800D02*
X68173300Y138690000D01*
X69000000Y139000000D02*
X68173300Y139000000D01*
X49429400Y132800600D02*
X50850000Y131380000D01*
X56407200Y130233200D02*
X57306100Y131132100D01*
X68173300Y138690000D02*
X68173300Y139000000D01*
X29500000Y125925000D02*
X30576700Y125925000D01*
X50850000Y131380000D02*
X51996800Y130233200D01*
X61984600Y136967800D02*
X66451100Y136967800D01*
X38170600Y129815200D02*
X39502400Y131147000D01*
X57306100Y132289300D02*
X61984600Y136967800D01*
X39502400Y131147000D02*
X39502400Y131814300D01*
X30576700Y125925000D02*
X30576700Y126057400D01*
X30576700Y126057400D02*
X34334500Y129815200D01*
X34334500Y129815200D02*
X38170600Y129815200D01*
%TO.N,GND*%
X31752000Y130197600D02*
X35999700Y130197600D01*
X28423300Y126868900D02*
X31752000Y130197600D01*
X61010000Y136460000D02*
X55930000Y131380000D01*
X28509500Y124848300D02*
X28423300Y124934500D01*
X36880000Y131714700D02*
X39026000Y133860700D01*
X28423300Y124934500D02*
X28423300Y126868900D01*
X53390000Y146307400D02*
X54535300Y145162100D01*
X50850000Y146620000D02*
X53390000Y146620000D01*
X54847900Y145162100D02*
X61010000Y139000000D01*
X53390000Y146620000D02*
X53390000Y146307400D01*
X61010000Y139000000D02*
X61010000Y136460000D01*
X39026000Y133860700D02*
X53449300Y133860700D01*
X32040000Y125925000D02*
X30963300Y124848300D01*
X35999700Y130197600D02*
X36880000Y131077900D01*
X30963300Y124848300D02*
X28509500Y124848300D01*
X54535300Y145162100D02*
X54847900Y145162100D01*
X61010000Y139000000D02*
X67000000Y139000000D01*
X53449300Y133860700D02*
X55930000Y131380000D01*
X36880000Y131077900D02*
X36880000Y131714700D01*
%TO.N,P20*%
X46824000Y127951100D02*
X45816700Y127951100D01*
X44254800Y129864800D02*
X44254800Y129513000D01*
X48382200Y123395200D02*
X48382200Y126392900D01*
X38228800Y124816200D02*
X37120000Y125925000D01*
X48382200Y126392900D02*
X46824000Y127951100D01*
X40930000Y125602100D02*
X40144100Y124816200D01*
X40930000Y126188200D02*
X40930000Y125602100D01*
X59551700Y115223400D02*
X51379900Y123395200D01*
X44254800Y129513000D02*
X45816700Y127951100D01*
X51379900Y123395200D02*
X48382200Y123395200D01*
X44254800Y129513000D02*
X40930000Y126188200D01*
X40144100Y124816200D02*
X38228800Y124816200D01*
X48382200Y123395200D02*
X29749500Y123395200D01*
X45770000Y131380000D02*
X44254800Y129864800D01*
%TO.N,P19*%
X43230000Y131380000D02*
X39660000Y127810000D01*
X39660000Y127810000D02*
X39660000Y125925000D01*
%TO.N,P18*%
X34448800Y124511900D02*
X33485400Y125475300D01*
X33485400Y126371300D02*
X36627600Y129513500D01*
X36627600Y129513500D02*
X38823500Y129513500D01*
X33485400Y125475300D02*
X33485400Y126371300D01*
X38823500Y129513500D02*
X40690000Y131380000D01*
X42200000Y125925000D02*
X40786900Y124511900D01*
X40786900Y124511900D02*
X34448800Y124511900D01*
%TD*%
%TA.AperFunction,Conductor*%
%TO.N,GND*%
G36*
X31574075Y125732007D02*
G01*
X31639901Y125617993D01*
X31732993Y125524901D01*
X31847007Y125459075D01*
X31910591Y125442037D01*
X31237860Y124769306D01*
X31236286Y124770879D01*
X31210666Y124744892D01*
X31150469Y124729300D01*
X30942373Y124729300D01*
X30875334Y124748985D01*
X30829579Y124801789D01*
X30819635Y124870947D01*
X30826192Y124896635D01*
X30851988Y124965795D01*
X30851988Y124965797D01*
X30851989Y124965799D01*
X30855157Y124995270D01*
X30858499Y125026345D01*
X30858500Y125026362D01*
X30858500Y125045692D01*
X30878185Y125112731D01*
X30894819Y125133373D01*
X31557037Y125795591D01*
X31574075Y125732007D01*
G37*
%TD.AperFunction*%
%TA.AperFunction,Conductor*%
G36*
X32871754Y125446799D02*
G01*
X32903848Y125391212D01*
X32941666Y125250075D01*
X32963077Y125212991D01*
X32963077Y125212990D01*
X33018481Y125117025D01*
X33018485Y125117020D01*
X33194525Y124940981D01*
X33228010Y124879658D01*
X33223026Y124809966D01*
X33181154Y124754033D01*
X33115690Y124729616D01*
X33106844Y124729300D01*
X32929530Y124729300D01*
X32862491Y124748985D01*
X32843608Y124770775D01*
X32842139Y124769306D01*
X32169409Y125442037D01*
X32232993Y125459075D01*
X32347007Y125524901D01*
X32440099Y125617993D01*
X32505925Y125732007D01*
X32522962Y125795590D01*
X32871754Y125446799D01*
G37*
%TD.AperFunction*%
%TA.AperFunction,Conductor*%
G36*
X35288284Y129212015D02*
G01*
X35334039Y129159211D01*
X35343983Y129090053D01*
X35314958Y129026497D01*
X35308926Y129020019D01*
X33018485Y126729579D01*
X33018481Y126729574D01*
X33006231Y126708355D01*
X33006230Y126708353D01*
X32941666Y126596525D01*
X32941665Y126596524D01*
X32941665Y126596523D01*
X32907688Y126469718D01*
X32905092Y126460031D01*
X32872998Y126404444D01*
X32522962Y126054408D01*
X32505925Y126117993D01*
X32440099Y126232007D01*
X32347007Y126325099D01*
X32232993Y126390925D01*
X32169408Y126407962D01*
X32801717Y127040270D01*
X32747554Y127079622D01*
X32685360Y127111311D01*
X32634563Y127159285D01*
X32617767Y127227106D01*
X32640303Y127293241D01*
X32653972Y127309478D01*
X34539874Y129195381D01*
X34601197Y129228866D01*
X34627555Y129231700D01*
X35221245Y129231700D01*
X35288284Y129212015D01*
G37*
%TD.AperFunction*%
%TA.AperFunction,Conductor*%
G36*
X31886420Y130650006D02*
G01*
X31900318Y130633966D01*
X32013728Y130477869D01*
X32013732Y130477864D01*
X32167864Y130323732D01*
X32167869Y130323728D01*
X32344203Y130195615D01*
X32538416Y130096657D01*
X32642073Y130062977D01*
X32745725Y130029298D01*
X32745728Y130029297D01*
X32745730Y130029297D01*
X32961009Y129995200D01*
X32961014Y129995200D01*
X33178991Y129995200D01*
X33394271Y130029297D01*
X33399010Y130030435D01*
X33399506Y130028365D01*
X33460472Y130030091D01*
X33520296Y129993995D01*
X33551107Y129931286D01*
X33543125Y129861874D01*
X33516599Y129822492D01*
X32163227Y128469121D01*
X30857352Y127163246D01*
X30796029Y127129761D01*
X30726337Y127134745D01*
X30695362Y127151659D01*
X30609991Y127215568D01*
X30596207Y127225887D01*
X30596206Y127225888D01*
X30596204Y127225888D01*
X30596204Y127225889D01*
X30459201Y127276989D01*
X30427623Y127280383D01*
X30398654Y127283499D01*
X30398638Y127283500D01*
X28829100Y127283500D01*
X28762061Y127303185D01*
X28716306Y127355989D01*
X28705100Y127407500D01*
X28705100Y128678544D01*
X28724785Y128745583D01*
X28741419Y128766225D01*
X30000110Y130024916D01*
X30061433Y130058401D01*
X30126109Y130055166D01*
X30205721Y130029298D01*
X30421009Y129995200D01*
X30421014Y129995200D01*
X30638991Y129995200D01*
X30854269Y130029297D01*
X30854275Y130029298D01*
X31011847Y130080497D01*
X31061583Y130096657D01*
X31195143Y130164710D01*
X31255793Y130195613D01*
X31340967Y130257495D01*
X31432130Y130323728D01*
X31432135Y130323732D01*
X31586267Y130477864D01*
X31586271Y130477869D01*
X31699682Y130633966D01*
X31755012Y130676632D01*
X31824625Y130682611D01*
X31886420Y130650006D01*
G37*
%TD.AperFunction*%
%TA.AperFunction,Conductor*%
G36*
X55823783Y133559215D02*
G01*
X55844425Y133542581D01*
X56268150Y133118854D01*
X56301635Y133057531D01*
X56302086Y133055365D01*
X56310325Y133013943D01*
X56310328Y133013933D01*
X56358902Y132896666D01*
X56366371Y132827197D01*
X56335096Y132764718D01*
X56275007Y132729066D01*
X56224942Y132726741D01*
X56038321Y132756300D01*
X55821678Y132756300D01*
X55607715Y132722411D01*
X55401679Y132655465D01*
X55208657Y132557114D01*
X55149453Y132514100D01*
X55149452Y132514099D01*
X56019096Y131644458D01*
X56052581Y131583135D01*
X56047597Y131513444D01*
X56019096Y131469096D01*
X55840903Y131290903D01*
X55779580Y131257418D01*
X55709888Y131262402D01*
X55665541Y131290903D01*
X54795899Y132160545D01*
X54795898Y132160545D01*
X54765571Y132118803D01*
X54710242Y132076137D01*
X54640628Y132070158D01*
X54578833Y132102763D01*
X54564935Y132118803D01*
X54446271Y132282131D01*
X54446268Y132282133D01*
X54446266Y132282137D01*
X54292137Y132436266D01*
X54115793Y132564387D01*
X53921579Y132663344D01*
X53714275Y132730702D01*
X53596844Y132749300D01*
X53498991Y132764800D01*
X53498986Y132764800D01*
X53281014Y132764800D01*
X53281009Y132764800D01*
X53173369Y132747751D01*
X53065725Y132730702D01*
X52858421Y132663344D01*
X52858418Y132663342D01*
X52858416Y132663342D01*
X52787959Y132627441D01*
X52664207Y132564387D01*
X52664203Y132564384D01*
X52487869Y132436271D01*
X52487864Y132436267D01*
X52333728Y132282131D01*
X52220318Y132126033D01*
X52164989Y132083367D01*
X52095375Y132077388D01*
X52033580Y132109993D01*
X52019682Y132126033D01*
X51906271Y132282131D01*
X51906268Y132282133D01*
X51906266Y132282137D01*
X51752137Y132436266D01*
X51575793Y132564387D01*
X51381579Y132663344D01*
X51174275Y132730702D01*
X51056844Y132749300D01*
X50958991Y132764800D01*
X50958986Y132764800D01*
X50741014Y132764800D01*
X50741009Y132764800D01*
X50633369Y132747751D01*
X50525725Y132730702D01*
X50446107Y132704831D01*
X50376269Y132702837D01*
X50320112Y132735080D01*
X49787678Y133267516D01*
X49721150Y133305925D01*
X49721148Y133305927D01*
X49649119Y133347514D01*
X49600904Y133398081D01*
X49587682Y133466688D01*
X49613650Y133531553D01*
X49670565Y133572081D01*
X49711120Y133578900D01*
X55756744Y133578900D01*
X55823783Y133559215D01*
G37*
%TD.AperFunction*%
%TA.AperFunction,Conductor*%
G36*
X53256557Y146737597D02*
G01*
X53300904Y146709096D01*
X53390000Y146620000D01*
X53479095Y146709095D01*
X53540418Y146742580D01*
X53610110Y146737596D01*
X53654457Y146709095D01*
X54524099Y145839452D01*
X54524101Y145839453D01*
X54554429Y145881196D01*
X54609759Y145923862D01*
X54679372Y145929841D01*
X54741167Y145897235D01*
X54755065Y145881196D01*
X54873728Y145717869D01*
X54873732Y145717864D01*
X55027864Y145563732D01*
X55027869Y145563728D01*
X55204203Y145435615D01*
X55398416Y145336657D01*
X55502073Y145302977D01*
X55605725Y145269298D01*
X55605728Y145269297D01*
X55605730Y145269297D01*
X55821009Y145235200D01*
X55821014Y145235200D01*
X56038991Y145235200D01*
X56254269Y145269297D01*
X56254275Y145269298D01*
X56411847Y145320497D01*
X56461583Y145336657D01*
X56622044Y145418417D01*
X56655793Y145435613D01*
X56655796Y145435615D01*
X56832130Y145563728D01*
X56832135Y145563732D01*
X56986267Y145717864D01*
X56986271Y145717869D01*
X57099682Y145873966D01*
X57155012Y145916632D01*
X57224625Y145922611D01*
X57286420Y145890006D01*
X57300318Y145873966D01*
X57413728Y145717869D01*
X57413732Y145717864D01*
X57567864Y145563732D01*
X57567869Y145563728D01*
X57744203Y145435615D01*
X57938416Y145336657D01*
X58042073Y145302977D01*
X58145725Y145269298D01*
X58145728Y145269297D01*
X58145730Y145269297D01*
X58361009Y145235200D01*
X58361014Y145235200D01*
X58578991Y145235200D01*
X58794269Y145269297D01*
X58794275Y145269298D01*
X58951847Y145320497D01*
X59001583Y145336657D01*
X59162044Y145418417D01*
X59195793Y145435613D01*
X59195796Y145435615D01*
X59372130Y145563728D01*
X59372135Y145563732D01*
X59526267Y145717864D01*
X59526271Y145717869D01*
X59654386Y145894205D01*
X59692391Y145968794D01*
X59740365Y146019591D01*
X59802876Y146036500D01*
X62869744Y146036500D01*
X62936783Y146016815D01*
X62957425Y146000181D01*
X68391790Y140565815D01*
X68425275Y140504492D01*
X68420291Y140434800D01*
X68378419Y140378867D01*
X68317365Y140354845D01*
X68290799Y140351989D01*
X68290793Y140351987D01*
X68274573Y140345937D01*
X68153796Y140300889D01*
X68036739Y140213261D01*
X67952670Y140100958D01*
X67949110Y140096202D01*
X67944863Y140088424D01*
X67942093Y140089936D01*
X67909521Y140046456D01*
X67844048Y140022063D01*
X67775780Y140036939D01*
X67747563Y140058070D01*
X67716597Y140089035D01*
X67576524Y140190804D01*
X67422255Y140269408D01*
X67257584Y140322914D01*
X67257585Y140322914D01*
X67250000Y140324115D01*
X67250000Y139124000D01*
X67230315Y139056961D01*
X67177511Y139011206D01*
X67126000Y139000000D01*
X67000000Y139000000D01*
X67000000Y138874000D01*
X66980315Y138806961D01*
X66927511Y138761206D01*
X66876000Y138750000D01*
X65900000Y138750000D01*
X65900000Y138663428D01*
X65927085Y138492415D01*
X65980591Y138327742D01*
X66059195Y138173475D01*
X66160967Y138033397D01*
X66283399Y137910965D01*
X66283404Y137910961D01*
X66331401Y137876090D01*
X66374067Y137820761D01*
X66380046Y137751147D01*
X66347441Y137689352D01*
X66346197Y137688091D01*
X66245725Y137587619D01*
X66184402Y137554134D01*
X66158044Y137551300D01*
X61907781Y137551300D01*
X61759377Y137511535D01*
X61692852Y137473126D01*
X61692850Y137473125D01*
X61626322Y137434716D01*
X57777711Y133586105D01*
X57716388Y133552620D01*
X57646696Y133557604D01*
X57590763Y133599476D01*
X57586928Y133604895D01*
X57541928Y133672242D01*
X57443245Y133770925D01*
X57443242Y133770928D01*
X57327201Y133848464D01*
X57198262Y133901873D01*
X57156832Y133910113D01*
X57094924Y133942496D01*
X57093401Y133943991D01*
X56408078Y134629316D01*
X56341550Y134667725D01*
X56275023Y134706135D01*
X56126619Y134745900D01*
X38469220Y134745900D01*
X38315581Y134745900D01*
X38167178Y134706136D01*
X38034123Y134629316D01*
X38034120Y134629313D01*
X36139888Y132735082D01*
X36078565Y132701597D01*
X36013889Y132704832D01*
X35934275Y132730702D01*
X35838591Y132745856D01*
X35718991Y132764800D01*
X35718986Y132764800D01*
X35501014Y132764800D01*
X35501009Y132764800D01*
X35393369Y132747751D01*
X35285725Y132730702D01*
X35078421Y132663344D01*
X35078418Y132663342D01*
X35078416Y132663342D01*
X35007959Y132627441D01*
X34884207Y132564387D01*
X34884203Y132564384D01*
X34707869Y132436271D01*
X34707864Y132436267D01*
X34553728Y132282131D01*
X34440318Y132126033D01*
X34384989Y132083367D01*
X34315375Y132077388D01*
X34253580Y132109993D01*
X34239682Y132126033D01*
X34126271Y132282131D01*
X34126268Y132282133D01*
X34126266Y132282137D01*
X33972137Y132436266D01*
X33795793Y132564387D01*
X33601579Y132663344D01*
X33394275Y132730702D01*
X33276844Y132749300D01*
X33178991Y132764800D01*
X33178986Y132764800D01*
X32961014Y132764800D01*
X32961009Y132764800D01*
X32853369Y132747751D01*
X32745725Y132730702D01*
X32666107Y132704831D01*
X32596269Y132702837D01*
X32540114Y132735079D01*
X32258378Y133016816D01*
X32191850Y133055225D01*
X32125323Y133093635D01*
X31976919Y133133400D01*
X30179120Y133133400D01*
X30025481Y133133400D01*
X29877078Y133093636D01*
X29877076Y133093635D01*
X29859249Y133083342D01*
X29744023Y133016816D01*
X29744020Y133016813D01*
X28307081Y131579874D01*
X28245758Y131546389D01*
X28176066Y131551373D01*
X28120133Y131593245D01*
X28095716Y131658709D01*
X28095400Y131667555D01*
X28095400Y133148844D01*
X28115085Y133215883D01*
X28131719Y133236525D01*
X29724649Y134829455D01*
X34231765Y139336571D01*
X65900000Y139336571D01*
X65900000Y139250000D01*
X66750000Y139250000D01*
X66750000Y140324114D01*
X66749999Y140324115D01*
X66742415Y140322914D01*
X66577744Y140269408D01*
X66423475Y140190804D01*
X66283397Y140089032D01*
X66160967Y139966602D01*
X66059195Y139826524D01*
X65980591Y139672257D01*
X65927085Y139507584D01*
X65900000Y139336571D01*
X34231765Y139336571D01*
X40160109Y145264916D01*
X40221432Y145298401D01*
X40286107Y145295166D01*
X40365722Y145269298D01*
X40365721Y145269298D01*
X40581009Y145235200D01*
X40581014Y145235200D01*
X40798991Y145235200D01*
X41014269Y145269297D01*
X41014275Y145269298D01*
X41171847Y145320497D01*
X41221583Y145336657D01*
X41382044Y145418417D01*
X41415793Y145435613D01*
X41415796Y145435615D01*
X41592130Y145563728D01*
X41592135Y145563732D01*
X41746267Y145717864D01*
X41746271Y145717869D01*
X41859682Y145873966D01*
X41915012Y145916632D01*
X41984625Y145922611D01*
X42046420Y145890006D01*
X42060318Y145873966D01*
X42173728Y145717869D01*
X42173732Y145717864D01*
X42327864Y145563732D01*
X42327869Y145563728D01*
X42504203Y145435615D01*
X42698420Y145336655D01*
X42821398Y145296696D01*
X42879073Y145257258D01*
X42904695Y145202957D01*
X42928925Y145081145D01*
X42928927Y145081137D01*
X42982334Y144952202D01*
X42982339Y144952192D01*
X43059871Y144836158D01*
X43059874Y144836154D01*
X43158554Y144737474D01*
X43158558Y144737471D01*
X43274592Y144659939D01*
X43274602Y144659934D01*
X43403537Y144606527D01*
X43403545Y144606525D01*
X43540414Y144579300D01*
X43540419Y144579300D01*
X43679985Y144579300D01*
X43816854Y144606525D01*
X43816862Y144606527D01*
X43945797Y144659934D01*
X43945807Y144659939D01*
X44061841Y144737471D01*
X44061845Y144737474D01*
X44160525Y144836154D01*
X44160528Y144836158D01*
X44238060Y144952192D01*
X44238065Y144952202D01*
X44291473Y145081138D01*
X44318700Y145218019D01*
X44318700Y145357581D01*
X44291473Y145494462D01*
X44256221Y145579564D01*
X44248752Y145649032D01*
X44280026Y145711512D01*
X44283101Y145714698D01*
X44286267Y145717864D01*
X44286271Y145717869D01*
X44399682Y145873966D01*
X44455012Y145916632D01*
X44524625Y145922611D01*
X44586420Y145890006D01*
X44600318Y145873966D01*
X44713728Y145717869D01*
X44713732Y145717864D01*
X44867864Y145563732D01*
X44867869Y145563728D01*
X45044203Y145435615D01*
X45238416Y145336657D01*
X45342073Y145302977D01*
X45445725Y145269298D01*
X45445728Y145269297D01*
X45445730Y145269297D01*
X45661009Y145235200D01*
X45661014Y145235200D01*
X45878991Y145235200D01*
X46094269Y145269297D01*
X46094275Y145269298D01*
X46251847Y145320497D01*
X46301583Y145336657D01*
X46462044Y145418417D01*
X46495793Y145435613D01*
X46495796Y145435615D01*
X46672130Y145563728D01*
X46672135Y145563732D01*
X46826267Y145717864D01*
X46826271Y145717869D01*
X46939682Y145873966D01*
X46995012Y145916632D01*
X47064625Y145922611D01*
X47126420Y145890006D01*
X47140318Y145873966D01*
X47253728Y145717869D01*
X47253732Y145717864D01*
X47407864Y145563732D01*
X47407869Y145563728D01*
X47584203Y145435615D01*
X47778416Y145336657D01*
X47882073Y145302977D01*
X47985725Y145269298D01*
X47985728Y145269297D01*
X47985730Y145269297D01*
X48201009Y145235200D01*
X48201014Y145235200D01*
X48418991Y145235200D01*
X48634269Y145269297D01*
X48634275Y145269298D01*
X48791847Y145320497D01*
X48841583Y145336657D01*
X49002044Y145418417D01*
X49035793Y145435613D01*
X49035796Y145435615D01*
X49212130Y145563728D01*
X49212135Y145563732D01*
X49267423Y145619020D01*
X49328746Y145652505D01*
X49398438Y145647521D01*
X49442785Y145619020D01*
X51377320Y143684486D01*
X51377323Y143684484D01*
X51510376Y143607664D01*
X51658781Y143567900D01*
X51812420Y143567900D01*
X54647288Y143567900D01*
X54714327Y143548215D01*
X54716178Y143547003D01*
X54751300Y143523535D01*
X54880237Y143470127D01*
X54880245Y143470125D01*
X55017114Y143442900D01*
X55017119Y143442900D01*
X55156685Y143442900D01*
X55293554Y143470125D01*
X55293562Y143470127D01*
X55422497Y143523534D01*
X55422507Y143523539D01*
X55538541Y143601071D01*
X55538545Y143601074D01*
X55637225Y143699754D01*
X55637228Y143699758D01*
X55714760Y143815792D01*
X55714765Y143815802D01*
X55768173Y143944738D01*
X55795400Y144081619D01*
X55795400Y144221181D01*
X55768173Y144358062D01*
X55714764Y144487001D01*
X55637228Y144603042D01*
X55538542Y144701728D01*
X55422501Y144779264D01*
X55293562Y144832673D01*
X55156683Y144859899D01*
X55156682Y144859900D01*
X55156681Y144859900D01*
X55017119Y144859900D01*
X55017118Y144859900D01*
X55017114Y144859899D01*
X54880238Y144832673D01*
X54751299Y144779264D01*
X54739259Y144771219D01*
X54716178Y144755797D01*
X54649500Y144734920D01*
X54647288Y144734900D01*
X52028655Y144734900D01*
X51961616Y144754585D01*
X51940974Y144771219D01*
X51852293Y144859900D01*
X51491936Y145220256D01*
X51458454Y145281575D01*
X51463438Y145351266D01*
X51505309Y145407200D01*
X51523324Y145418417D01*
X51571340Y145442883D01*
X51630545Y145485898D01*
X51630545Y145485899D01*
X52609453Y145485899D01*
X52609453Y145485898D01*
X52668659Y145442884D01*
X52861679Y145344534D01*
X53067715Y145277588D01*
X53281678Y145243700D01*
X53498322Y145243700D01*
X53712284Y145277588D01*
X53918320Y145344534D01*
X54111342Y145442885D01*
X54170545Y145485898D01*
X54170545Y145485899D01*
X53390001Y146266446D01*
X53390000Y146266446D01*
X52609453Y145485899D01*
X51630545Y145485899D01*
X50760904Y146355542D01*
X50727419Y146416865D01*
X50732403Y146486557D01*
X50760904Y146530904D01*
X50939095Y146709095D01*
X51000418Y146742580D01*
X51070110Y146737596D01*
X51114457Y146709095D01*
X51984099Y145839452D01*
X51984101Y145839453D01*
X52019682Y145888426D01*
X52075012Y145931092D01*
X52144625Y145937071D01*
X52206420Y145904465D01*
X52220319Y145888425D01*
X52255898Y145839453D01*
X52255899Y145839453D01*
X53125542Y146709096D01*
X53186865Y146742581D01*
X53256557Y146737597D01*
G37*
%TD.AperFunction*%
%TA.AperFunction,Conductor*%
G36*
X39291383Y133559215D02*
G01*
X39337138Y133506411D01*
X39347082Y133437253D01*
X39318057Y133373697D01*
X39312025Y133367219D01*
X38679888Y132735082D01*
X38618565Y132701597D01*
X38553889Y132704832D01*
X38474275Y132730702D01*
X38378591Y132745856D01*
X38258991Y132764800D01*
X38258986Y132764800D01*
X38119355Y132764800D01*
X38052316Y132784485D01*
X38006561Y132837289D01*
X37996617Y132906447D01*
X38025642Y132970003D01*
X38031674Y132976481D01*
X38597774Y133542581D01*
X38659097Y133576066D01*
X38685455Y133578900D01*
X39224344Y133578900D01*
X39291383Y133559215D01*
G37*
%TD.AperFunction*%
%TD*%
M02*
