M48
; DRILL file KiCad 10.0.5 date 2026-08-21T12:32:18
; FORMAT={-:-/ absolute / metric / decimal}
; #@! TF.CreationDate,2026-08-21T12:32:18-07:00
; #@! TF.GenerationSoftware,Kicad,Pcbnew,10.0.5
; #@! TF.FileFunction,MixedPlating,1,2
FMAT,2
METRIC
; #@! TA.AperFunction,Plated,PTH,ViaDrill
T1C0.200
; #@! TA.AperFunction,Plated,PTH,ComponentDrill
T2C1.000
%
G90
G05
T1
X14.583Y45.463
X15.251Y57.771
X15.552Y109.789
X15.789Y34.775
X23.104Y87.96
X25.553Y96.925
X26.247Y87.781
X26.552Y109.787
X29.749Y123.395
X33.43Y140.553
X33.958Y111.165
X34.787Y83.242
X35.073Y58.554
X35.298Y108.567
X36.945Y90.944
X36.945Y33.496
X38.437Y45.463
X43.61Y145.288
X45.817Y127.951
X47.425Y99.78
X48.552Y82.106
X48.552Y33.768
X48.759Y87.545
X48.853Y133.334
X49.734Y46.192
X55.087Y144.151
X56.992Y133.221
X57.071Y58.775
X58.677Y76.422
X58.925Y88.123
X59.552Y115.223
X68.058Y87.101
X68.064Y46.775
X68.072Y34.549
X69.647Y100.355
X70.552Y108.664
T2
X29.5Y125.925
X32.04Y125.925
X34.58Y125.925
X37.12Y125.925
X39.66Y125.925
X42.2Y125.925
X44.74Y125.925
X47.28Y125.925
M30
