%TF.GenerationSoftware,KiCad,Pcbnew,10.0.5*%
%TF.CreationDate,2026-08-20T23:15:30-07:00*%
%TF.ProjectId,calculator,63616c63-756c-4617-946f-722e6b696361,v1.0.0*%
%TF.SameCoordinates,Original*%
%TF.FileFunction,Legend,Top*%
%TF.FilePolarity,Positive*%
%FSLAX46Y46*%
G04 Gerber Fmt 4.6, Leading zero omitted, Abs format (unit mm)*
G04 Created by KiCad (PCBNEW 10.0.5) date 2026-08-20 23:15:30*
%MOMM*%
%LPD*%
G01*
G04 APERTURE LIST*
%ADD10C,0.300000*%
%ADD11C,0.600000*%
%ADD12C,0.800000*%
%ADD13C,0.158750*%
%ADD14C,0.150000*%
G04 APERTURE END LIST*
D10*
X37857143Y150750242D02*
X37785714Y150821671D01*
X37785714Y150821671D02*
X37642857Y151035957D01*
X37642857Y151035957D02*
X37571429Y151178814D01*
X37571429Y151178814D02*
X37500000Y151393100D01*
X37500000Y151393100D02*
X37428571Y151750242D01*
X37428571Y151750242D02*
X37428571Y152035957D01*
X37428571Y152035957D02*
X37500000Y152393100D01*
X37500000Y152393100D02*
X37571429Y152607385D01*
X37571429Y152607385D02*
X37642857Y152750242D01*
X37642857Y152750242D02*
X37785714Y152964528D01*
X37785714Y152964528D02*
X37857143Y153035957D01*
X38428571Y151321671D02*
X38428571Y152821671D01*
X38428571Y152821671D02*
X39000000Y152821671D01*
X39000000Y152821671D02*
X39142857Y152750242D01*
X39142857Y152750242D02*
X39214286Y152678814D01*
X39214286Y152678814D02*
X39285714Y152535957D01*
X39285714Y152535957D02*
X39285714Y152321671D01*
X39285714Y152321671D02*
X39214286Y152178814D01*
X39214286Y152178814D02*
X39142857Y152107385D01*
X39142857Y152107385D02*
X39000000Y152035957D01*
X39000000Y152035957D02*
X38428571Y152035957D01*
X39928571Y151321671D02*
X39928571Y152321671D01*
X39928571Y152821671D02*
X39857143Y152750242D01*
X39857143Y152750242D02*
X39928571Y152678814D01*
X39928571Y152678814D02*
X40000000Y152750242D01*
X40000000Y152750242D02*
X39928571Y152821671D01*
X39928571Y152821671D02*
X39928571Y152678814D01*
X41285715Y151393100D02*
X41142857Y151321671D01*
X41142857Y151321671D02*
X40857143Y151321671D01*
X40857143Y151321671D02*
X40714286Y151393100D01*
X40714286Y151393100D02*
X40642857Y151464528D01*
X40642857Y151464528D02*
X40571429Y151607385D01*
X40571429Y151607385D02*
X40571429Y152035957D01*
X40571429Y152035957D02*
X40642857Y152178814D01*
X40642857Y152178814D02*
X40714286Y152250242D01*
X40714286Y152250242D02*
X40857143Y152321671D01*
X40857143Y152321671D02*
X41142857Y152321671D01*
X41142857Y152321671D02*
X41285715Y152250242D01*
X42142857Y151321671D02*
X42000000Y151393100D01*
X42000000Y151393100D02*
X41928571Y151464528D01*
X41928571Y151464528D02*
X41857143Y151607385D01*
X41857143Y151607385D02*
X41857143Y152035957D01*
X41857143Y152035957D02*
X41928571Y152178814D01*
X41928571Y152178814D02*
X42000000Y152250242D01*
X42000000Y152250242D02*
X42142857Y152321671D01*
X42142857Y152321671D02*
X42357143Y152321671D01*
X42357143Y152321671D02*
X42500000Y152250242D01*
X42500000Y152250242D02*
X42571429Y152178814D01*
X42571429Y152178814D02*
X42642857Y152035957D01*
X42642857Y152035957D02*
X42642857Y151607385D01*
X42642857Y151607385D02*
X42571429Y151464528D01*
X42571429Y151464528D02*
X42500000Y151393100D01*
X42500000Y151393100D02*
X42357143Y151321671D01*
X42357143Y151321671D02*
X42142857Y151321671D01*
X44428571Y151321671D02*
X44428571Y152821671D01*
X44428571Y152821671D02*
X44928571Y151750242D01*
X44928571Y151750242D02*
X45428571Y152821671D01*
X45428571Y152821671D02*
X45428571Y151321671D01*
X46357143Y151321671D02*
X46214286Y151393100D01*
X46214286Y151393100D02*
X46142857Y151464528D01*
X46142857Y151464528D02*
X46071429Y151607385D01*
X46071429Y151607385D02*
X46071429Y152035957D01*
X46071429Y152035957D02*
X46142857Y152178814D01*
X46142857Y152178814D02*
X46214286Y152250242D01*
X46214286Y152250242D02*
X46357143Y152321671D01*
X46357143Y152321671D02*
X46571429Y152321671D01*
X46571429Y152321671D02*
X46714286Y152250242D01*
X46714286Y152250242D02*
X46785715Y152178814D01*
X46785715Y152178814D02*
X46857143Y152035957D01*
X46857143Y152035957D02*
X46857143Y151607385D01*
X46857143Y151607385D02*
X46785715Y151464528D01*
X46785715Y151464528D02*
X46714286Y151393100D01*
X46714286Y151393100D02*
X46571429Y151321671D01*
X46571429Y151321671D02*
X46357143Y151321671D01*
X48142858Y151321671D02*
X48142858Y152821671D01*
X48142858Y151393100D02*
X48000000Y151321671D01*
X48000000Y151321671D02*
X47714286Y151321671D01*
X47714286Y151321671D02*
X47571429Y151393100D01*
X47571429Y151393100D02*
X47500000Y151464528D01*
X47500000Y151464528D02*
X47428572Y151607385D01*
X47428572Y151607385D02*
X47428572Y152035957D01*
X47428572Y152035957D02*
X47500000Y152178814D01*
X47500000Y152178814D02*
X47571429Y152250242D01*
X47571429Y152250242D02*
X47714286Y152321671D01*
X47714286Y152321671D02*
X48000000Y152321671D01*
X48000000Y152321671D02*
X48142858Y152250242D01*
X49500001Y152321671D02*
X49500001Y151321671D01*
X48857143Y152321671D02*
X48857143Y151535957D01*
X48857143Y151535957D02*
X48928572Y151393100D01*
X48928572Y151393100D02*
X49071429Y151321671D01*
X49071429Y151321671D02*
X49285715Y151321671D01*
X49285715Y151321671D02*
X49428572Y151393100D01*
X49428572Y151393100D02*
X49500001Y151464528D01*
X50428572Y151321671D02*
X50285715Y151393100D01*
X50285715Y151393100D02*
X50214286Y151535957D01*
X50214286Y151535957D02*
X50214286Y152821671D01*
X51571429Y151393100D02*
X51428572Y151321671D01*
X51428572Y151321671D02*
X51142858Y151321671D01*
X51142858Y151321671D02*
X51000000Y151393100D01*
X51000000Y151393100D02*
X50928572Y151535957D01*
X50928572Y151535957D02*
X50928572Y152107385D01*
X50928572Y152107385D02*
X51000000Y152250242D01*
X51000000Y152250242D02*
X51142858Y152321671D01*
X51142858Y152321671D02*
X51428572Y152321671D01*
X51428572Y152321671D02*
X51571429Y152250242D01*
X51571429Y152250242D02*
X51642858Y152107385D01*
X51642858Y152107385D02*
X51642858Y151964528D01*
X51642858Y151964528D02*
X50928572Y151821671D01*
X52142857Y150750242D02*
X52214286Y150821671D01*
X52214286Y150821671D02*
X52357143Y151035957D01*
X52357143Y151035957D02*
X52428572Y151178814D01*
X52428572Y151178814D02*
X52500000Y151393100D01*
X52500000Y151393100D02*
X52571429Y151750242D01*
X52571429Y151750242D02*
X52571429Y152035957D01*
X52571429Y152035957D02*
X52500000Y152393100D01*
X52500000Y152393100D02*
X52428572Y152607385D01*
X52428572Y152607385D02*
X52357143Y152750242D01*
X52357143Y152750242D02*
X52214286Y152964528D01*
X52214286Y152964528D02*
X52142857Y153035957D01*
X37500000Y134464528D02*
X37428572Y134393100D01*
X37428572Y134393100D02*
X37214286Y134321671D01*
X37214286Y134321671D02*
X37071429Y134321671D01*
X37071429Y134321671D02*
X36857143Y134393100D01*
X36857143Y134393100D02*
X36714286Y134535957D01*
X36714286Y134535957D02*
X36642857Y134678814D01*
X36642857Y134678814D02*
X36571429Y134964528D01*
X36571429Y134964528D02*
X36571429Y135178814D01*
X36571429Y135178814D02*
X36642857Y135464528D01*
X36642857Y135464528D02*
X36714286Y135607385D01*
X36714286Y135607385D02*
X36857143Y135750242D01*
X36857143Y135750242D02*
X37071429Y135821671D01*
X37071429Y135821671D02*
X37214286Y135821671D01*
X37214286Y135821671D02*
X37428572Y135750242D01*
X37428572Y135750242D02*
X37500000Y135678814D01*
X38357143Y134321671D02*
X38214286Y134393100D01*
X38214286Y134393100D02*
X38142857Y134464528D01*
X38142857Y134464528D02*
X38071429Y134607385D01*
X38071429Y134607385D02*
X38071429Y135035957D01*
X38071429Y135035957D02*
X38142857Y135178814D01*
X38142857Y135178814D02*
X38214286Y135250242D01*
X38214286Y135250242D02*
X38357143Y135321671D01*
X38357143Y135321671D02*
X38571429Y135321671D01*
X38571429Y135321671D02*
X38714286Y135250242D01*
X38714286Y135250242D02*
X38785715Y135178814D01*
X38785715Y135178814D02*
X38857143Y135035957D01*
X38857143Y135035957D02*
X38857143Y134607385D01*
X38857143Y134607385D02*
X38785715Y134464528D01*
X38785715Y134464528D02*
X38714286Y134393100D01*
X38714286Y134393100D02*
X38571429Y134321671D01*
X38571429Y134321671D02*
X38357143Y134321671D01*
X39500000Y135321671D02*
X39500000Y133821671D01*
X39500000Y135250242D02*
X39642858Y135321671D01*
X39642858Y135321671D02*
X39928572Y135321671D01*
X39928572Y135321671D02*
X40071429Y135250242D01*
X40071429Y135250242D02*
X40142858Y135178814D01*
X40142858Y135178814D02*
X40214286Y135035957D01*
X40214286Y135035957D02*
X40214286Y134607385D01*
X40214286Y134607385D02*
X40142858Y134464528D01*
X40142858Y134464528D02*
X40071429Y134393100D01*
X40071429Y134393100D02*
X39928572Y134321671D01*
X39928572Y134321671D02*
X39642858Y134321671D01*
X39642858Y134321671D02*
X39500000Y134393100D01*
X40714286Y135321671D02*
X41071429Y134321671D01*
X41428572Y135321671D02*
X41071429Y134321671D01*
X41071429Y134321671D02*
X40928572Y133964528D01*
X40928572Y133964528D02*
X40857143Y133893100D01*
X40857143Y133893100D02*
X40714286Y133821671D01*
X42000000Y134321671D02*
X42000000Y135321671D01*
X42000000Y135035957D02*
X42071429Y135178814D01*
X42071429Y135178814D02*
X42142858Y135250242D01*
X42142858Y135250242D02*
X42285715Y135321671D01*
X42285715Y135321671D02*
X42428572Y135321671D01*
X42928571Y134321671D02*
X42928571Y135321671D01*
X42928571Y135821671D02*
X42857143Y135750242D01*
X42857143Y135750242D02*
X42928571Y135678814D01*
X42928571Y135678814D02*
X43000000Y135750242D01*
X43000000Y135750242D02*
X42928571Y135821671D01*
X42928571Y135821671D02*
X42928571Y135678814D01*
X44285715Y135321671D02*
X44285715Y134107385D01*
X44285715Y134107385D02*
X44214286Y133964528D01*
X44214286Y133964528D02*
X44142857Y133893100D01*
X44142857Y133893100D02*
X44000000Y133821671D01*
X44000000Y133821671D02*
X43785715Y133821671D01*
X43785715Y133821671D02*
X43642857Y133893100D01*
X44285715Y134393100D02*
X44142857Y134321671D01*
X44142857Y134321671D02*
X43857143Y134321671D01*
X43857143Y134321671D02*
X43714286Y134393100D01*
X43714286Y134393100D02*
X43642857Y134464528D01*
X43642857Y134464528D02*
X43571429Y134607385D01*
X43571429Y134607385D02*
X43571429Y135035957D01*
X43571429Y135035957D02*
X43642857Y135178814D01*
X43642857Y135178814D02*
X43714286Y135250242D01*
X43714286Y135250242D02*
X43857143Y135321671D01*
X43857143Y135321671D02*
X44142857Y135321671D01*
X44142857Y135321671D02*
X44285715Y135250242D01*
X45000000Y134321671D02*
X45000000Y135821671D01*
X45642858Y134321671D02*
X45642858Y135107385D01*
X45642858Y135107385D02*
X45571429Y135250242D01*
X45571429Y135250242D02*
X45428572Y135321671D01*
X45428572Y135321671D02*
X45214286Y135321671D01*
X45214286Y135321671D02*
X45071429Y135250242D01*
X45071429Y135250242D02*
X45000000Y135178814D01*
X46142858Y135321671D02*
X46714286Y135321671D01*
X46357143Y135821671D02*
X46357143Y134535957D01*
X46357143Y134535957D02*
X46428572Y134393100D01*
X46428572Y134393100D02*
X46571429Y134321671D01*
X46571429Y134321671D02*
X46714286Y134321671D01*
X48285715Y135678814D02*
X48357143Y135750242D01*
X48357143Y135750242D02*
X48500001Y135821671D01*
X48500001Y135821671D02*
X48857143Y135821671D01*
X48857143Y135821671D02*
X49000001Y135750242D01*
X49000001Y135750242D02*
X49071429Y135678814D01*
X49071429Y135678814D02*
X49142858Y135535957D01*
X49142858Y135535957D02*
X49142858Y135393100D01*
X49142858Y135393100D02*
X49071429Y135178814D01*
X49071429Y135178814D02*
X48214286Y134321671D01*
X48214286Y134321671D02*
X49142858Y134321671D01*
X50071429Y135821671D02*
X50214286Y135821671D01*
X50214286Y135821671D02*
X50357143Y135750242D01*
X50357143Y135750242D02*
X50428572Y135678814D01*
X50428572Y135678814D02*
X50500000Y135535957D01*
X50500000Y135535957D02*
X50571429Y135250242D01*
X50571429Y135250242D02*
X50571429Y134893100D01*
X50571429Y134893100D02*
X50500000Y134607385D01*
X50500000Y134607385D02*
X50428572Y134464528D01*
X50428572Y134464528D02*
X50357143Y134393100D01*
X50357143Y134393100D02*
X50214286Y134321671D01*
X50214286Y134321671D02*
X50071429Y134321671D01*
X50071429Y134321671D02*
X49928572Y134393100D01*
X49928572Y134393100D02*
X49857143Y134464528D01*
X49857143Y134464528D02*
X49785714Y134607385D01*
X49785714Y134607385D02*
X49714286Y134893100D01*
X49714286Y134893100D02*
X49714286Y135250242D01*
X49714286Y135250242D02*
X49785714Y135535957D01*
X49785714Y135535957D02*
X49857143Y135678814D01*
X49857143Y135678814D02*
X49928572Y135750242D01*
X49928572Y135750242D02*
X50071429Y135821671D01*
X51142857Y135678814D02*
X51214285Y135750242D01*
X51214285Y135750242D02*
X51357143Y135821671D01*
X51357143Y135821671D02*
X51714285Y135821671D01*
X51714285Y135821671D02*
X51857143Y135750242D01*
X51857143Y135750242D02*
X51928571Y135678814D01*
X51928571Y135678814D02*
X52000000Y135535957D01*
X52000000Y135535957D02*
X52000000Y135393100D01*
X52000000Y135393100D02*
X51928571Y135178814D01*
X51928571Y135178814D02*
X51071428Y134321671D01*
X51071428Y134321671D02*
X52000000Y134321671D01*
X53285714Y135821671D02*
X52999999Y135821671D01*
X52999999Y135821671D02*
X52857142Y135750242D01*
X52857142Y135750242D02*
X52785714Y135678814D01*
X52785714Y135678814D02*
X52642856Y135464528D01*
X52642856Y135464528D02*
X52571428Y135178814D01*
X52571428Y135178814D02*
X52571428Y134607385D01*
X52571428Y134607385D02*
X52642856Y134464528D01*
X52642856Y134464528D02*
X52714285Y134393100D01*
X52714285Y134393100D02*
X52857142Y134321671D01*
X52857142Y134321671D02*
X53142856Y134321671D01*
X53142856Y134321671D02*
X53285714Y134393100D01*
X53285714Y134393100D02*
X53357142Y134464528D01*
X53357142Y134464528D02*
X53428571Y134607385D01*
X53428571Y134607385D02*
X53428571Y134964528D01*
X53428571Y134964528D02*
X53357142Y135107385D01*
X53357142Y135107385D02*
X53285714Y135178814D01*
X53285714Y135178814D02*
X53142856Y135250242D01*
X53142856Y135250242D02*
X52857142Y135250242D01*
X52857142Y135250242D02*
X52714285Y135178814D01*
X52714285Y135178814D02*
X52642856Y135107385D01*
X52642856Y135107385D02*
X52571428Y134964528D01*
D11*
X14428570Y148643342D02*
X15142856Y145643342D01*
X15142856Y145643342D02*
X15714284Y147786200D01*
X15714284Y147786200D02*
X16285713Y145643342D01*
X16285713Y145643342D02*
X16999999Y148643342D01*
X19428570Y145643342D02*
X19428570Y147214771D01*
X19428570Y147214771D02*
X19285712Y147500485D01*
X19285712Y147500485D02*
X18999998Y147643342D01*
X18999998Y147643342D02*
X18428570Y147643342D01*
X18428570Y147643342D02*
X18142855Y147500485D01*
X19428570Y145786200D02*
X19142855Y145643342D01*
X19142855Y145643342D02*
X18428570Y145643342D01*
X18428570Y145643342D02*
X18142855Y145786200D01*
X18142855Y145786200D02*
X17999998Y146071914D01*
X17999998Y146071914D02*
X17999998Y146357628D01*
X17999998Y146357628D02*
X18142855Y146643342D01*
X18142855Y146643342D02*
X18428570Y146786200D01*
X18428570Y146786200D02*
X19142855Y146786200D01*
X19142855Y146786200D02*
X19428570Y146929057D01*
X20428570Y147643342D02*
X21571427Y147643342D01*
X20857141Y148643342D02*
X20857141Y146071914D01*
X20857141Y146071914D02*
X20999998Y145786200D01*
X20999998Y145786200D02*
X21285713Y145643342D01*
X21285713Y145643342D02*
X21571427Y145643342D01*
X23857142Y145786200D02*
X23571427Y145643342D01*
X23571427Y145643342D02*
X22999999Y145643342D01*
X22999999Y145643342D02*
X22714284Y145786200D01*
X22714284Y145786200D02*
X22571427Y145929057D01*
X22571427Y145929057D02*
X22428570Y146214771D01*
X22428570Y146214771D02*
X22428570Y147071914D01*
X22428570Y147071914D02*
X22571427Y147357628D01*
X22571427Y147357628D02*
X22714284Y147500485D01*
X22714284Y147500485D02*
X22999999Y147643342D01*
X22999999Y147643342D02*
X23571427Y147643342D01*
X23571427Y147643342D02*
X23857142Y147500485D01*
X25142856Y145643342D02*
X25142856Y148643342D01*
X26428571Y145643342D02*
X26428571Y147214771D01*
X26428571Y147214771D02*
X26285713Y147500485D01*
X26285713Y147500485D02*
X25999999Y147643342D01*
X25999999Y147643342D02*
X25571428Y147643342D01*
X25571428Y147643342D02*
X25285713Y147500485D01*
X25285713Y147500485D02*
X25142856Y147357628D01*
X29571428Y145929057D02*
X29428571Y145786200D01*
X29428571Y145786200D02*
X28999999Y145643342D01*
X28999999Y145643342D02*
X28714285Y145643342D01*
X28714285Y145643342D02*
X28285714Y145786200D01*
X28285714Y145786200D02*
X27999999Y146071914D01*
X27999999Y146071914D02*
X27857142Y146357628D01*
X27857142Y146357628D02*
X27714285Y146929057D01*
X27714285Y146929057D02*
X27714285Y147357628D01*
X27714285Y147357628D02*
X27857142Y147929057D01*
X27857142Y147929057D02*
X27999999Y148214771D01*
X27999999Y148214771D02*
X28285714Y148500485D01*
X28285714Y148500485D02*
X28714285Y148643342D01*
X28714285Y148643342D02*
X28999999Y148643342D01*
X28999999Y148643342D02*
X29428571Y148500485D01*
X29428571Y148500485D02*
X29571428Y148357628D01*
X32142857Y145643342D02*
X32142857Y147214771D01*
X32142857Y147214771D02*
X31999999Y147500485D01*
X31999999Y147500485D02*
X31714285Y147643342D01*
X31714285Y147643342D02*
X31142857Y147643342D01*
X31142857Y147643342D02*
X30857142Y147500485D01*
X32142857Y145786200D02*
X31857142Y145643342D01*
X31857142Y145643342D02*
X31142857Y145643342D01*
X31142857Y145643342D02*
X30857142Y145786200D01*
X30857142Y145786200D02*
X30714285Y146071914D01*
X30714285Y146071914D02*
X30714285Y146357628D01*
X30714285Y146357628D02*
X30857142Y146643342D01*
X30857142Y146643342D02*
X31142857Y146786200D01*
X31142857Y146786200D02*
X31857142Y146786200D01*
X31857142Y146786200D02*
X32142857Y146929057D01*
X34000000Y145643342D02*
X33714285Y145786200D01*
X33714285Y145786200D02*
X33571428Y146071914D01*
X33571428Y146071914D02*
X33571428Y148643342D01*
X36428572Y145786200D02*
X36142857Y145643342D01*
X36142857Y145643342D02*
X35571429Y145643342D01*
X35571429Y145643342D02*
X35285714Y145786200D01*
X35285714Y145786200D02*
X35142857Y145929057D01*
X35142857Y145929057D02*
X35000000Y146214771D01*
X35000000Y146214771D02*
X35000000Y147071914D01*
X35000000Y147071914D02*
X35142857Y147357628D01*
X35142857Y147357628D02*
X35285714Y147500485D01*
X35285714Y147500485D02*
X35571429Y147643342D01*
X35571429Y147643342D02*
X36142857Y147643342D01*
X36142857Y147643342D02*
X36428572Y147500485D01*
X39714286Y148643342D02*
X41571429Y148643342D01*
X41571429Y148643342D02*
X40571429Y147500485D01*
X40571429Y147500485D02*
X41000000Y147500485D01*
X41000000Y147500485D02*
X41285715Y147357628D01*
X41285715Y147357628D02*
X41428572Y147214771D01*
X41428572Y147214771D02*
X41571429Y146929057D01*
X41571429Y146929057D02*
X41571429Y146214771D01*
X41571429Y146214771D02*
X41428572Y145929057D01*
X41428572Y145929057D02*
X41285715Y145786200D01*
X41285715Y145786200D02*
X41000000Y145643342D01*
X41000000Y145643342D02*
X40142857Y145643342D01*
X40142857Y145643342D02*
X39857143Y145786200D01*
X39857143Y145786200D02*
X39714286Y145929057D01*
X42714286Y148357628D02*
X42857143Y148500485D01*
X42857143Y148500485D02*
X43142858Y148643342D01*
X43142858Y148643342D02*
X43857143Y148643342D01*
X43857143Y148643342D02*
X44142858Y148500485D01*
X44142858Y148500485D02*
X44285715Y148357628D01*
X44285715Y148357628D02*
X44428572Y148071914D01*
X44428572Y148071914D02*
X44428572Y147786200D01*
X44428572Y147786200D02*
X44285715Y147357628D01*
X44285715Y147357628D02*
X42571429Y145643342D01*
X42571429Y145643342D02*
X44428572Y145643342D01*
D12*
X37857143Y143572076D02*
X37666667Y143381600D01*
X37666667Y143381600D02*
X37095238Y143191123D01*
X37095238Y143191123D02*
X36714286Y143191123D01*
X36714286Y143191123D02*
X36142857Y143381600D01*
X36142857Y143381600D02*
X35761905Y143762552D01*
X35761905Y143762552D02*
X35571428Y144143504D01*
X35571428Y144143504D02*
X35380952Y144905409D01*
X35380952Y144905409D02*
X35380952Y145476838D01*
X35380952Y145476838D02*
X35571428Y146238742D01*
X35571428Y146238742D02*
X35761905Y146619695D01*
X35761905Y146619695D02*
X36142857Y147000647D01*
X36142857Y147000647D02*
X36714286Y147191123D01*
X36714286Y147191123D02*
X37095238Y147191123D01*
X37095238Y147191123D02*
X37666667Y147000647D01*
X37666667Y147000647D02*
X37857143Y146810171D01*
X41285714Y143191123D02*
X41285714Y145286361D01*
X41285714Y145286361D02*
X41095238Y145667314D01*
X41095238Y145667314D02*
X40714286Y145857790D01*
X40714286Y145857790D02*
X39952381Y145857790D01*
X39952381Y145857790D02*
X39571428Y145667314D01*
X41285714Y143381600D02*
X40904762Y143191123D01*
X40904762Y143191123D02*
X39952381Y143191123D01*
X39952381Y143191123D02*
X39571428Y143381600D01*
X39571428Y143381600D02*
X39380952Y143762552D01*
X39380952Y143762552D02*
X39380952Y144143504D01*
X39380952Y144143504D02*
X39571428Y144524457D01*
X39571428Y144524457D02*
X39952381Y144714933D01*
X39952381Y144714933D02*
X40904762Y144714933D01*
X40904762Y144714933D02*
X41285714Y144905409D01*
X43761905Y143191123D02*
X43380953Y143381600D01*
X43380953Y143381600D02*
X43190476Y143762552D01*
X43190476Y143762552D02*
X43190476Y147191123D01*
X47000000Y143381600D02*
X46619048Y143191123D01*
X46619048Y143191123D02*
X45857143Y143191123D01*
X45857143Y143191123D02*
X45476191Y143381600D01*
X45476191Y143381600D02*
X45285714Y143572076D01*
X45285714Y143572076D02*
X45095238Y143953028D01*
X45095238Y143953028D02*
X45095238Y145095885D01*
X45095238Y145095885D02*
X45285714Y145476838D01*
X45285714Y145476838D02*
X45476191Y145667314D01*
X45476191Y145667314D02*
X45857143Y145857790D01*
X45857143Y145857790D02*
X46619048Y145857790D01*
X46619048Y145857790D02*
X47000000Y145667314D01*
X48333333Y147191123D02*
X50809524Y147191123D01*
X50809524Y147191123D02*
X49476190Y145667314D01*
X49476190Y145667314D02*
X50047619Y145667314D01*
X50047619Y145667314D02*
X50428571Y145476838D01*
X50428571Y145476838D02*
X50619047Y145286361D01*
X50619047Y145286361D02*
X50809524Y144905409D01*
X50809524Y144905409D02*
X50809524Y143953028D01*
X50809524Y143953028D02*
X50619047Y143572076D01*
X50619047Y143572076D02*
X50428571Y143381600D01*
X50428571Y143381600D02*
X50047619Y143191123D01*
X50047619Y143191123D02*
X48904762Y143191123D01*
X48904762Y143191123D02*
X48523809Y143381600D01*
X48523809Y143381600D02*
X48333333Y143572076D01*
X52333333Y146810171D02*
X52523809Y147000647D01*
X52523809Y147000647D02*
X52904762Y147191123D01*
X52904762Y147191123D02*
X53857143Y147191123D01*
X53857143Y147191123D02*
X54238095Y147000647D01*
X54238095Y147000647D02*
X54428571Y146810171D01*
X54428571Y146810171D02*
X54619048Y146429219D01*
X54619048Y146429219D02*
X54619048Y146048266D01*
X54619048Y146048266D02*
X54428571Y145476838D01*
X54428571Y145476838D02*
X52142857Y143191123D01*
X52142857Y143191123D02*
X54619048Y143191123D01*
D13*
X27776428Y131345728D02*
X27776428Y132615728D01*
X27776428Y132615728D02*
X28078809Y132615728D01*
X28078809Y132615728D02*
X28260238Y132555252D01*
X28260238Y132555252D02*
X28381190Y132434300D01*
X28381190Y132434300D02*
X28441667Y132313347D01*
X28441667Y132313347D02*
X28502143Y132071443D01*
X28502143Y132071443D02*
X28502143Y131890014D01*
X28502143Y131890014D02*
X28441667Y131648109D01*
X28441667Y131648109D02*
X28381190Y131527157D01*
X28381190Y131527157D02*
X28260238Y131406205D01*
X28260238Y131406205D02*
X28078809Y131345728D01*
X28078809Y131345728D02*
X27776428Y131345728D01*
X29046428Y131345728D02*
X29046428Y132192395D01*
X29046428Y132615728D02*
X28985952Y132555252D01*
X28985952Y132555252D02*
X29046428Y132494776D01*
X29046428Y132494776D02*
X29106905Y132555252D01*
X29106905Y132555252D02*
X29046428Y132615728D01*
X29046428Y132615728D02*
X29046428Y132494776D01*
X29590714Y131406205D02*
X29711667Y131345728D01*
X29711667Y131345728D02*
X29953571Y131345728D01*
X29953571Y131345728D02*
X30074524Y131406205D01*
X30074524Y131406205D02*
X30135000Y131527157D01*
X30135000Y131527157D02*
X30135000Y131587633D01*
X30135000Y131587633D02*
X30074524Y131708585D01*
X30074524Y131708585D02*
X29953571Y131769062D01*
X29953571Y131769062D02*
X29772143Y131769062D01*
X29772143Y131769062D02*
X29651190Y131829538D01*
X29651190Y131829538D02*
X29590714Y131950490D01*
X29590714Y131950490D02*
X29590714Y132010966D01*
X29590714Y132010966D02*
X29651190Y132131919D01*
X29651190Y132131919D02*
X29772143Y132192395D01*
X29772143Y132192395D02*
X29953571Y132192395D01*
X29953571Y132192395D02*
X30074524Y132131919D01*
X30679285Y132192395D02*
X30679285Y130922395D01*
X30679285Y132131919D02*
X30800238Y132192395D01*
X30800238Y132192395D02*
X31042143Y132192395D01*
X31042143Y132192395D02*
X31163095Y132131919D01*
X31163095Y132131919D02*
X31223571Y132071443D01*
X31223571Y132071443D02*
X31284047Y131950490D01*
X31284047Y131950490D02*
X31284047Y131587633D01*
X31284047Y131587633D02*
X31223571Y131466681D01*
X31223571Y131466681D02*
X31163095Y131406205D01*
X31163095Y131406205D02*
X31042143Y131345728D01*
X31042143Y131345728D02*
X30800238Y131345728D01*
X30800238Y131345728D02*
X30679285Y131406205D01*
%TO.C,B18*%
D14*
X14775000Y58175000D02*
X14775000Y55675000D01*
X14775000Y58175000D02*
X16275000Y59675000D01*
X14775000Y55675000D02*
X16275000Y54175000D01*
X16275000Y59675000D02*
X18775000Y59675000D01*
X16275000Y54175000D02*
X18775000Y54175000D01*
X20275000Y58175000D02*
X18775000Y59675000D01*
X20275000Y58175000D02*
X20275000Y55675000D01*
X20275000Y55675000D02*
X18775000Y54175000D01*
%TO.C,B33*%
X58775000Y22175000D02*
X58775000Y19675000D01*
X58775000Y22175000D02*
X60275000Y23675000D01*
X58775000Y19675000D02*
X60275000Y18175000D01*
X60275000Y23675000D02*
X62775000Y23675000D01*
X60275000Y18175000D02*
X62775000Y18175000D01*
X64275000Y22175000D02*
X62775000Y23675000D01*
X64275000Y22175000D02*
X64275000Y19675000D01*
X64275000Y19675000D02*
X62775000Y18175000D01*
%TO.C,B1*%
X20275000Y74175000D02*
X20275000Y71675000D01*
X20275000Y74175000D02*
X21775000Y75675000D01*
X20275000Y71675000D02*
X21775000Y70175000D01*
X21775000Y75675000D02*
X24275000Y75675000D01*
X21775000Y70175000D02*
X24275000Y70175000D01*
X25775000Y74175000D02*
X24275000Y75675000D01*
X25775000Y74175000D02*
X25775000Y71675000D01*
X25775000Y71675000D02*
X24275000Y70175000D01*
%TO.C,B36*%
X69775000Y34174999D02*
X69775000Y31674999D01*
X69775000Y34174999D02*
X71275000Y35674999D01*
X69775000Y31674999D02*
X71275000Y30174999D01*
X71275000Y35674999D02*
X73775000Y35674999D01*
X71275000Y30174999D02*
X73775000Y30174999D01*
X75275000Y34174999D02*
X73775000Y35674999D01*
X75275000Y34174999D02*
X75275000Y31674999D01*
X75275000Y31674999D02*
X73775000Y30174999D01*
%TO.C,B23*%
X36775000Y46175000D02*
X36775000Y43675000D01*
X36775000Y46175000D02*
X38275000Y47675000D01*
X36775000Y43675000D02*
X38275000Y42175000D01*
X38275000Y47675000D02*
X40775000Y47675000D01*
X38275000Y42175000D02*
X40775000Y42175000D01*
X42275000Y46175000D02*
X40775000Y47675000D01*
X42275000Y46175000D02*
X42275000Y43675000D01*
X42275000Y43675000D02*
X40775000Y42175000D01*
%TO.C,B24*%
X36775000Y34174999D02*
X36775000Y31674999D01*
X36775000Y34174999D02*
X38275000Y35674999D01*
X36775000Y31674999D02*
X38275000Y30174999D01*
X38275000Y35674999D02*
X40775000Y35674999D01*
X38275000Y30174999D02*
X40775000Y30174999D01*
X42275000Y34174999D02*
X40775000Y35674999D01*
X42275000Y34174999D02*
X42275000Y31674999D01*
X42275000Y31674999D02*
X40775000Y30174999D01*
%TO.C,B22*%
X36775000Y58175000D02*
X36775000Y55675000D01*
X36775000Y58175000D02*
X38275000Y59675000D01*
X36775000Y55675000D02*
X38275000Y54175000D01*
X38275000Y59675000D02*
X40775000Y59675000D01*
X38275000Y54175000D02*
X40775000Y54175000D01*
X42275000Y58175000D02*
X40775000Y59675000D01*
X42275000Y58175000D02*
X42275000Y55675000D01*
X42275000Y55675000D02*
X40775000Y54175000D01*
%TO.C,B32*%
X58775000Y34174999D02*
X58775000Y31674999D01*
X58775000Y34174999D02*
X60275000Y35674999D01*
X58775000Y31674999D02*
X60275000Y30174999D01*
X60275000Y35674999D02*
X62775000Y35674999D01*
X60275000Y30174999D02*
X62775000Y30174999D01*
X64275000Y34174999D02*
X62775000Y35674999D01*
X64275000Y34174999D02*
X64275000Y31674999D01*
X64275000Y31674999D02*
X62775000Y30174999D01*
%TO.C,B34*%
X69775000Y58175000D02*
X69775000Y55675000D01*
X69775000Y58175000D02*
X71275000Y59675000D01*
X69775000Y55675000D02*
X71275000Y54175000D01*
X71275000Y59675000D02*
X73775000Y59675000D01*
X71275000Y54175000D02*
X73775000Y54175000D01*
X75275000Y58175000D02*
X73775000Y59675000D01*
X75275000Y58175000D02*
X75275000Y55675000D01*
X75275000Y55675000D02*
X73775000Y54175000D01*
%TO.C,B20*%
X14775000Y34174999D02*
X14775000Y31674999D01*
X14775000Y34174999D02*
X16275000Y35674999D01*
X14775000Y31674999D02*
X16275000Y30174999D01*
X16275000Y35674999D02*
X18775000Y35674999D01*
X16275000Y30174999D02*
X18775000Y30174999D01*
X20275000Y34174999D02*
X18775000Y35674999D01*
X20275000Y34174999D02*
X20275000Y31674999D01*
X20275000Y31674999D02*
X18775000Y30174999D01*
%TO.C,B35*%
X69775000Y46175000D02*
X69775000Y43675000D01*
X69775000Y46175000D02*
X71275000Y47675000D01*
X69775000Y43675000D02*
X71275000Y42175000D01*
X71275000Y47675000D02*
X73775000Y47675000D01*
X71275000Y42175000D02*
X73775000Y42175000D01*
X75275000Y46175000D02*
X73775000Y47675000D01*
X75275000Y46175000D02*
X75275000Y43675000D01*
X75275000Y43675000D02*
X73775000Y42175000D01*
%TO.C,B28*%
X47775000Y34174999D02*
X47775000Y31674999D01*
X47775000Y34174999D02*
X49275000Y35674999D01*
X47775000Y31674999D02*
X49275000Y30174999D01*
X49275000Y35674999D02*
X51775000Y35674999D01*
X49275000Y30174999D02*
X51775000Y30174999D01*
X53275000Y34174999D02*
X51775000Y35674999D01*
X53275000Y34174999D02*
X53275000Y31674999D01*
X53275000Y31674999D02*
X51775000Y30174999D01*
%TO.C,B29*%
X47775000Y22175000D02*
X47775000Y19675000D01*
X47775000Y22175000D02*
X49275000Y23675000D01*
X47775000Y19675000D02*
X49275000Y18175000D01*
X49275000Y23675000D02*
X51775000Y23675000D01*
X49275000Y18175000D02*
X51775000Y18175000D01*
X53275000Y22175000D02*
X51775000Y23675000D01*
X53275000Y22175000D02*
X53275000Y19675000D01*
X53275000Y19675000D02*
X51775000Y18175000D01*
%TO.C,B21*%
X14775000Y22175000D02*
X14775000Y19675000D01*
X14775000Y22175000D02*
X16275000Y23675000D01*
X14775000Y19675000D02*
X16275000Y18175000D01*
X16275000Y23675000D02*
X18775000Y23675000D01*
X16275000Y18175000D02*
X18775000Y18175000D01*
X20275000Y22175000D02*
X18775000Y23675000D01*
X20275000Y22175000D02*
X20275000Y19675000D01*
X20275000Y19675000D02*
X18775000Y18175000D01*
%TO.C,B17*%
X69775000Y98175000D02*
X69775000Y95675000D01*
X69775000Y98175000D02*
X71275000Y99675000D01*
X69775000Y95675000D02*
X71275000Y94175000D01*
X71275000Y99675000D02*
X73775000Y99675000D01*
X71275000Y94175000D02*
X73775000Y94175000D01*
X75275000Y98175000D02*
X73775000Y99675000D01*
X75275000Y98175000D02*
X75275000Y95675000D01*
X75275000Y95675000D02*
X73775000Y94175000D01*
%TO.C,B30*%
X58775000Y58175000D02*
X58775000Y55675000D01*
X58775000Y58175000D02*
X60275000Y59675000D01*
X58775000Y55675000D02*
X60275000Y54175000D01*
X60275000Y59675000D02*
X62775000Y59675000D01*
X60275000Y54175000D02*
X62775000Y54175000D01*
X64275000Y58175000D02*
X62775000Y59675000D01*
X64275000Y58175000D02*
X64275000Y55675000D01*
X64275000Y55675000D02*
X62775000Y54175000D01*
%TO.C,B19*%
X14775000Y46175000D02*
X14775000Y43675000D01*
X14775000Y46175000D02*
X16275000Y47675000D01*
X14775000Y43675000D02*
X16275000Y42175000D01*
X16275000Y47675000D02*
X18775000Y47675000D01*
X16275000Y42175000D02*
X18775000Y42175000D01*
X20275000Y46175000D02*
X18775000Y47675000D01*
X20275000Y46175000D02*
X20275000Y43675000D01*
X20275000Y43675000D02*
X18775000Y42175000D01*
%TO.C,B31*%
X58775000Y46175000D02*
X58775000Y43675000D01*
X58775000Y46175000D02*
X60275000Y47675000D01*
X58775000Y43675000D02*
X60275000Y42175000D01*
X60275000Y47675000D02*
X62775000Y47675000D01*
X60275000Y42175000D02*
X62775000Y42175000D01*
X64275000Y46175000D02*
X62775000Y47675000D01*
X64275000Y46175000D02*
X64275000Y43675000D01*
X64275000Y43675000D02*
X62775000Y42175000D01*
%TO.C,B37*%
X69775000Y22175000D02*
X69775000Y19675000D01*
X69775000Y22175000D02*
X71275000Y23675000D01*
X69775000Y19675000D02*
X71275000Y18175000D01*
X71275000Y23675000D02*
X73775000Y23675000D01*
X71275000Y18175000D02*
X73775000Y18175000D01*
X75275000Y22175000D02*
X73775000Y23675000D01*
X75275000Y22175000D02*
X75275000Y19675000D01*
X75275000Y19675000D02*
X73775000Y18175000D01*
%TO.C,B2*%
X14775000Y86175000D02*
X14775000Y83675000D01*
X14775000Y86175000D02*
X16275000Y87675000D01*
X14775000Y83675000D02*
X16275000Y82175000D01*
X16275000Y87675000D02*
X18775000Y87675000D01*
X16275000Y82175000D02*
X18775000Y82175000D01*
X20275000Y86175000D02*
X18775000Y87675000D01*
X20275000Y86175000D02*
X20275000Y83675000D01*
X20275000Y83675000D02*
X18775000Y82175000D01*
%TO.C,B3*%
X14775000Y98175000D02*
X14775000Y95675000D01*
X14775000Y98175000D02*
X16275000Y99675000D01*
X14775000Y95675000D02*
X16275000Y94175000D01*
X16275000Y99675000D02*
X18775000Y99675000D01*
X16275000Y94175000D02*
X18775000Y94175000D01*
X20275000Y98175000D02*
X18775000Y99675000D01*
X20275000Y98175000D02*
X20275000Y95675000D01*
X20275000Y95675000D02*
X18775000Y94175000D01*
%TO.C,B4*%
X25775000Y86175000D02*
X25775000Y83675000D01*
X25775000Y86175000D02*
X27275000Y87675000D01*
X25775000Y83675000D02*
X27275000Y82175000D01*
X27275000Y87675000D02*
X29775000Y87675000D01*
X27275000Y82175000D02*
X29775000Y82175000D01*
X31275000Y86175000D02*
X29775000Y87675000D01*
X31275000Y86175000D02*
X31275000Y83675000D01*
X31275000Y83675000D02*
X29775000Y82175000D01*
%TO.C,B5*%
X25775000Y98175000D02*
X25775000Y95675000D01*
X25775000Y98175000D02*
X27275000Y99675000D01*
X25775000Y95675000D02*
X27275000Y94175000D01*
X27275000Y99675000D02*
X29775000Y99675000D01*
X27275000Y94175000D02*
X29775000Y94175000D01*
X31275000Y98175000D02*
X29775000Y99675000D01*
X31275000Y98175000D02*
X31275000Y95675000D01*
X31275000Y95675000D02*
X29775000Y94175000D01*
%TO.C,B6*%
X36775000Y74175000D02*
X36775000Y71675000D01*
X36775000Y74175000D02*
X38275000Y75675000D01*
X36775000Y71675000D02*
X38275000Y70175000D01*
X38275000Y75675000D02*
X40775000Y75675000D01*
X38275000Y70175000D02*
X40775000Y70175000D01*
X42275000Y74175000D02*
X40775000Y75675000D01*
X42275000Y74175000D02*
X42275000Y71675000D01*
X42275000Y71675000D02*
X40775000Y70175000D01*
%TO.C,B7*%
X36775000Y86175000D02*
X36775000Y83675000D01*
X36775000Y86175000D02*
X38275000Y87675000D01*
X36775000Y83675000D02*
X38275000Y82175000D01*
X38275000Y87675000D02*
X40775000Y87675000D01*
X38275000Y82175000D02*
X40775000Y82175000D01*
X42275000Y86175000D02*
X40775000Y87675000D01*
X42275000Y86175000D02*
X42275000Y83675000D01*
X42275000Y83675000D02*
X40775000Y82175000D01*
%TO.C,B8*%
X36775000Y98175000D02*
X36775000Y95675000D01*
X36775000Y98175000D02*
X38275000Y99675000D01*
X36775000Y95675000D02*
X38275000Y94175000D01*
X38275000Y99675000D02*
X40775000Y99675000D01*
X38275000Y94175000D02*
X40775000Y94175000D01*
X42275000Y98175000D02*
X40775000Y99675000D01*
X42275000Y98175000D02*
X42275000Y95675000D01*
X42275000Y95675000D02*
X40775000Y94175000D01*
%TO.C,B9*%
X47775000Y74175000D02*
X47775000Y71675000D01*
X47775000Y74175000D02*
X49275000Y75675000D01*
X47775000Y71675000D02*
X49275000Y70175000D01*
X49275000Y75675000D02*
X51775000Y75675000D01*
X49275000Y70175000D02*
X51775000Y70175000D01*
X53275000Y74175000D02*
X51775000Y75675000D01*
X53275000Y74175000D02*
X53275000Y71675000D01*
X53275000Y71675000D02*
X51775000Y70175000D01*
%TO.C,B10*%
X47775000Y86175000D02*
X47775000Y83675000D01*
X47775000Y86175000D02*
X49275000Y87675000D01*
X47775000Y83675000D02*
X49275000Y82175000D01*
X49275000Y87675000D02*
X51775000Y87675000D01*
X49275000Y82175000D02*
X51775000Y82175000D01*
X53275000Y86175000D02*
X51775000Y87675000D01*
X53275000Y86175000D02*
X53275000Y83675000D01*
X53275000Y83675000D02*
X51775000Y82175000D01*
%TO.C,B25*%
X36775000Y22175000D02*
X36775000Y19675000D01*
X36775000Y22175000D02*
X38275000Y23675000D01*
X36775000Y19675000D02*
X38275000Y18175000D01*
X38275000Y23675000D02*
X40775000Y23675000D01*
X38275000Y18175000D02*
X40775000Y18175000D01*
X42275000Y22175000D02*
X40775000Y23675000D01*
X42275000Y22175000D02*
X42275000Y19675000D01*
X42275000Y19675000D02*
X40775000Y18175000D01*
%TO.C,B26*%
X47775000Y58175000D02*
X47775000Y55675000D01*
X47775000Y58175000D02*
X49275000Y59675000D01*
X47775000Y55675000D02*
X49275000Y54175000D01*
X49275000Y59675000D02*
X51775000Y59675000D01*
X49275000Y54175000D02*
X51775000Y54175000D01*
X53275000Y58175000D02*
X51775000Y59675000D01*
X53275000Y58175000D02*
X53275000Y55675000D01*
X53275000Y55675000D02*
X51775000Y54175000D01*
%TO.C,B27*%
X47775000Y46175000D02*
X47775000Y43675000D01*
X47775000Y46175000D02*
X49275000Y47675000D01*
X47775000Y43675000D02*
X49275000Y42175000D01*
X49275000Y47675000D02*
X51775000Y47675000D01*
X49275000Y42175000D02*
X51775000Y42175000D01*
X53275000Y46175000D02*
X51775000Y47675000D01*
X53275000Y46175000D02*
X53275000Y43675000D01*
X53275000Y43675000D02*
X51775000Y42175000D01*
%TO.C,B11*%
X47775000Y98175000D02*
X47775000Y95675000D01*
X47775000Y98175000D02*
X49275000Y99675000D01*
X47775000Y95675000D02*
X49275000Y94175000D01*
X49275000Y99675000D02*
X51775000Y99675000D01*
X49275000Y94175000D02*
X51775000Y94175000D01*
X53275000Y98175000D02*
X51775000Y99675000D01*
X53275000Y98175000D02*
X53275000Y95675000D01*
X53275000Y95675000D02*
X51775000Y94175000D01*
%TO.C,B12*%
X58775000Y74175000D02*
X58775000Y71675000D01*
X58775000Y74175000D02*
X60275000Y75675000D01*
X58775000Y71675000D02*
X60275000Y70175000D01*
X60275000Y75675000D02*
X62775000Y75675000D01*
X60275000Y70175000D02*
X62775000Y70175000D01*
X64275000Y74175000D02*
X62775000Y75675000D01*
X64275000Y74175000D02*
X64275000Y71675000D01*
X64275000Y71675000D02*
X62775000Y70175000D01*
%TO.C,B13*%
X58775000Y86175000D02*
X58775000Y83675000D01*
X58775000Y86175000D02*
X60275000Y87675000D01*
X58775000Y83675000D02*
X60275000Y82175000D01*
X60275000Y87675000D02*
X62775000Y87675000D01*
X60275000Y82175000D02*
X62775000Y82175000D01*
X64275000Y86175000D02*
X62775000Y87675000D01*
X64275000Y86175000D02*
X64275000Y83675000D01*
X64275000Y83675000D02*
X62775000Y82175000D01*
%TO.C,B14*%
X58775000Y98175000D02*
X58775000Y95675000D01*
X58775000Y98175000D02*
X60275000Y99675000D01*
X58775000Y95675000D02*
X60275000Y94175000D01*
X60275000Y99675000D02*
X62775000Y99675000D01*
X60275000Y94175000D02*
X62775000Y94175000D01*
X64275000Y98175000D02*
X62775000Y99675000D01*
X64275000Y98175000D02*
X64275000Y95675000D01*
X64275000Y95675000D02*
X62775000Y94175000D01*
%TO.C,B15*%
X69775000Y74175000D02*
X69775000Y71675000D01*
X69775000Y74175000D02*
X71275000Y75675000D01*
X69775000Y71675000D02*
X71275000Y70175000D01*
X71275000Y75675000D02*
X73775000Y75675000D01*
X71275000Y70175000D02*
X73775000Y70175000D01*
X75275000Y74175000D02*
X73775000Y75675000D01*
X75275000Y74175000D02*
X75275000Y71675000D01*
X75275000Y71675000D02*
X73775000Y70175000D01*
%TO.C,B16*%
X69775000Y86175000D02*
X69775000Y83675000D01*
X69775000Y86175000D02*
X71275000Y87675000D01*
X69775000Y83675000D02*
X71275000Y82175000D01*
X71275000Y87675000D02*
X73775000Y87675000D01*
X71275000Y82175000D02*
X73775000Y82175000D01*
X75275000Y86175000D02*
X73775000Y87675000D01*
X75275000Y86175000D02*
X75275000Y83675000D01*
X75275000Y83675000D02*
X73775000Y82175000D01*
%TO.C,SOFT5*%
X58775000Y110175000D02*
X58775000Y107675000D01*
X58775000Y110175000D02*
X60275000Y111675000D01*
X58775000Y107675000D02*
X60275000Y106175000D01*
X60275000Y111675000D02*
X62775000Y111675000D01*
X60275000Y106175000D02*
X62775000Y106175000D01*
X64275000Y110175000D02*
X62775000Y111675000D01*
X64275000Y110175000D02*
X64275000Y107675000D01*
X64275000Y107675000D02*
X62775000Y106175000D01*
%TO.C,SOFT6*%
X69775000Y110175000D02*
X69775000Y107675000D01*
X69775000Y110175000D02*
X71275000Y111675000D01*
X69775000Y107675000D02*
X71275000Y106175000D01*
X71275000Y111675000D02*
X73775000Y111675000D01*
X71275000Y106175000D02*
X73775000Y106175000D01*
X75275000Y110175000D02*
X73775000Y111675000D01*
X75275000Y110175000D02*
X75275000Y107675000D01*
X75275000Y107675000D02*
X73775000Y106175000D01*
%TO.C,SOFT1*%
X14775000Y110175000D02*
X14775000Y107675000D01*
X14775000Y110175000D02*
X16275000Y111675000D01*
X14775000Y107675000D02*
X16275000Y106175000D01*
X16275000Y111675000D02*
X18775000Y111675000D01*
X16275000Y106175000D02*
X18775000Y106175000D01*
X20275000Y110175000D02*
X18775000Y111675000D01*
X20275000Y110175000D02*
X20275000Y107675000D01*
X20275000Y107675000D02*
X18775000Y106175000D01*
%TO.C,SOFT4*%
X47775000Y110175000D02*
X47775000Y107675000D01*
X47775000Y110175000D02*
X49275000Y111675000D01*
X47775000Y107675000D02*
X49275000Y106175000D01*
X49275000Y111675000D02*
X51775000Y111675000D01*
X49275000Y106175000D02*
X51775000Y106175000D01*
X53275000Y110175000D02*
X51775000Y111675000D01*
X53275000Y110175000D02*
X53275000Y107675000D01*
X53275000Y107675000D02*
X51775000Y106175000D01*
%TO.C,SOFT2*%
X25775000Y110175000D02*
X25775000Y107675000D01*
X25775000Y110175000D02*
X27275000Y111675000D01*
X25775000Y107675000D02*
X27275000Y106175000D01*
X27275000Y111675000D02*
X29775000Y111675000D01*
X27275000Y106175000D02*
X29775000Y106175000D01*
X31275000Y110175000D02*
X29775000Y111675000D01*
X31275000Y110175000D02*
X31275000Y107675000D01*
X31275000Y107675000D02*
X29775000Y106175000D01*
%TO.C,SOFT3*%
X36775000Y110175000D02*
X36775000Y107675000D01*
X36775000Y110175000D02*
X38275000Y111675000D01*
X36775000Y107675000D02*
X38275000Y106175000D01*
X38275000Y111675000D02*
X40775000Y111675000D01*
X38275000Y106175000D02*
X40775000Y106175000D01*
X42275000Y110175000D02*
X40775000Y111675000D01*
X42275000Y110175000D02*
X42275000Y107675000D01*
X42275000Y107675000D02*
X40775000Y106175000D01*
%TD*%
M02*
