%TF.GenerationSoftware,KiCad,Pcbnew,10.0.5*%
%TF.CreationDate,2026-08-25T09:58:44-07:00*%
%TF.ProjectId,calculator,63616c63-756c-4617-946f-722e6b696361,v1.0.0*%
%TF.SameCoordinates,Original*%
%TF.FileFunction,Copper,L1,Top*%
%TF.FilePolarity,Positive*%
%FSLAX46Y46*%
G04 Gerber Fmt 4.6, Leading zero omitted, Abs format (unit mm)*
G04 Created by KiCad (PCBNEW 10.0.5) date 2026-08-25 09:58:44*
%MOMM*%
%LPD*%
G01*
G04 APERTURE LIST*
%TA.AperFunction,SMDPad,CuDef*%
%ADD10R,1.800000X1.100000*%
%TD*%
%TA.AperFunction,SMDPad,CuDef*%
%ADD11R,0.300000X1.300000*%
%TD*%
%TA.AperFunction,ViaPad*%
%ADD12C,0.400000*%
%TD*%
%TA.AperFunction,Conductor*%
%ADD13C,0.150000*%
%TD*%
G04 APERTURE END LIST*
D10*
%TO.P,B27,1*%
%TO.N,P6*%
X47425000Y44775000D03*
%TO.P,B27,2*%
%TO.N,P9*%
X47425000Y41075000D03*
%TO.P,B27,NC*%
%TO.N,N/C*%
X53625000Y44775000D03*
X53625000Y41075000D03*
%TD*%
%TO.P,B28,1*%
%TO.N,P10*%
X47425000Y32775000D03*
%TO.P,B28,2*%
%TO.N,P9*%
X47425000Y29075000D03*
%TO.P,B28,NC*%
%TO.N,N/C*%
X53625000Y32775000D03*
X53625000Y29075000D03*
%TD*%
%TO.P,B29,1*%
%TO.N,P21*%
X47425000Y20775000D03*
%TO.P,B29,2*%
%TO.N,P9*%
X47425000Y17075000D03*
%TO.P,B29,NC*%
%TO.N,N/C*%
X53625000Y20775000D03*
X53625000Y17075000D03*
%TD*%
%TO.P,B25,1*%
%TO.N,P21*%
X36425000Y20775000D03*
%TO.P,B25,2*%
%TO.N,P8*%
X36425000Y17075000D03*
%TO.P,B25,NC*%
%TO.N,N/C*%
X42625000Y20775000D03*
X42625000Y17075000D03*
%TD*%
%TO.P,B6,1*%
%TO.N,P1*%
X36425000Y68775000D03*
%TO.P,B6,2*%
%TO.N,P9*%
X36425000Y65075000D03*
%TO.P,B6,NC*%
%TO.N,N/C*%
X42625000Y68775000D03*
X42625000Y65075000D03*
%TD*%
%TO.P,B7,1*%
%TO.N,P0*%
X36425000Y80775000D03*
%TO.P,B7,2*%
%TO.N,P9*%
X36425000Y77075000D03*
%TO.P,B7,NC*%
%TO.N,N/C*%
X42625000Y80775000D03*
X42625000Y77075000D03*
%TD*%
%TO.P,B8,1*%
%TO.N,P4*%
X36425000Y92775000D03*
%TO.P,B8,2*%
%TO.N,P9*%
X36425000Y89075000D03*
%TO.P,B8,NC*%
%TO.N,N/C*%
X42625000Y92775000D03*
X42625000Y89075000D03*
%TD*%
%TO.P,B15,1*%
%TO.N,P1*%
X69425000Y68775000D03*
%TO.P,B15,2*%
%TO.N,P16*%
X69425000Y65075000D03*
%TO.P,B15,NC*%
%TO.N,N/C*%
X75625000Y68775000D03*
X75625000Y65075000D03*
%TD*%
%TO.P,B16,1*%
%TO.N,P0*%
X69425000Y80775000D03*
%TO.P,B16,2*%
%TO.N,P16*%
X69425000Y77075000D03*
%TO.P,B16,NC*%
%TO.N,N/C*%
X75625000Y80775000D03*
X75625000Y77075000D03*
%TD*%
%TO.P,B31,1*%
%TO.N,P6*%
X58425000Y44775000D03*
%TO.P,B31,2*%
%TO.N,P15*%
X58425000Y41075000D03*
%TO.P,B31,NC*%
%TO.N,N/C*%
X64625000Y44775000D03*
X64625000Y41075000D03*
%TD*%
%TO.P,B32,1*%
%TO.N,P10*%
X58425000Y32775000D03*
%TO.P,B32,2*%
%TO.N,P15*%
X58425000Y29075000D03*
%TO.P,B32,NC*%
%TO.N,N/C*%
X64625000Y32775000D03*
X64625000Y29075000D03*
%TD*%
%TO.P,B37,1*%
%TO.N,P21*%
X69425000Y20775000D03*
%TO.P,B37,2*%
%TO.N,P14*%
X69425000Y17075000D03*
%TO.P,B37,NC*%
%TO.N,N/C*%
X75625000Y20775000D03*
X75625000Y17075000D03*
%TD*%
%TO.P,B20,1*%
%TO.N,P10*%
X14425000Y32775000D03*
%TO.P,B20,2*%
%TO.N,P7*%
X14425000Y29075000D03*
%TO.P,B20,NC*%
%TO.N,N/C*%
X20625000Y32775000D03*
X20625000Y29075000D03*
%TD*%
%TO.P,B11,1*%
%TO.N,P4*%
X47425000Y92775000D03*
%TO.P,B11,2*%
%TO.N,P15*%
X47425000Y89075000D03*
%TO.P,B11,NC*%
%TO.N,N/C*%
X53625000Y92775000D03*
X53625000Y89075000D03*
%TD*%
%TO.P,B14,1*%
%TO.N,P4*%
X58425000Y92775000D03*
%TO.P,B14,2*%
%TO.N,P14*%
X58425000Y89075000D03*
%TO.P,B14,NC*%
%TO.N,N/C*%
X64625000Y92775000D03*
X64625000Y89075000D03*
%TD*%
%TO.P,B12,1*%
%TO.N,P1*%
X58425000Y68775000D03*
%TO.P,B12,2*%
%TO.N,P14*%
X58425000Y65075000D03*
%TO.P,B12,NC*%
%TO.N,N/C*%
X64625000Y68775000D03*
X64625000Y65075000D03*
%TD*%
%TO.P,B10,1*%
%TO.N,P0*%
X47425000Y80775000D03*
%TO.P,B10,2*%
%TO.N,P15*%
X47425000Y77075000D03*
%TO.P,B10,NC*%
%TO.N,N/C*%
X53625000Y80775000D03*
X53625000Y77075000D03*
%TD*%
%TO.P,B13,1*%
%TO.N,P0*%
X58425000Y80775000D03*
%TO.P,B13,2*%
%TO.N,P14*%
X58425000Y77075000D03*
%TO.P,B13,NC*%
%TO.N,N/C*%
X64625000Y80775000D03*
X64625000Y77075000D03*
%TD*%
%TO.P,B26,1*%
%TO.N,P5*%
X47425000Y56775000D03*
%TO.P,B26,2*%
%TO.N,P9*%
X47425000Y53075000D03*
%TO.P,B26,NC*%
%TO.N,N/C*%
X53625000Y56775000D03*
X53625000Y53075000D03*
%TD*%
%TO.P,B9,1*%
%TO.N,P1*%
X47425000Y68775000D03*
%TO.P,B9,2*%
%TO.N,P15*%
X47425000Y65075000D03*
%TO.P,B9,NC*%
%TO.N,N/C*%
X53625000Y68775000D03*
X53625000Y65075000D03*
%TD*%
%TO.P,B18,1*%
%TO.N,P5*%
X14425000Y56775000D03*
%TO.P,B18,2*%
%TO.N,P7*%
X14425000Y53075000D03*
%TO.P,B18,NC*%
%TO.N,N/C*%
X20625000Y56775000D03*
X20625000Y53075000D03*
%TD*%
%TO.P,B17,1*%
%TO.N,P4*%
X69425000Y92775000D03*
%TO.P,B17,2*%
%TO.N,P16*%
X69425000Y89075000D03*
%TO.P,B17,NC*%
%TO.N,N/C*%
X75625000Y92775000D03*
X75625000Y89075000D03*
%TD*%
%TO.P,B19,1*%
%TO.N,P6*%
X14425000Y44775000D03*
%TO.P,B19,2*%
%TO.N,P7*%
X14425000Y41075000D03*
%TO.P,B19,NC*%
%TO.N,N/C*%
X20625000Y44775000D03*
X20625000Y41075000D03*
%TD*%
%TO.P,B35,1*%
%TO.N,P6*%
X69425000Y44775000D03*
%TO.P,B35,2*%
%TO.N,P14*%
X69425000Y41075000D03*
%TO.P,B35,NC*%
%TO.N,N/C*%
X75625000Y44775000D03*
X75625000Y41075000D03*
%TD*%
%TO.P,B36,1*%
%TO.N,P10*%
X69425000Y32775000D03*
%TO.P,B36,2*%
%TO.N,P14*%
X69425000Y29075000D03*
%TO.P,B36,NC*%
%TO.N,N/C*%
X75625000Y32775000D03*
X75625000Y29075000D03*
%TD*%
%TO.P,B1,1*%
%TO.N,P1*%
X19925000Y68775000D03*
%TO.P,B1,2*%
%TO.N,P7*%
X19925000Y65075000D03*
%TO.P,B1,NC*%
%TO.N,N/C*%
X26125000Y68775000D03*
X26125000Y65075000D03*
%TD*%
%TO.P,B2,1*%
%TO.N,P0*%
X14425000Y80775000D03*
%TO.P,B2,2*%
%TO.N,P7*%
X14425000Y77075000D03*
%TO.P,B2,NC*%
%TO.N,N/C*%
X20625000Y80775000D03*
X20625000Y77075000D03*
%TD*%
%TO.P,B3,1*%
%TO.N,P4*%
X14425000Y92775000D03*
%TO.P,B3,2*%
%TO.N,P7*%
X14425000Y89075000D03*
%TO.P,B3,NC*%
%TO.N,N/C*%
X20625000Y92775000D03*
X20625000Y89075000D03*
%TD*%
%TO.P,B4,1*%
%TO.N,P0*%
X25425000Y80775000D03*
%TO.P,B4,2*%
%TO.N,P8*%
X25425000Y77075000D03*
%TO.P,B4,NC*%
%TO.N,N/C*%
X31625000Y80775000D03*
X31625000Y77075000D03*
%TD*%
%TO.P,B5,1*%
%TO.N,P4*%
X25425000Y92775000D03*
%TO.P,B5,2*%
%TO.N,P8*%
X25425000Y89075000D03*
%TO.P,B5,NC*%
%TO.N,N/C*%
X31625000Y92775000D03*
X31625000Y89075000D03*
%TD*%
%TO.P,B21,1*%
%TO.N,P21*%
X14425000Y20775000D03*
%TO.P,B21,2*%
%TO.N,P7*%
X14425000Y17075000D03*
%TO.P,B21,NC*%
%TO.N,N/C*%
X20625000Y20775000D03*
X20625000Y17075000D03*
%TD*%
%TO.P,B22,1*%
%TO.N,P5*%
X36425000Y56775000D03*
%TO.P,B22,2*%
%TO.N,P8*%
X36425000Y53075000D03*
%TO.P,B22,NC*%
%TO.N,N/C*%
X42625000Y56775000D03*
X42625000Y53075000D03*
%TD*%
%TO.P,B23,1*%
%TO.N,P6*%
X36425000Y44775000D03*
%TO.P,B23,2*%
%TO.N,P8*%
X36425000Y41075000D03*
%TO.P,B23,NC*%
%TO.N,N/C*%
X42625000Y44775000D03*
X42625000Y41075000D03*
%TD*%
%TO.P,B24,1*%
%TO.N,P10*%
X36425000Y32775000D03*
%TO.P,B24,2*%
%TO.N,P8*%
X36425000Y29075000D03*
%TO.P,B24,NC*%
%TO.N,N/C*%
X42625000Y32775000D03*
X42625000Y29075000D03*
%TD*%
%TO.P,B33,1*%
%TO.N,P21*%
X58425000Y20775000D03*
%TO.P,B33,2*%
%TO.N,P15*%
X58425000Y17075000D03*
%TO.P,B33,NC*%
%TO.N,N/C*%
X64625000Y20775000D03*
X64625000Y17075000D03*
%TD*%
%TO.P,B34,1*%
%TO.N,P5*%
X69425000Y56775000D03*
%TO.P,B34,2*%
%TO.N,P14*%
X69425000Y53075000D03*
%TO.P,B34,NC*%
%TO.N,N/C*%
X75625000Y56775000D03*
X75625000Y53075000D03*
%TD*%
%TO.P,B30,1*%
%TO.N,P5*%
X58425000Y56775000D03*
%TO.P,B30,2*%
%TO.N,P15*%
X58425000Y53075000D03*
%TO.P,B30,NC*%
%TO.N,N/C*%
X64625000Y56775000D03*
X64625000Y53075000D03*
%TD*%
%TO.P,SOFT6,1*%
%TO.N,P20*%
X69425000Y104775000D03*
%TO.P,SOFT6,2*%
%TO.N,P16*%
X69425000Y101075000D03*
%TO.P,SOFT6,NC*%
%TO.N,N/C*%
X75625000Y104775000D03*
X75625000Y101075000D03*
%TD*%
%TO.P,SOFT2,1*%
%TO.N,P20*%
X25425000Y104775000D03*
%TO.P,SOFT2,2*%
%TO.N,P8*%
X25425000Y101075000D03*
%TO.P,SOFT2,NC*%
%TO.N,N/C*%
X31625000Y104775000D03*
X31625000Y101075000D03*
%TD*%
%TO.P,SOFT5,1*%
%TO.N,P20*%
X58425000Y104775000D03*
%TO.P,SOFT5,2*%
%TO.N,P14*%
X58425000Y101075000D03*
%TO.P,SOFT5,NC*%
%TO.N,N/C*%
X64625000Y104775000D03*
X64625000Y101075000D03*
%TD*%
%TO.P,SOFT3,1*%
%TO.N,P20*%
X36425000Y104775000D03*
%TO.P,SOFT3,2*%
%TO.N,P9*%
X36425000Y101075000D03*
%TO.P,SOFT3,NC*%
%TO.N,N/C*%
X42625000Y104775000D03*
X42625000Y101075000D03*
%TD*%
%TO.P,SOFT1,1*%
%TO.N,P20*%
X14425000Y104775000D03*
%TO.P,SOFT1,2*%
%TO.N,P7*%
X14425000Y101075000D03*
%TO.P,SOFT1,NC*%
%TO.N,N/C*%
X20625000Y104775000D03*
X20625000Y101075000D03*
%TD*%
D11*
%TO.P,J1,1*%
%TO.N,P21*%
X42750000Y127800000D03*
%TO.P,J1,2*%
%TO.N,P20*%
X43250000Y127800000D03*
%TO.P,J1,3*%
%TO.N,P19*%
X43750000Y127800000D03*
%TO.P,J1,4*%
%TO.N,P18*%
X44250000Y127800000D03*
%TO.P,J1,5*%
%TO.N,N/C*%
X44750000Y127800000D03*
%TO.P,J1,6*%
%TO.N,VCC*%
X45250000Y127800000D03*
%TO.P,J1,7*%
X45750000Y127800000D03*
%TO.P,J1,8*%
%TO.N,GND*%
X46250000Y127800000D03*
%TO.P,J1,9*%
X46750000Y127800000D03*
%TO.P,J1,10*%
X47250000Y127800000D03*
%TD*%
D10*
%TO.P,SOFT4,1*%
%TO.N,P20*%
X47425000Y104775000D03*
%TO.P,SOFT4,2*%
%TO.N,P15*%
X47425000Y101075000D03*
%TO.P,SOFT4,NC*%
%TO.N,N/C*%
X53625000Y104775000D03*
X53625000Y101075000D03*
%TD*%
D12*
%TO.N,P10*%
X48366800Y33780200D03*
X36944900Y34537800D03*
%TO.N,P7*%
X31059200Y139663700D03*
%TO.N,P1*%
X36425000Y69781400D03*
X48551700Y69796500D03*
%TO.N,P0*%
X37791400Y80775000D03*
X48400900Y82405000D03*
%TO.N,P4*%
X43061900Y106839600D03*
%TO.N,P8*%
X26551700Y102349600D03*
%TO.N,P21*%
X43588700Y125899600D03*
X44135200Y105495200D03*
%TO.N,P5*%
X36942700Y58469200D03*
X46065400Y57007900D03*
%TO.N,P6*%
X47285000Y46074300D03*
X37400900Y46504600D03*
%TO.N,P9*%
X33783800Y102353700D03*
%TO.N,P15*%
X46374200Y102727900D03*
%TO.N,P14*%
X56496900Y101710900D03*
%TO.N,P16*%
X33648300Y130068100D03*
%TO.N,P20*%
X43598000Y126690300D03*
%TO.N,P19*%
X43226900Y130045400D03*
%TO.N,P18*%
X44154600Y129093800D03*
%TO.N,VCC*%
X45750000Y129789000D03*
%TO.N,GND*%
X47110700Y128914200D03*
%TD*%
%TO.N,P10*%
D13*
X68298300Y32775000D02*
X67521600Y31998300D01*
X47425000Y32775000D02*
X48551700Y32775000D01*
X36425000Y34017900D02*
X36425000Y33567600D01*
X48551700Y33595300D02*
X56478000Y33595300D01*
X58425000Y32775000D02*
X57298300Y32775000D01*
X69425000Y32775000D02*
X68298300Y32775000D01*
X48551700Y32775000D02*
X48551700Y33595300D01*
X56478000Y33595300D02*
X57298300Y32775000D01*
X36944900Y34537800D02*
X36425000Y34017900D01*
X36425000Y33567600D02*
X16344300Y33567600D01*
X60328400Y31998300D02*
X59551700Y32775000D01*
X36425000Y33567600D02*
X36425000Y32775000D01*
X67521600Y31998300D02*
X60328400Y31998300D01*
X48366800Y33780200D02*
X48551700Y33595300D01*
X58425000Y32775000D02*
X59551700Y32775000D01*
X16344300Y33567600D02*
X15551700Y32775000D01*
X14425000Y32775000D02*
X15551700Y32775000D01*
%TO.N,P7*%
X13298300Y41076500D02*
X13299800Y41075000D01*
X14425000Y89075000D02*
X13299800Y89075000D01*
X14425000Y77075000D02*
X13861700Y77075000D01*
X13861700Y77075000D02*
X13298300Y77638400D01*
X31059200Y139663700D02*
X13298300Y121902800D01*
X13298300Y29076500D02*
X13299800Y29075000D01*
X18798300Y65075000D02*
X13861700Y70011600D01*
X13861700Y70011600D02*
X13861700Y77075000D01*
X13298300Y77638400D02*
X13298300Y89073500D01*
X14425000Y17075000D02*
X13298300Y17075000D01*
X14425000Y53075000D02*
X13299800Y53075000D01*
X13298300Y17075000D02*
X13298300Y29075000D01*
X14425000Y29075000D02*
X13299800Y29075000D01*
X13298300Y89076500D02*
X13299800Y89075000D01*
X13299800Y53075000D02*
X13298300Y53075000D01*
X13298300Y101075000D02*
X13298300Y89076500D01*
X13298300Y41075000D02*
X13298300Y29076500D01*
X14425000Y101075000D02*
X13298300Y101075000D01*
X13298300Y53075000D02*
X13298300Y41076500D01*
X13298300Y59575000D02*
X13298300Y53076500D01*
X19925000Y65075000D02*
X18798300Y65075000D01*
X18798300Y65075000D02*
X13298300Y59575000D01*
X13299800Y29075000D02*
X13298300Y29075000D01*
X13298300Y89073500D02*
X13299800Y89075000D01*
X13299800Y41075000D02*
X13298300Y41075000D01*
X14425000Y41075000D02*
X13299800Y41075000D01*
X13298300Y53076500D02*
X13299800Y53075000D01*
X13298300Y121902800D02*
X13298300Y101075000D01*
%TO.N,P1*%
X58425000Y68775000D02*
X58988400Y68775000D01*
X58425000Y68775000D02*
X57298300Y68775000D01*
X59765100Y67998300D02*
X67521600Y67998300D01*
X56521600Y67998300D02*
X57298300Y68775000D01*
X49328400Y67998300D02*
X56521600Y67998300D01*
X36425000Y68775000D02*
X36425000Y69781400D01*
X69425000Y68775000D02*
X68298300Y68775000D01*
X21051700Y68775000D02*
X21828400Y69551700D01*
X34521600Y69551700D02*
X35298300Y68775000D01*
X19925000Y68775000D02*
X21051700Y68775000D01*
X48551700Y68775000D02*
X49328400Y67998300D01*
X67521600Y67998300D02*
X68298300Y68775000D01*
X21828400Y69551700D02*
X34521600Y69551700D01*
X36425000Y68775000D02*
X35298300Y68775000D01*
X58988400Y68775000D02*
X59765100Y67998300D01*
X47425000Y68775000D02*
X48551700Y68775000D01*
X48551700Y68775000D02*
X48551700Y69796500D01*
%TO.N,P0*%
X48551700Y82254200D02*
X48551700Y81564100D01*
X25425000Y80775000D02*
X24298300Y80775000D01*
X58425000Y80775000D02*
X59551700Y80775000D01*
X48400900Y82405000D02*
X48551700Y82254200D01*
X60328400Y79998300D02*
X67521600Y79998300D01*
X48551700Y81564100D02*
X48551700Y80775000D01*
X24298300Y80775000D02*
X23521600Y79998300D01*
X37551700Y80775000D02*
X37791400Y80775000D01*
X34521600Y79998300D02*
X27328400Y79998300D01*
X35298300Y80775000D02*
X34521600Y79998300D01*
X47425000Y80775000D02*
X48551700Y80775000D01*
X25988400Y80775000D02*
X26551700Y80775000D01*
X36425000Y80775000D02*
X37551700Y80775000D01*
X67521600Y79998300D02*
X68298300Y80775000D01*
X27328400Y79998300D02*
X26551700Y80775000D01*
X56509200Y81564100D02*
X57298300Y80775000D01*
X48551700Y81564100D02*
X56509200Y81564100D01*
X16328400Y79998300D02*
X15551700Y80775000D01*
X23521600Y79998300D02*
X16328400Y79998300D01*
X69425000Y80775000D02*
X68298300Y80775000D01*
X25988400Y80775000D02*
X25425000Y80775000D01*
X14425000Y80775000D02*
X15551700Y80775000D01*
X59551700Y80775000D02*
X60328400Y79998300D01*
X58425000Y80775000D02*
X57298300Y80775000D01*
X36425000Y80775000D02*
X35298300Y80775000D01*
%TO.N,P4*%
X14425000Y92775000D02*
X15551700Y92775000D01*
X43535800Y106839500D02*
X43061900Y106839500D01*
X24298300Y92775000D02*
X23521600Y91998300D01*
X68298300Y92775000D02*
X67521600Y93551700D01*
X24298300Y101775600D02*
X24298300Y92775000D01*
X48551700Y92775000D02*
X48551700Y97837200D01*
X37551700Y102507200D02*
X37551700Y92775000D01*
X58425000Y92775000D02*
X59551700Y92775000D01*
X25403100Y102880400D02*
X24298300Y101775600D01*
X47425000Y92775000D02*
X48551700Y92775000D01*
X16328400Y91998300D02*
X15551700Y92775000D01*
X67521600Y93551700D02*
X60328400Y93551700D01*
X43061900Y106839500D02*
X43061900Y106839600D01*
X60328400Y100991700D02*
X59067800Y102252300D01*
X37551700Y102507200D02*
X41884000Y106839500D01*
X36425000Y92775000D02*
X37551700Y92775000D01*
X52966800Y102252300D02*
X50544900Y99830400D01*
X25425000Y92775000D02*
X24298300Y92775000D01*
X69425000Y92775000D02*
X68298300Y92775000D01*
X60328400Y93551700D02*
X59551700Y92775000D01*
X37551700Y102507200D02*
X37178500Y102880400D01*
X41884000Y106839500D02*
X43061900Y106839500D01*
X37178500Y102880400D02*
X25403100Y102880400D01*
X60328400Y93551700D02*
X60328400Y100991700D01*
X23521600Y91998300D02*
X16328400Y91998300D01*
X50544900Y99830400D02*
X43535800Y106839500D01*
X48551700Y97837200D02*
X50544900Y99830400D01*
X59067800Y102252300D02*
X52966800Y102252300D01*
%TO.N,P8*%
X37551700Y29073500D02*
X37550200Y29075000D01*
X36425000Y17075000D02*
X37551700Y17075000D01*
X26551700Y101075000D02*
X26551700Y102349600D01*
X27356200Y77879500D02*
X26551700Y77075000D01*
X25425000Y77075000D02*
X26551700Y77075000D01*
X37551700Y68131100D02*
X35235900Y65815300D01*
X37551700Y53075200D02*
X37551500Y53075000D01*
X37551700Y17075000D02*
X37551700Y29073500D01*
X37551700Y71125100D02*
X37551700Y68131100D01*
X36425000Y53075000D02*
X37438700Y53075000D01*
X26551700Y89075000D02*
X34040700Y81586000D01*
X35705800Y77879600D02*
X35298300Y77879600D01*
X35298300Y77879500D02*
X27356200Y77879500D01*
X37725500Y81586000D02*
X38373700Y80937800D01*
X37551700Y53075000D02*
X37956800Y52669900D01*
X37551700Y60642400D02*
X37551700Y53075200D01*
X37551500Y53075000D02*
X37551700Y53075000D01*
X36425000Y41075000D02*
X37551700Y41075000D01*
X36425000Y29075000D02*
X37550200Y29075000D01*
X35298300Y73378500D02*
X37551700Y71125100D01*
X34040700Y81586000D02*
X37725500Y81586000D01*
X25425000Y101075000D02*
X26551700Y101075000D01*
X37956800Y41480100D02*
X37551700Y41075000D01*
X38373700Y80937800D02*
X38373700Y80547500D01*
X37551700Y41075000D02*
X37551700Y29075000D01*
X25425000Y89075000D02*
X26551700Y89075000D01*
X38373700Y80547500D02*
X35705800Y77879600D01*
X35235900Y65815300D02*
X35235900Y62958200D01*
X37956800Y52669900D02*
X37956800Y41480100D01*
X35298300Y77879500D02*
X35298300Y73378500D01*
X37438700Y53075000D02*
X37551500Y53075000D01*
X35235900Y62958200D02*
X37551700Y60642400D01*
X35298300Y77879600D02*
X35298300Y77879500D01*
X26551700Y101075000D02*
X26551700Y89075000D01*
X37550200Y29075000D02*
X37551700Y29075000D01*
%TO.N,P21*%
X46298300Y50177700D02*
X46298300Y44131100D01*
X14425000Y20775000D02*
X15551700Y20775000D01*
X69425000Y20775000D02*
X68298300Y20775000D01*
X57396300Y16298300D02*
X60731900Y16298300D01*
X46298300Y44131100D02*
X48574700Y41854700D01*
X46298300Y33717200D02*
X46298300Y32131100D01*
X58425000Y20775000D02*
X57298300Y20775000D01*
X64431900Y19998300D02*
X67521600Y19998300D01*
X34521600Y17197900D02*
X35421200Y16298300D01*
X47425000Y20775000D02*
X48550200Y20775000D01*
X46298300Y32131100D02*
X48551700Y29877700D01*
X48574700Y41854700D02*
X48574700Y35993600D01*
X44669600Y57655700D02*
X48551700Y53773600D01*
X44135200Y105495200D02*
X44669600Y104960800D01*
X54870700Y18347400D02*
X55109000Y18585700D01*
X44669600Y104960800D02*
X44669600Y57655700D01*
X34521600Y19998300D02*
X34521600Y17197900D01*
X55109000Y18585700D02*
X57396300Y16298300D01*
X48574700Y35993600D02*
X46298300Y33717200D01*
X48551700Y20776500D02*
X48550200Y20775000D01*
X36425000Y20775000D02*
X35298300Y20775000D01*
X48444800Y16298300D02*
X50493900Y18347400D01*
X48551700Y29877700D02*
X48551700Y20776500D01*
X15551700Y20775000D02*
X16328400Y19998300D01*
X50493900Y18347400D02*
X48551700Y20289600D01*
X48550200Y20775000D02*
X48551700Y20775000D01*
X42750000Y127800000D02*
X42750000Y126738300D01*
X48551700Y52431100D02*
X46298300Y50177700D01*
X35421200Y16298300D02*
X48444800Y16298300D01*
X34521600Y19998300D02*
X35298300Y20775000D01*
X48551700Y20289600D02*
X48551700Y20775000D01*
X48551700Y53773600D02*
X48551700Y52431100D01*
X55109000Y18585700D02*
X57298300Y20775000D01*
X67521600Y19998300D02*
X68298300Y20775000D01*
X16328400Y19998300D02*
X34521600Y19998300D01*
X60731900Y16298300D02*
X64431900Y19998300D01*
X50493900Y18347400D02*
X54870700Y18347400D01*
X42750000Y126738300D02*
X43588700Y125899600D01*
%TO.N,P5*%
X56521600Y57551700D02*
X57298300Y56775000D01*
X36425000Y57951500D02*
X36425000Y56775000D01*
X14425000Y56775000D02*
X15551700Y56775000D01*
X67521600Y55998300D02*
X68298300Y56775000D01*
X34521600Y55998300D02*
X16328400Y55998300D01*
X36425000Y56775000D02*
X35298300Y56775000D01*
X69425000Y56775000D02*
X68298300Y56775000D01*
X60328400Y55998300D02*
X67521600Y55998300D01*
X49328400Y57551700D02*
X56521600Y57551700D01*
X47425000Y56775000D02*
X46298300Y56775000D01*
X36942700Y58469200D02*
X36425000Y57951500D01*
X35298300Y56775000D02*
X34521600Y55998300D01*
X58425000Y56775000D02*
X59551700Y56775000D01*
X16328400Y55998300D02*
X15551700Y56775000D01*
X59551700Y56775000D02*
X60328400Y55998300D01*
X58425000Y56775000D02*
X57298300Y56775000D01*
X46065400Y57007900D02*
X46298300Y56775000D01*
X48551700Y56775000D02*
X49328400Y57551700D01*
X47425000Y56775000D02*
X48551700Y56775000D01*
%TO.N,P6*%
X58425000Y44775000D02*
X57298300Y44775000D01*
X14425000Y44775000D02*
X15551700Y44775000D01*
X37551700Y46353800D02*
X37551700Y44775000D01*
X48551700Y44775000D02*
X49328400Y43998300D01*
X34521600Y45551700D02*
X35298300Y44775000D01*
X36425000Y44775000D02*
X35298300Y44775000D01*
X47285000Y46074300D02*
X47425000Y45934300D01*
X47425000Y45934300D02*
X47425000Y44775000D01*
X60328400Y43998300D02*
X59551700Y44775000D01*
X58425000Y44775000D02*
X59551700Y44775000D01*
X69425000Y44775000D02*
X68298300Y44775000D01*
X68298300Y44775000D02*
X67521600Y43998300D01*
X36425000Y44775000D02*
X37551700Y44775000D01*
X15551700Y44775000D02*
X16328400Y45551700D01*
X49328400Y43998300D02*
X56521600Y43998300D01*
X37400900Y46504600D02*
X37551700Y46353800D01*
X67521600Y43998300D02*
X60328400Y43998300D01*
X56521600Y43998300D02*
X57298300Y44775000D01*
X47425000Y44775000D02*
X48551700Y44775000D01*
X16328400Y45551700D02*
X34521600Y45551700D01*
%TO.N,P9*%
X36425000Y101075000D02*
X35298300Y101075000D01*
X45996600Y29940100D02*
X46861700Y29075000D01*
X35239400Y89133900D02*
X35298300Y89075000D01*
X37550200Y65075000D02*
X44222400Y58402800D01*
X35239400Y101016100D02*
X35121400Y101016100D01*
X36425000Y89075000D02*
X35298300Y89075000D01*
X37550200Y65075000D02*
X37853400Y65378200D01*
X37853400Y65378200D02*
X37853400Y76771800D01*
X35298300Y101075000D02*
X35239400Y101016100D01*
X46298300Y41075000D02*
X45996600Y40773300D01*
X45996600Y52773300D02*
X45996600Y41376700D01*
X36425000Y89075000D02*
X37551700Y89075000D01*
X38690400Y78215200D02*
X38690400Y87936300D01*
X35121400Y101016100D02*
X33783800Y102353700D01*
X47425000Y53075000D02*
X46298500Y53075000D01*
X46298300Y53075000D02*
X45996600Y52773300D01*
X46298300Y53075000D02*
X46298500Y53075000D01*
X35239400Y101016100D02*
X35239400Y89133900D01*
X37853400Y76771800D02*
X37550200Y77075000D01*
X46298300Y17075000D02*
X46298300Y29075000D01*
X45996600Y41376700D02*
X46298300Y41075000D01*
X44222400Y55150900D02*
X46298300Y53075000D01*
X37550200Y77075000D02*
X38690400Y78215200D01*
X36425000Y77075000D02*
X37475900Y77075000D01*
X47425000Y17075000D02*
X46298300Y17075000D01*
X36425000Y65075000D02*
X37550200Y65075000D01*
X37550200Y77075000D02*
X37475900Y77075000D01*
X47425000Y29075000D02*
X46861700Y29075000D01*
X38690400Y87936300D02*
X37551700Y89075000D01*
X46861700Y29075000D02*
X46298300Y29075000D01*
X47425000Y41075000D02*
X46298300Y41075000D01*
X44222400Y58402800D02*
X44222400Y55150900D01*
X45996600Y40773300D02*
X45996600Y29940100D01*
%TO.N,P15*%
X45996600Y65376700D02*
X46298300Y65075000D01*
X47425000Y77075000D02*
X46298500Y77075000D01*
X65985300Y39405900D02*
X70551700Y34839500D01*
X47425000Y65075000D02*
X48551700Y65075000D01*
X68298300Y49152000D02*
X70551700Y46898600D01*
X61220800Y39405900D02*
X59551700Y41075000D01*
X45952100Y77421400D02*
X45952100Y88728800D01*
X70551700Y56131100D02*
X68298300Y53877700D01*
X70551700Y34839500D02*
X70551700Y32131100D01*
X59550200Y29075000D02*
X59551700Y29073500D01*
X48551700Y65075000D02*
X55261000Y58365700D01*
X59551700Y29073500D02*
X59551700Y17075000D01*
X45952100Y88728800D02*
X46298300Y89075000D01*
X46298500Y77075000D02*
X45952100Y77421400D01*
X68298300Y53877700D02*
X68298300Y49152000D01*
X58425000Y17075000D02*
X59551700Y17075000D01*
X58425000Y53075000D02*
X59551700Y53075000D01*
X58425000Y29075000D02*
X59475900Y29075000D01*
X59550200Y29075000D02*
X59551700Y29075000D01*
X45996600Y76773100D02*
X45996600Y65376700D01*
X47425000Y89075000D02*
X46298300Y89075000D01*
X70551700Y43972300D02*
X65985300Y39405900D01*
X70551700Y46898600D02*
X70551700Y43972300D01*
X46298500Y77075000D02*
X45996600Y76773100D01*
X55261000Y58365700D02*
X69627600Y58365700D01*
X46374200Y101075000D02*
X46374200Y102727900D01*
X65985300Y39405900D02*
X61220800Y39405900D01*
X69996500Y31575900D02*
X62052600Y31575900D01*
X47425000Y101075000D02*
X46374200Y101075000D01*
X59475900Y29075000D02*
X59550200Y29075000D01*
X70551700Y32131100D02*
X69996500Y31575900D01*
X47425000Y65075000D02*
X46298300Y65075000D01*
X62052600Y31575900D02*
X59551700Y29075000D01*
X58425000Y41075000D02*
X59551700Y41075000D01*
X60354400Y53877700D02*
X59551700Y53075000D01*
X70551700Y57441600D02*
X70551700Y56131100D01*
X68298300Y53877700D02*
X60354400Y53877700D01*
X46298300Y100999100D02*
X46298300Y89075000D01*
X46374200Y101075000D02*
X46298300Y100999100D01*
X69627600Y58365700D02*
X70551700Y57441600D01*
%TO.N,P14*%
X58425000Y89075000D02*
X57617900Y89075000D01*
X69425000Y53075000D02*
X70551700Y53075000D01*
X56521600Y65851700D02*
X57298300Y65075000D01*
X58425000Y65075000D02*
X59475900Y65075000D01*
X59550200Y65075000D02*
X59551700Y65075000D01*
X58425000Y101075000D02*
X57298300Y101075000D01*
X48487600Y77884400D02*
X46298300Y80073700D01*
X70853400Y57566700D02*
X69735100Y58685000D01*
X70853400Y53376700D02*
X70853400Y57566700D01*
X65941700Y58685000D02*
X59551700Y65075000D01*
X46298300Y80073700D02*
X46298300Y81427100D01*
X70551700Y53075000D02*
X70853400Y53376700D01*
X69425000Y41075000D02*
X70551700Y41075000D01*
X70853400Y52773300D02*
X70551700Y53075000D01*
X69425000Y29075000D02*
X70550200Y29075000D01*
X70551700Y29075000D02*
X70550200Y29075000D01*
X46298300Y81427100D02*
X48341300Y83470100D01*
X48601200Y77884400D02*
X48601200Y72015500D01*
X58425000Y65075000D02*
X57298300Y65075000D01*
X52013000Y83470100D02*
X57617900Y89075000D01*
X70853400Y29376700D02*
X70853400Y40773300D01*
X46298300Y69712600D02*
X46298300Y68131100D01*
X69425000Y17075000D02*
X70551700Y17075000D01*
X70551700Y17075000D02*
X70551700Y29075000D01*
X48601200Y72015500D02*
X46298300Y69712600D01*
X48601200Y77884400D02*
X48487600Y77884400D01*
X56662400Y101710900D02*
X57298300Y101075000D01*
X48341300Y83470100D02*
X52013000Y83470100D01*
X46298300Y68131100D02*
X48577700Y65851700D01*
X57298300Y101075000D02*
X57298300Y89075000D01*
X70551700Y29075000D02*
X70853400Y29376700D01*
X59475900Y65075000D02*
X59550200Y65075000D01*
X70853400Y40773300D02*
X70551700Y41075000D01*
X58425000Y77075000D02*
X57861700Y77075000D01*
X57052300Y77884400D02*
X48601200Y77884400D01*
X48577700Y65851700D02*
X56521600Y65851700D01*
X70551700Y41075000D02*
X70853400Y41376700D01*
X57617900Y89075000D02*
X57298300Y89075000D01*
X69735100Y58685000D02*
X65941700Y58685000D01*
X56496900Y101710900D02*
X56662400Y101710900D01*
X70853400Y41376700D02*
X70853400Y52773300D01*
X57861700Y77075000D02*
X57052300Y77884400D01*
%TO.N,P16*%
X69425000Y77075000D02*
X70551700Y77075000D01*
X70551700Y106257600D02*
X46218000Y130591300D01*
X70426700Y89075000D02*
X70551700Y88950000D01*
X70551700Y101075000D02*
X70551700Y89200000D01*
X34171500Y130591300D02*
X33648300Y130068100D01*
X69425000Y89075000D02*
X70426700Y89075000D01*
X70551700Y89200000D02*
X70426700Y89075000D01*
X70551700Y101075000D02*
X70551700Y106257600D01*
X69425000Y101075000D02*
X70551700Y101075000D01*
X69425000Y65075000D02*
X70551700Y65075000D01*
X46218000Y130591300D02*
X34171500Y130591300D01*
X70551700Y88950000D02*
X70551700Y77075000D01*
X70551700Y77075000D02*
X70551700Y65075000D01*
%TO.N,P20*%
X69425000Y104775000D02*
X68298300Y104775000D01*
X35298300Y104775000D02*
X34521600Y103998300D01*
X27328400Y103998300D02*
X26551700Y104775000D01*
X57298300Y104775000D02*
X56521600Y103998300D01*
X40180700Y107404000D02*
X37551700Y104775000D01*
X25425000Y104775000D02*
X24298300Y104775000D01*
X44188700Y107404000D02*
X40180700Y107404000D01*
X23521600Y103998300D02*
X16328400Y103998300D01*
X43250000Y127800000D02*
X43250000Y126923300D01*
X14425000Y104775000D02*
X15551700Y104775000D01*
X43598000Y126690300D02*
X44188700Y126099600D01*
X46298300Y104775000D02*
X46298300Y105294400D01*
X24298300Y104775000D02*
X23521600Y103998300D01*
X46298300Y105294400D02*
X44188700Y107404000D01*
X67521600Y103998300D02*
X60328400Y103998300D01*
X34521600Y103998300D02*
X27328400Y103998300D01*
X68298300Y104775000D02*
X67521600Y103998300D01*
X58028400Y104775000D02*
X58425000Y104775000D01*
X36425000Y104775000D02*
X37551700Y104775000D01*
X43250000Y126923300D02*
X43365000Y126923300D01*
X58425000Y104775000D02*
X59551700Y104775000D01*
X16328400Y103998300D02*
X15551700Y104775000D01*
X47425000Y104775000D02*
X46298300Y104775000D01*
X56521600Y103998300D02*
X49328400Y103998300D01*
X25425000Y104775000D02*
X26551700Y104775000D01*
X43365000Y126923300D02*
X43598000Y126690300D01*
X49328400Y103998300D02*
X48551700Y104775000D01*
X47425000Y104775000D02*
X48551700Y104775000D01*
X36425000Y104775000D02*
X35298300Y104775000D01*
X44188700Y126099600D02*
X44188700Y107404000D01*
X58028400Y104775000D02*
X57298300Y104775000D01*
X60328400Y103998300D02*
X59551700Y104775000D01*
%TO.N,P19*%
X43750000Y127800000D02*
X43750000Y128676700D01*
X43750000Y128676700D02*
X43226900Y129199800D01*
X43226900Y129199800D02*
X43226900Y130045400D01*
%TO.N,P18*%
X44250000Y127800000D02*
X44250000Y128998400D01*
X44250000Y128998400D02*
X44154600Y129093800D01*
%TO.N,VCC*%
X45250000Y127800000D02*
X45250000Y128676700D01*
X45750000Y127800000D02*
X45750000Y128676700D01*
X45750000Y129789000D02*
X45750000Y128676700D01*
X45750000Y128676700D02*
X45250000Y128676700D01*
%TO.N,GND*%
X46750000Y127800000D02*
X46750000Y128238400D01*
X46750000Y128459300D02*
X46532600Y128676700D01*
X46889300Y128816000D02*
X47110700Y128816000D01*
X46750000Y128676700D02*
X46889300Y128816000D01*
X47110700Y128816000D02*
X47110700Y128914200D01*
X46532600Y128676700D02*
X46250000Y128676700D01*
X47110700Y128816000D02*
X47250000Y128676700D01*
X46750000Y128459300D02*
X46750000Y128676700D01*
X47250000Y127800000D02*
X47250000Y128676700D01*
X46750000Y128238400D02*
X46750000Y128459300D01*
X46250000Y127800000D02*
X46250000Y128676700D01*
%TD*%
%TA.AperFunction,Conductor*%
%TO.N,GND*%
G36*
X48105203Y127878456D02*
G01*
X48111681Y127872424D01*
X69931881Y106052224D01*
X69965366Y105990901D01*
X69968200Y105964543D01*
X69968200Y105957500D01*
X69948515Y105890461D01*
X69895711Y105844706D01*
X69844200Y105833500D01*
X68476362Y105833500D01*
X68476345Y105833499D01*
X68445270Y105830157D01*
X68415799Y105826989D01*
X68415796Y105826988D01*
X68415795Y105826988D01*
X68355564Y105804522D01*
X68278796Y105775889D01*
X68161739Y105688261D01*
X68074111Y105571204D01*
X68023011Y105434204D01*
X68023011Y105434202D01*
X68016500Y105373654D01*
X68016500Y105357660D01*
X67996815Y105290621D01*
X67954501Y105250274D01*
X67940023Y105241916D01*
X67940020Y105241913D01*
X67316225Y104618119D01*
X67254902Y104584634D01*
X67228544Y104581800D01*
X66157500Y104581800D01*
X66090461Y104601485D01*
X66044706Y104654289D01*
X66033500Y104705800D01*
X66033500Y105373637D01*
X66033499Y105373654D01*
X66030591Y105400692D01*
X66026989Y105434201D01*
X65975889Y105571204D01*
X65888261Y105688261D01*
X65771204Y105775889D01*
X65634201Y105826989D01*
X65602623Y105830383D01*
X65573654Y105833499D01*
X65573638Y105833500D01*
X63676362Y105833500D01*
X63676345Y105833499D01*
X63645270Y105830157D01*
X63615799Y105826989D01*
X63615796Y105826988D01*
X63615795Y105826988D01*
X63555564Y105804522D01*
X63478796Y105775889D01*
X63361739Y105688261D01*
X63274111Y105571204D01*
X63223011Y105434204D01*
X63223011Y105434202D01*
X63216500Y105373654D01*
X63216500Y104705800D01*
X63196815Y104638761D01*
X63144011Y104593006D01*
X63092500Y104581800D01*
X60621455Y104581800D01*
X60554416Y104601485D01*
X60533774Y104618119D01*
X60380187Y104771706D01*
X59909978Y105241916D01*
X59895503Y105250272D01*
X59847287Y105300836D01*
X59833500Y105357661D01*
X59833500Y105373637D01*
X59833499Y105373654D01*
X59830591Y105400692D01*
X59826989Y105434201D01*
X59775889Y105571204D01*
X59688261Y105688261D01*
X59571204Y105775889D01*
X59434201Y105826989D01*
X59402623Y105830383D01*
X59373654Y105833499D01*
X59373638Y105833500D01*
X57476362Y105833500D01*
X57476345Y105833499D01*
X57445270Y105830157D01*
X57415799Y105826989D01*
X57415796Y105826988D01*
X57415795Y105826988D01*
X57355564Y105804522D01*
X57278796Y105775889D01*
X57161739Y105688261D01*
X57074111Y105571204D01*
X57023011Y105434204D01*
X57023011Y105434202D01*
X57016500Y105373654D01*
X57016500Y105357660D01*
X56996815Y105290621D01*
X56954501Y105250274D01*
X56940023Y105241916D01*
X56940020Y105241913D01*
X56316225Y104618119D01*
X56254902Y104584634D01*
X56228544Y104581800D01*
X55157500Y104581800D01*
X55090461Y104601485D01*
X55044706Y104654289D01*
X55033500Y104705800D01*
X55033500Y105373637D01*
X55033499Y105373654D01*
X55030591Y105400692D01*
X55026989Y105434201D01*
X54975889Y105571204D01*
X54888261Y105688261D01*
X54771204Y105775889D01*
X54634201Y105826989D01*
X54602623Y105830383D01*
X54573654Y105833499D01*
X54573638Y105833500D01*
X52676362Y105833500D01*
X52676345Y105833499D01*
X52645270Y105830157D01*
X52615799Y105826989D01*
X52615796Y105826988D01*
X52615795Y105826988D01*
X52555564Y105804522D01*
X52478796Y105775889D01*
X52361739Y105688261D01*
X52274111Y105571204D01*
X52223011Y105434204D01*
X52223011Y105434202D01*
X52216500Y105373654D01*
X52216500Y104705800D01*
X52196815Y104638761D01*
X52144011Y104593006D01*
X52092500Y104581800D01*
X49621455Y104581800D01*
X49554416Y104601485D01*
X49533774Y104618119D01*
X49380187Y104771706D01*
X48909978Y105241916D01*
X48895503Y105250272D01*
X48847287Y105300836D01*
X48833500Y105357661D01*
X48833500Y105373637D01*
X48833499Y105373654D01*
X48830591Y105400692D01*
X48826989Y105434201D01*
X48775889Y105571204D01*
X48688261Y105688261D01*
X48571204Y105775889D01*
X48434201Y105826989D01*
X48402623Y105830383D01*
X48373654Y105833499D01*
X48373638Y105833500D01*
X46635756Y105833500D01*
X46568717Y105853185D01*
X46548075Y105869819D01*
X44808519Y107609375D01*
X44775034Y107670698D01*
X44772200Y107697056D01*
X44772200Y126176416D01*
X44772200Y126176419D01*
X44732435Y126324823D01*
X44694025Y126391350D01*
X44694024Y126391353D01*
X44656989Y126455501D01*
X44640516Y126523401D01*
X44663369Y126589428D01*
X44718290Y126632618D01*
X44764376Y126641500D01*
X44948644Y126641500D01*
X44986748Y126645596D01*
X45013252Y126645596D01*
X45051355Y126641500D01*
X45051362Y126641500D01*
X45448644Y126641500D01*
X45486748Y126645596D01*
X45513252Y126645596D01*
X45551355Y126641500D01*
X45551362Y126641500D01*
X45948654Y126641500D01*
X46016912Y126648840D01*
X46016975Y126648249D01*
X46049509Y126650285D01*
X46052156Y126650000D01*
X46447835Y126650000D01*
X46486748Y126654183D01*
X46513252Y126654183D01*
X46552164Y126650000D01*
X46947835Y126650000D01*
X46986748Y126654183D01*
X47013252Y126654183D01*
X47052164Y126650000D01*
X47447844Y126650000D01*
X47507372Y126656401D01*
X47507379Y126656403D01*
X47642086Y126706645D01*
X47642093Y126706649D01*
X47757187Y126792809D01*
X47757190Y126792812D01*
X47843350Y126907906D01*
X47843354Y126907913D01*
X47866879Y126970988D01*
X47286319Y127551549D01*
X47252834Y127612872D01*
X47250000Y127639230D01*
X47250000Y127712769D01*
X47269685Y127779808D01*
X47322489Y127825563D01*
X47391647Y127835507D01*
X47455203Y127806482D01*
X47461681Y127800450D01*
X47899999Y127362131D01*
X47900000Y127362132D01*
X47900000Y127784743D01*
X47919685Y127851782D01*
X47972489Y127897537D01*
X48041647Y127907481D01*
X48105203Y127878456D01*
G37*
%TD.AperFunction*%
%TD*%
M02*
