M48
; DRILL file KiCad 10.0.5 date 2026-08-25T09:58:44
; FORMAT={-:-/ absolute / metric / decimal}
; #@! TF.CreationDate,2026-08-25T09:58:44-07:00
; #@! TF.GenerationSoftware,Kicad,Pcbnew,10.0.5
; #@! TF.FileFunction,MixedPlating,1,2
FMAT,2
METRIC
; #@! TA.AperFunction,Plated,PTH,ViaDrill
T1C0.200
%
G90
G05
T1
X26.552Y102.35
X31.059Y139.664
X33.648Y130.068
X33.784Y102.354
X36.425Y69.781
X36.943Y58.469
X36.945Y34.538
X37.401Y46.505
X37.791Y80.775
X43.062Y106.84
X43.227Y130.045
X43.589Y125.9
X43.598Y126.69
X44.135Y105.495
X44.155Y129.094
X45.75Y129.789
X46.065Y57.008
X46.374Y102.728
X47.111Y128.914
X47.285Y46.074
X48.367Y33.78
X48.401Y82.405
X48.552Y69.796
X56.497Y101.711
M30
