%TF.GenerationSoftware,KiCad,Pcbnew,10.0.5*%
%TF.CreationDate,2026-08-25T09:58:44-07:00*%
%TF.ProjectId,calculator,63616c63-756c-4617-946f-722e6b696361,v1.0.0*%
%TF.SameCoordinates,Original*%
%TF.FileFunction,Legend,Top*%
%TF.FilePolarity,Positive*%
%FSLAX46Y46*%
G04 Gerber Fmt 4.6, Leading zero omitted, Abs format (unit mm)*
G04 Created by KiCad (PCBNEW 10.0.5) date 2026-08-25 09:58:44*
%MOMM*%
%LPD*%
G01*
G04 APERTURE LIST*
%ADD10C,0.300000*%
%ADD11C,0.800000*%
%ADD12C,0.158750*%
%ADD13C,0.150000*%
G04 APERTURE END LIST*
D10*
X37857143Y150750242D02*
X37785714Y150821671D01*
X37785714Y150821671D02*
X37642857Y151035957D01*
X37642857Y151035957D02*
X37571429Y151178814D01*
X37571429Y151178814D02*
X37500000Y151393100D01*
X37500000Y151393100D02*
X37428571Y151750242D01*
X37428571Y151750242D02*
X37428571Y152035957D01*
X37428571Y152035957D02*
X37500000Y152393100D01*
X37500000Y152393100D02*
X37571429Y152607385D01*
X37571429Y152607385D02*
X37642857Y152750242D01*
X37642857Y152750242D02*
X37785714Y152964528D01*
X37785714Y152964528D02*
X37857143Y153035957D01*
X38428571Y151321671D02*
X38428571Y152821671D01*
X38428571Y152821671D02*
X39000000Y152821671D01*
X39000000Y152821671D02*
X39142857Y152750242D01*
X39142857Y152750242D02*
X39214286Y152678814D01*
X39214286Y152678814D02*
X39285714Y152535957D01*
X39285714Y152535957D02*
X39285714Y152321671D01*
X39285714Y152321671D02*
X39214286Y152178814D01*
X39214286Y152178814D02*
X39142857Y152107385D01*
X39142857Y152107385D02*
X39000000Y152035957D01*
X39000000Y152035957D02*
X38428571Y152035957D01*
X39928571Y151321671D02*
X39928571Y152321671D01*
X39928571Y152821671D02*
X39857143Y152750242D01*
X39857143Y152750242D02*
X39928571Y152678814D01*
X39928571Y152678814D02*
X40000000Y152750242D01*
X40000000Y152750242D02*
X39928571Y152821671D01*
X39928571Y152821671D02*
X39928571Y152678814D01*
X41285715Y151393100D02*
X41142857Y151321671D01*
X41142857Y151321671D02*
X40857143Y151321671D01*
X40857143Y151321671D02*
X40714286Y151393100D01*
X40714286Y151393100D02*
X40642857Y151464528D01*
X40642857Y151464528D02*
X40571429Y151607385D01*
X40571429Y151607385D02*
X40571429Y152035957D01*
X40571429Y152035957D02*
X40642857Y152178814D01*
X40642857Y152178814D02*
X40714286Y152250242D01*
X40714286Y152250242D02*
X40857143Y152321671D01*
X40857143Y152321671D02*
X41142857Y152321671D01*
X41142857Y152321671D02*
X41285715Y152250242D01*
X42142857Y151321671D02*
X42000000Y151393100D01*
X42000000Y151393100D02*
X41928571Y151464528D01*
X41928571Y151464528D02*
X41857143Y151607385D01*
X41857143Y151607385D02*
X41857143Y152035957D01*
X41857143Y152035957D02*
X41928571Y152178814D01*
X41928571Y152178814D02*
X42000000Y152250242D01*
X42000000Y152250242D02*
X42142857Y152321671D01*
X42142857Y152321671D02*
X42357143Y152321671D01*
X42357143Y152321671D02*
X42500000Y152250242D01*
X42500000Y152250242D02*
X42571429Y152178814D01*
X42571429Y152178814D02*
X42642857Y152035957D01*
X42642857Y152035957D02*
X42642857Y151607385D01*
X42642857Y151607385D02*
X42571429Y151464528D01*
X42571429Y151464528D02*
X42500000Y151393100D01*
X42500000Y151393100D02*
X42357143Y151321671D01*
X42357143Y151321671D02*
X42142857Y151321671D01*
X44428571Y151321671D02*
X44428571Y152821671D01*
X44428571Y152821671D02*
X44928571Y151750242D01*
X44928571Y151750242D02*
X45428571Y152821671D01*
X45428571Y152821671D02*
X45428571Y151321671D01*
X46357143Y151321671D02*
X46214286Y151393100D01*
X46214286Y151393100D02*
X46142857Y151464528D01*
X46142857Y151464528D02*
X46071429Y151607385D01*
X46071429Y151607385D02*
X46071429Y152035957D01*
X46071429Y152035957D02*
X46142857Y152178814D01*
X46142857Y152178814D02*
X46214286Y152250242D01*
X46214286Y152250242D02*
X46357143Y152321671D01*
X46357143Y152321671D02*
X46571429Y152321671D01*
X46571429Y152321671D02*
X46714286Y152250242D01*
X46714286Y152250242D02*
X46785715Y152178814D01*
X46785715Y152178814D02*
X46857143Y152035957D01*
X46857143Y152035957D02*
X46857143Y151607385D01*
X46857143Y151607385D02*
X46785715Y151464528D01*
X46785715Y151464528D02*
X46714286Y151393100D01*
X46714286Y151393100D02*
X46571429Y151321671D01*
X46571429Y151321671D02*
X46357143Y151321671D01*
X48142858Y151321671D02*
X48142858Y152821671D01*
X48142858Y151393100D02*
X48000000Y151321671D01*
X48000000Y151321671D02*
X47714286Y151321671D01*
X47714286Y151321671D02*
X47571429Y151393100D01*
X47571429Y151393100D02*
X47500000Y151464528D01*
X47500000Y151464528D02*
X47428572Y151607385D01*
X47428572Y151607385D02*
X47428572Y152035957D01*
X47428572Y152035957D02*
X47500000Y152178814D01*
X47500000Y152178814D02*
X47571429Y152250242D01*
X47571429Y152250242D02*
X47714286Y152321671D01*
X47714286Y152321671D02*
X48000000Y152321671D01*
X48000000Y152321671D02*
X48142858Y152250242D01*
X49500001Y152321671D02*
X49500001Y151321671D01*
X48857143Y152321671D02*
X48857143Y151535957D01*
X48857143Y151535957D02*
X48928572Y151393100D01*
X48928572Y151393100D02*
X49071429Y151321671D01*
X49071429Y151321671D02*
X49285715Y151321671D01*
X49285715Y151321671D02*
X49428572Y151393100D01*
X49428572Y151393100D02*
X49500001Y151464528D01*
X50428572Y151321671D02*
X50285715Y151393100D01*
X50285715Y151393100D02*
X50214286Y151535957D01*
X50214286Y151535957D02*
X50214286Y152821671D01*
X51571429Y151393100D02*
X51428572Y151321671D01*
X51428572Y151321671D02*
X51142858Y151321671D01*
X51142858Y151321671D02*
X51000000Y151393100D01*
X51000000Y151393100D02*
X50928572Y151535957D01*
X50928572Y151535957D02*
X50928572Y152107385D01*
X50928572Y152107385D02*
X51000000Y152250242D01*
X51000000Y152250242D02*
X51142858Y152321671D01*
X51142858Y152321671D02*
X51428572Y152321671D01*
X51428572Y152321671D02*
X51571429Y152250242D01*
X51571429Y152250242D02*
X51642858Y152107385D01*
X51642858Y152107385D02*
X51642858Y151964528D01*
X51642858Y151964528D02*
X50928572Y151821671D01*
X52142857Y150750242D02*
X52214286Y150821671D01*
X52214286Y150821671D02*
X52357143Y151035957D01*
X52357143Y151035957D02*
X52428572Y151178814D01*
X52428572Y151178814D02*
X52500000Y151393100D01*
X52500000Y151393100D02*
X52571429Y151750242D01*
X52571429Y151750242D02*
X52571429Y152035957D01*
X52571429Y152035957D02*
X52500000Y152393100D01*
X52500000Y152393100D02*
X52428572Y152607385D01*
X52428572Y152607385D02*
X52357143Y152750242D01*
X52357143Y152750242D02*
X52214286Y152964528D01*
X52214286Y152964528D02*
X52142857Y153035957D01*
X37500000Y134464528D02*
X37428572Y134393100D01*
X37428572Y134393100D02*
X37214286Y134321671D01*
X37214286Y134321671D02*
X37071429Y134321671D01*
X37071429Y134321671D02*
X36857143Y134393100D01*
X36857143Y134393100D02*
X36714286Y134535957D01*
X36714286Y134535957D02*
X36642857Y134678814D01*
X36642857Y134678814D02*
X36571429Y134964528D01*
X36571429Y134964528D02*
X36571429Y135178814D01*
X36571429Y135178814D02*
X36642857Y135464528D01*
X36642857Y135464528D02*
X36714286Y135607385D01*
X36714286Y135607385D02*
X36857143Y135750242D01*
X36857143Y135750242D02*
X37071429Y135821671D01*
X37071429Y135821671D02*
X37214286Y135821671D01*
X37214286Y135821671D02*
X37428572Y135750242D01*
X37428572Y135750242D02*
X37500000Y135678814D01*
X38357143Y134321671D02*
X38214286Y134393100D01*
X38214286Y134393100D02*
X38142857Y134464528D01*
X38142857Y134464528D02*
X38071429Y134607385D01*
X38071429Y134607385D02*
X38071429Y135035957D01*
X38071429Y135035957D02*
X38142857Y135178814D01*
X38142857Y135178814D02*
X38214286Y135250242D01*
X38214286Y135250242D02*
X38357143Y135321671D01*
X38357143Y135321671D02*
X38571429Y135321671D01*
X38571429Y135321671D02*
X38714286Y135250242D01*
X38714286Y135250242D02*
X38785715Y135178814D01*
X38785715Y135178814D02*
X38857143Y135035957D01*
X38857143Y135035957D02*
X38857143Y134607385D01*
X38857143Y134607385D02*
X38785715Y134464528D01*
X38785715Y134464528D02*
X38714286Y134393100D01*
X38714286Y134393100D02*
X38571429Y134321671D01*
X38571429Y134321671D02*
X38357143Y134321671D01*
X39500000Y135321671D02*
X39500000Y133821671D01*
X39500000Y135250242D02*
X39642858Y135321671D01*
X39642858Y135321671D02*
X39928572Y135321671D01*
X39928572Y135321671D02*
X40071429Y135250242D01*
X40071429Y135250242D02*
X40142858Y135178814D01*
X40142858Y135178814D02*
X40214286Y135035957D01*
X40214286Y135035957D02*
X40214286Y134607385D01*
X40214286Y134607385D02*
X40142858Y134464528D01*
X40142858Y134464528D02*
X40071429Y134393100D01*
X40071429Y134393100D02*
X39928572Y134321671D01*
X39928572Y134321671D02*
X39642858Y134321671D01*
X39642858Y134321671D02*
X39500000Y134393100D01*
X40714286Y135321671D02*
X41071429Y134321671D01*
X41428572Y135321671D02*
X41071429Y134321671D01*
X41071429Y134321671D02*
X40928572Y133964528D01*
X40928572Y133964528D02*
X40857143Y133893100D01*
X40857143Y133893100D02*
X40714286Y133821671D01*
X42000000Y134321671D02*
X42000000Y135321671D01*
X42000000Y135035957D02*
X42071429Y135178814D01*
X42071429Y135178814D02*
X42142858Y135250242D01*
X42142858Y135250242D02*
X42285715Y135321671D01*
X42285715Y135321671D02*
X42428572Y135321671D01*
X42928571Y134321671D02*
X42928571Y135321671D01*
X42928571Y135821671D02*
X42857143Y135750242D01*
X42857143Y135750242D02*
X42928571Y135678814D01*
X42928571Y135678814D02*
X43000000Y135750242D01*
X43000000Y135750242D02*
X42928571Y135821671D01*
X42928571Y135821671D02*
X42928571Y135678814D01*
X44285715Y135321671D02*
X44285715Y134107385D01*
X44285715Y134107385D02*
X44214286Y133964528D01*
X44214286Y133964528D02*
X44142857Y133893100D01*
X44142857Y133893100D02*
X44000000Y133821671D01*
X44000000Y133821671D02*
X43785715Y133821671D01*
X43785715Y133821671D02*
X43642857Y133893100D01*
X44285715Y134393100D02*
X44142857Y134321671D01*
X44142857Y134321671D02*
X43857143Y134321671D01*
X43857143Y134321671D02*
X43714286Y134393100D01*
X43714286Y134393100D02*
X43642857Y134464528D01*
X43642857Y134464528D02*
X43571429Y134607385D01*
X43571429Y134607385D02*
X43571429Y135035957D01*
X43571429Y135035957D02*
X43642857Y135178814D01*
X43642857Y135178814D02*
X43714286Y135250242D01*
X43714286Y135250242D02*
X43857143Y135321671D01*
X43857143Y135321671D02*
X44142857Y135321671D01*
X44142857Y135321671D02*
X44285715Y135250242D01*
X45000000Y134321671D02*
X45000000Y135821671D01*
X45642858Y134321671D02*
X45642858Y135107385D01*
X45642858Y135107385D02*
X45571429Y135250242D01*
X45571429Y135250242D02*
X45428572Y135321671D01*
X45428572Y135321671D02*
X45214286Y135321671D01*
X45214286Y135321671D02*
X45071429Y135250242D01*
X45071429Y135250242D02*
X45000000Y135178814D01*
X46142858Y135321671D02*
X46714286Y135321671D01*
X46357143Y135821671D02*
X46357143Y134535957D01*
X46357143Y134535957D02*
X46428572Y134393100D01*
X46428572Y134393100D02*
X46571429Y134321671D01*
X46571429Y134321671D02*
X46714286Y134321671D01*
X48285715Y135678814D02*
X48357143Y135750242D01*
X48357143Y135750242D02*
X48500001Y135821671D01*
X48500001Y135821671D02*
X48857143Y135821671D01*
X48857143Y135821671D02*
X49000001Y135750242D01*
X49000001Y135750242D02*
X49071429Y135678814D01*
X49071429Y135678814D02*
X49142858Y135535957D01*
X49142858Y135535957D02*
X49142858Y135393100D01*
X49142858Y135393100D02*
X49071429Y135178814D01*
X49071429Y135178814D02*
X48214286Y134321671D01*
X48214286Y134321671D02*
X49142858Y134321671D01*
X50071429Y135821671D02*
X50214286Y135821671D01*
X50214286Y135821671D02*
X50357143Y135750242D01*
X50357143Y135750242D02*
X50428572Y135678814D01*
X50428572Y135678814D02*
X50500000Y135535957D01*
X50500000Y135535957D02*
X50571429Y135250242D01*
X50571429Y135250242D02*
X50571429Y134893100D01*
X50571429Y134893100D02*
X50500000Y134607385D01*
X50500000Y134607385D02*
X50428572Y134464528D01*
X50428572Y134464528D02*
X50357143Y134393100D01*
X50357143Y134393100D02*
X50214286Y134321671D01*
X50214286Y134321671D02*
X50071429Y134321671D01*
X50071429Y134321671D02*
X49928572Y134393100D01*
X49928572Y134393100D02*
X49857143Y134464528D01*
X49857143Y134464528D02*
X49785714Y134607385D01*
X49785714Y134607385D02*
X49714286Y134893100D01*
X49714286Y134893100D02*
X49714286Y135250242D01*
X49714286Y135250242D02*
X49785714Y135535957D01*
X49785714Y135535957D02*
X49857143Y135678814D01*
X49857143Y135678814D02*
X49928572Y135750242D01*
X49928572Y135750242D02*
X50071429Y135821671D01*
X51142857Y135678814D02*
X51214285Y135750242D01*
X51214285Y135750242D02*
X51357143Y135821671D01*
X51357143Y135821671D02*
X51714285Y135821671D01*
X51714285Y135821671D02*
X51857143Y135750242D01*
X51857143Y135750242D02*
X51928571Y135678814D01*
X51928571Y135678814D02*
X52000000Y135535957D01*
X52000000Y135535957D02*
X52000000Y135393100D01*
X52000000Y135393100D02*
X51928571Y135178814D01*
X51928571Y135178814D02*
X51071428Y134321671D01*
X51071428Y134321671D02*
X52000000Y134321671D01*
X53285714Y135821671D02*
X52999999Y135821671D01*
X52999999Y135821671D02*
X52857142Y135750242D01*
X52857142Y135750242D02*
X52785714Y135678814D01*
X52785714Y135678814D02*
X52642856Y135464528D01*
X52642856Y135464528D02*
X52571428Y135178814D01*
X52571428Y135178814D02*
X52571428Y134607385D01*
X52571428Y134607385D02*
X52642856Y134464528D01*
X52642856Y134464528D02*
X52714285Y134393100D01*
X52714285Y134393100D02*
X52857142Y134321671D01*
X52857142Y134321671D02*
X53142856Y134321671D01*
X53142856Y134321671D02*
X53285714Y134393100D01*
X53285714Y134393100D02*
X53357142Y134464528D01*
X53357142Y134464528D02*
X53428571Y134607385D01*
X53428571Y134607385D02*
X53428571Y134964528D01*
X53428571Y134964528D02*
X53357142Y135107385D01*
X53357142Y135107385D02*
X53285714Y135178814D01*
X53285714Y135178814D02*
X53142856Y135250242D01*
X53142856Y135250242D02*
X52857142Y135250242D01*
X52857142Y135250242D02*
X52714285Y135178814D01*
X52714285Y135178814D02*
X52642856Y135107385D01*
X52642856Y135107385D02*
X52571428Y134964528D01*
D11*
X37857143Y143572076D02*
X37666667Y143381600D01*
X37666667Y143381600D02*
X37095238Y143191123D01*
X37095238Y143191123D02*
X36714286Y143191123D01*
X36714286Y143191123D02*
X36142857Y143381600D01*
X36142857Y143381600D02*
X35761905Y143762552D01*
X35761905Y143762552D02*
X35571428Y144143504D01*
X35571428Y144143504D02*
X35380952Y144905409D01*
X35380952Y144905409D02*
X35380952Y145476838D01*
X35380952Y145476838D02*
X35571428Y146238742D01*
X35571428Y146238742D02*
X35761905Y146619695D01*
X35761905Y146619695D02*
X36142857Y147000647D01*
X36142857Y147000647D02*
X36714286Y147191123D01*
X36714286Y147191123D02*
X37095238Y147191123D01*
X37095238Y147191123D02*
X37666667Y147000647D01*
X37666667Y147000647D02*
X37857143Y146810171D01*
X41285714Y143191123D02*
X41285714Y145286361D01*
X41285714Y145286361D02*
X41095238Y145667314D01*
X41095238Y145667314D02*
X40714286Y145857790D01*
X40714286Y145857790D02*
X39952381Y145857790D01*
X39952381Y145857790D02*
X39571428Y145667314D01*
X41285714Y143381600D02*
X40904762Y143191123D01*
X40904762Y143191123D02*
X39952381Y143191123D01*
X39952381Y143191123D02*
X39571428Y143381600D01*
X39571428Y143381600D02*
X39380952Y143762552D01*
X39380952Y143762552D02*
X39380952Y144143504D01*
X39380952Y144143504D02*
X39571428Y144524457D01*
X39571428Y144524457D02*
X39952381Y144714933D01*
X39952381Y144714933D02*
X40904762Y144714933D01*
X40904762Y144714933D02*
X41285714Y144905409D01*
X43761905Y143191123D02*
X43380953Y143381600D01*
X43380953Y143381600D02*
X43190476Y143762552D01*
X43190476Y143762552D02*
X43190476Y147191123D01*
X47000000Y143381600D02*
X46619048Y143191123D01*
X46619048Y143191123D02*
X45857143Y143191123D01*
X45857143Y143191123D02*
X45476191Y143381600D01*
X45476191Y143381600D02*
X45285714Y143572076D01*
X45285714Y143572076D02*
X45095238Y143953028D01*
X45095238Y143953028D02*
X45095238Y145095885D01*
X45095238Y145095885D02*
X45285714Y145476838D01*
X45285714Y145476838D02*
X45476191Y145667314D01*
X45476191Y145667314D02*
X45857143Y145857790D01*
X45857143Y145857790D02*
X46619048Y145857790D01*
X46619048Y145857790D02*
X47000000Y145667314D01*
X48333333Y147191123D02*
X50809524Y147191123D01*
X50809524Y147191123D02*
X49476190Y145667314D01*
X49476190Y145667314D02*
X50047619Y145667314D01*
X50047619Y145667314D02*
X50428571Y145476838D01*
X50428571Y145476838D02*
X50619047Y145286361D01*
X50619047Y145286361D02*
X50809524Y144905409D01*
X50809524Y144905409D02*
X50809524Y143953028D01*
X50809524Y143953028D02*
X50619047Y143572076D01*
X50619047Y143572076D02*
X50428571Y143381600D01*
X50428571Y143381600D02*
X50047619Y143191123D01*
X50047619Y143191123D02*
X48904762Y143191123D01*
X48904762Y143191123D02*
X48523809Y143381600D01*
X48523809Y143381600D02*
X48333333Y143572076D01*
X52333333Y146810171D02*
X52523809Y147000647D01*
X52523809Y147000647D02*
X52904762Y147191123D01*
X52904762Y147191123D02*
X53857143Y147191123D01*
X53857143Y147191123D02*
X54238095Y147000647D01*
X54238095Y147000647D02*
X54428571Y146810171D01*
X54428571Y146810171D02*
X54619048Y146429219D01*
X54619048Y146429219D02*
X54619048Y146048266D01*
X54619048Y146048266D02*
X54428571Y145476838D01*
X54428571Y145476838D02*
X52142857Y143191123D01*
X52142857Y143191123D02*
X54619048Y143191123D01*
D12*
X44576667Y130690728D02*
X44576667Y129783585D01*
X44576667Y129783585D02*
X44516190Y129602157D01*
X44516190Y129602157D02*
X44395238Y129481205D01*
X44395238Y129481205D02*
X44213809Y129420728D01*
X44213809Y129420728D02*
X44092857Y129420728D01*
X45846667Y129420728D02*
X45120952Y129420728D01*
X45483809Y129420728D02*
X45483809Y130690728D01*
X45483809Y130690728D02*
X45362857Y130509300D01*
X45362857Y130509300D02*
X45241905Y130388347D01*
X45241905Y130388347D02*
X45120952Y130327871D01*
%TO.C,B27*%
D13*
X47775000Y44175000D02*
X47775000Y41675000D01*
X47775000Y44175000D02*
X49275000Y45675000D01*
X47775000Y41675000D02*
X49275000Y40175000D01*
X49275000Y45675000D02*
X51775000Y45675000D01*
X49275000Y40175000D02*
X51775000Y40175000D01*
X53275000Y44175000D02*
X51775000Y45675000D01*
X53275000Y44175000D02*
X53275000Y41675000D01*
X53275000Y41675000D02*
X51775000Y40175000D01*
%TO.C,B28*%
X47775000Y32175000D02*
X47775000Y29675000D01*
X47775000Y32175000D02*
X49275000Y33675000D01*
X47775000Y29675000D02*
X49275000Y28175000D01*
X49275000Y33675000D02*
X51775000Y33675000D01*
X49275000Y28175000D02*
X51775000Y28175000D01*
X53275000Y32175000D02*
X51775000Y33675000D01*
X53275000Y32175000D02*
X53275000Y29675000D01*
X53275000Y29675000D02*
X51775000Y28175000D01*
%TO.C,B29*%
X47775000Y20175000D02*
X47775000Y17675000D01*
X47775000Y20175000D02*
X49275000Y21675000D01*
X47775000Y17675000D02*
X49275000Y16175000D01*
X49275000Y21675000D02*
X51775000Y21675000D01*
X49275000Y16175000D02*
X51775000Y16175000D01*
X53275000Y20175000D02*
X51775000Y21675000D01*
X53275000Y20175000D02*
X53275000Y17675000D01*
X53275000Y17675000D02*
X51775000Y16175000D01*
%TO.C,B25*%
X36775000Y20175000D02*
X36775000Y17675000D01*
X36775000Y20175000D02*
X38275000Y21675000D01*
X36775000Y17675000D02*
X38275000Y16175000D01*
X38275000Y21675000D02*
X40775000Y21675000D01*
X38275000Y16175000D02*
X40775000Y16175000D01*
X42275000Y20175000D02*
X40775000Y21675000D01*
X42275000Y20175000D02*
X42275000Y17675000D01*
X42275000Y17675000D02*
X40775000Y16175000D01*
%TO.C,B6*%
X36775000Y68175000D02*
X36775000Y65675000D01*
X36775000Y68175000D02*
X38275000Y69675000D01*
X36775000Y65675000D02*
X38275000Y64175000D01*
X38275000Y69675000D02*
X40775000Y69675000D01*
X38275000Y64175000D02*
X40775000Y64175000D01*
X42275000Y68175000D02*
X40775000Y69675000D01*
X42275000Y68175000D02*
X42275000Y65675000D01*
X42275000Y65675000D02*
X40775000Y64175000D01*
%TO.C,B7*%
X36775000Y80175000D02*
X36775000Y77675000D01*
X36775000Y80175000D02*
X38275000Y81675000D01*
X36775000Y77675000D02*
X38275000Y76175000D01*
X38275000Y81675000D02*
X40775000Y81675000D01*
X38275000Y76175000D02*
X40775000Y76175000D01*
X42275000Y80175000D02*
X40775000Y81675000D01*
X42275000Y80175000D02*
X42275000Y77675000D01*
X42275000Y77675000D02*
X40775000Y76175000D01*
%TO.C,B8*%
X36775000Y92175000D02*
X36775000Y89675000D01*
X36775000Y92175000D02*
X38275000Y93675000D01*
X36775000Y89675000D02*
X38275000Y88175000D01*
X38275000Y93675000D02*
X40775000Y93675000D01*
X38275000Y88175000D02*
X40775000Y88175000D01*
X42275000Y92175000D02*
X40775000Y93675000D01*
X42275000Y92175000D02*
X42275000Y89675000D01*
X42275000Y89675000D02*
X40775000Y88175000D01*
%TO.C,B15*%
X69775000Y68175000D02*
X69775000Y65675000D01*
X69775000Y68175000D02*
X71275000Y69675000D01*
X69775000Y65675000D02*
X71275000Y64175000D01*
X71275000Y69675000D02*
X73775000Y69675000D01*
X71275000Y64175000D02*
X73775000Y64175000D01*
X75275000Y68175000D02*
X73775000Y69675000D01*
X75275000Y68175000D02*
X75275000Y65675000D01*
X75275000Y65675000D02*
X73775000Y64175000D01*
%TO.C,B16*%
X69775000Y80175000D02*
X69775000Y77675000D01*
X69775000Y80175000D02*
X71275000Y81675000D01*
X69775000Y77675000D02*
X71275000Y76175000D01*
X71275000Y81675000D02*
X73775000Y81675000D01*
X71275000Y76175000D02*
X73775000Y76175000D01*
X75275000Y80175000D02*
X73775000Y81675000D01*
X75275000Y80175000D02*
X75275000Y77675000D01*
X75275000Y77675000D02*
X73775000Y76175000D01*
%TO.C,B31*%
X58775000Y44175000D02*
X58775000Y41675000D01*
X58775000Y44175000D02*
X60275000Y45675000D01*
X58775000Y41675000D02*
X60275000Y40175000D01*
X60275000Y45675000D02*
X62775000Y45675000D01*
X60275000Y40175000D02*
X62775000Y40175000D01*
X64275000Y44175000D02*
X62775000Y45675000D01*
X64275000Y44175000D02*
X64275000Y41675000D01*
X64275000Y41675000D02*
X62775000Y40175000D01*
%TO.C,B32*%
X58775000Y32175000D02*
X58775000Y29675000D01*
X58775000Y32175000D02*
X60275000Y33675000D01*
X58775000Y29675000D02*
X60275000Y28175000D01*
X60275000Y33675000D02*
X62775000Y33675000D01*
X60275000Y28175000D02*
X62775000Y28175000D01*
X64275000Y32175000D02*
X62775000Y33675000D01*
X64275000Y32175000D02*
X64275000Y29675000D01*
X64275000Y29675000D02*
X62775000Y28175000D01*
%TO.C,B37*%
X69775000Y20175000D02*
X69775000Y17675000D01*
X69775000Y20175000D02*
X71275000Y21675000D01*
X69775000Y17675000D02*
X71275000Y16175000D01*
X71275000Y21675000D02*
X73775000Y21675000D01*
X71275000Y16175000D02*
X73775000Y16175000D01*
X75275000Y20175000D02*
X73775000Y21675000D01*
X75275000Y20175000D02*
X75275000Y17675000D01*
X75275000Y17675000D02*
X73775000Y16175000D01*
%TO.C,B20*%
X14775000Y32175000D02*
X14775000Y29675000D01*
X14775000Y32175000D02*
X16275000Y33675000D01*
X14775000Y29675000D02*
X16275000Y28175000D01*
X16275000Y33675000D02*
X18775000Y33675000D01*
X16275000Y28175000D02*
X18775000Y28175000D01*
X20275000Y32175000D02*
X18775000Y33675000D01*
X20275000Y32175000D02*
X20275000Y29675000D01*
X20275000Y29675000D02*
X18775000Y28175000D01*
%TO.C,B11*%
X47775000Y92175000D02*
X47775000Y89675000D01*
X47775000Y92175000D02*
X49275000Y93675000D01*
X47775000Y89675000D02*
X49275000Y88175000D01*
X49275000Y93675000D02*
X51775000Y93675000D01*
X49275000Y88175000D02*
X51775000Y88175000D01*
X53275000Y92175000D02*
X51775000Y93675000D01*
X53275000Y92175000D02*
X53275000Y89675000D01*
X53275000Y89675000D02*
X51775000Y88175000D01*
%TO.C,B14*%
X58775000Y92175000D02*
X58775000Y89675000D01*
X58775000Y92175000D02*
X60275000Y93675000D01*
X58775000Y89675000D02*
X60275000Y88175000D01*
X60275000Y93675000D02*
X62775000Y93675000D01*
X60275000Y88175000D02*
X62775000Y88175000D01*
X64275000Y92175000D02*
X62775000Y93675000D01*
X64275000Y92175000D02*
X64275000Y89675000D01*
X64275000Y89675000D02*
X62775000Y88175000D01*
%TO.C,B12*%
X58775000Y68175000D02*
X58775000Y65675000D01*
X58775000Y68175000D02*
X60275000Y69675000D01*
X58775000Y65675000D02*
X60275000Y64175000D01*
X60275000Y69675000D02*
X62775000Y69675000D01*
X60275000Y64175000D02*
X62775000Y64175000D01*
X64275000Y68175000D02*
X62775000Y69675000D01*
X64275000Y68175000D02*
X64275000Y65675000D01*
X64275000Y65675000D02*
X62775000Y64175000D01*
%TO.C,B10*%
X47775000Y80175000D02*
X47775000Y77675000D01*
X47775000Y80175000D02*
X49275000Y81675000D01*
X47775000Y77675000D02*
X49275000Y76175000D01*
X49275000Y81675000D02*
X51775000Y81675000D01*
X49275000Y76175000D02*
X51775000Y76175000D01*
X53275000Y80175000D02*
X51775000Y81675000D01*
X53275000Y80175000D02*
X53275000Y77675000D01*
X53275000Y77675000D02*
X51775000Y76175000D01*
%TO.C,B13*%
X58775000Y80175000D02*
X58775000Y77675000D01*
X58775000Y80175000D02*
X60275000Y81675000D01*
X58775000Y77675000D02*
X60275000Y76175000D01*
X60275000Y81675000D02*
X62775000Y81675000D01*
X60275000Y76175000D02*
X62775000Y76175000D01*
X64275000Y80175000D02*
X62775000Y81675000D01*
X64275000Y80175000D02*
X64275000Y77675000D01*
X64275000Y77675000D02*
X62775000Y76175000D01*
%TO.C,B26*%
X47775000Y56175000D02*
X47775000Y53675000D01*
X47775000Y56175000D02*
X49275000Y57675000D01*
X47775000Y53675000D02*
X49275000Y52175000D01*
X49275000Y57675000D02*
X51775000Y57675000D01*
X49275000Y52175000D02*
X51775000Y52175000D01*
X53275000Y56175000D02*
X51775000Y57675000D01*
X53275000Y56175000D02*
X53275000Y53675000D01*
X53275000Y53675000D02*
X51775000Y52175000D01*
%TO.C,B9*%
X47775000Y68175000D02*
X47775000Y65675000D01*
X47775000Y68175000D02*
X49275000Y69675000D01*
X47775000Y65675000D02*
X49275000Y64175000D01*
X49275000Y69675000D02*
X51775000Y69675000D01*
X49275000Y64175000D02*
X51775000Y64175000D01*
X53275000Y68175000D02*
X51775000Y69675000D01*
X53275000Y68175000D02*
X53275000Y65675000D01*
X53275000Y65675000D02*
X51775000Y64175000D01*
%TO.C,B18*%
X14775000Y56175000D02*
X14775000Y53675000D01*
X14775000Y56175000D02*
X16275000Y57675000D01*
X14775000Y53675000D02*
X16275000Y52175000D01*
X16275000Y57675000D02*
X18775000Y57675000D01*
X16275000Y52175000D02*
X18775000Y52175000D01*
X20275000Y56175000D02*
X18775000Y57675000D01*
X20275000Y56175000D02*
X20275000Y53675000D01*
X20275000Y53675000D02*
X18775000Y52175000D01*
%TO.C,B17*%
X69775000Y92175000D02*
X69775000Y89675000D01*
X69775000Y92175000D02*
X71275000Y93675000D01*
X69775000Y89675000D02*
X71275000Y88175000D01*
X71275000Y93675000D02*
X73775000Y93675000D01*
X71275000Y88175000D02*
X73775000Y88175000D01*
X75275000Y92175000D02*
X73775000Y93675000D01*
X75275000Y92175000D02*
X75275000Y89675000D01*
X75275000Y89675000D02*
X73775000Y88175000D01*
%TO.C,B19*%
X14775000Y44175000D02*
X14775000Y41675000D01*
X14775000Y44175000D02*
X16275000Y45675000D01*
X14775000Y41675000D02*
X16275000Y40175000D01*
X16275000Y45675000D02*
X18775000Y45675000D01*
X16275000Y40175000D02*
X18775000Y40175000D01*
X20275000Y44175000D02*
X18775000Y45675000D01*
X20275000Y44175000D02*
X20275000Y41675000D01*
X20275000Y41675000D02*
X18775000Y40175000D01*
%TO.C,B35*%
X69775000Y44175000D02*
X69775000Y41675000D01*
X69775000Y44175000D02*
X71275000Y45675000D01*
X69775000Y41675000D02*
X71275000Y40175000D01*
X71275000Y45675000D02*
X73775000Y45675000D01*
X71275000Y40175000D02*
X73775000Y40175000D01*
X75275000Y44175000D02*
X73775000Y45675000D01*
X75275000Y44175000D02*
X75275000Y41675000D01*
X75275000Y41675000D02*
X73775000Y40175000D01*
%TO.C,B36*%
X69775000Y32175000D02*
X69775000Y29675000D01*
X69775000Y32175000D02*
X71275000Y33675000D01*
X69775000Y29675000D02*
X71275000Y28175000D01*
X71275000Y33675000D02*
X73775000Y33675000D01*
X71275000Y28175000D02*
X73775000Y28175000D01*
X75275000Y32175000D02*
X73775000Y33675000D01*
X75275000Y32175000D02*
X75275000Y29675000D01*
X75275000Y29675000D02*
X73775000Y28175000D01*
%TO.C,B1*%
X20275000Y68175000D02*
X20275000Y65675000D01*
X20275000Y68175000D02*
X21775000Y69675000D01*
X20275000Y65675000D02*
X21775000Y64175000D01*
X21775000Y69675000D02*
X24275000Y69675000D01*
X21775000Y64175000D02*
X24275000Y64175000D01*
X25775000Y68175000D02*
X24275000Y69675000D01*
X25775000Y68175000D02*
X25775000Y65675000D01*
X25775000Y65675000D02*
X24275000Y64175000D01*
%TO.C,B2*%
X14775000Y80175000D02*
X14775000Y77675000D01*
X14775000Y80175000D02*
X16275000Y81675000D01*
X14775000Y77675000D02*
X16275000Y76175000D01*
X16275000Y81675000D02*
X18775000Y81675000D01*
X16275000Y76175000D02*
X18775000Y76175000D01*
X20275000Y80175000D02*
X18775000Y81675000D01*
X20275000Y80175000D02*
X20275000Y77675000D01*
X20275000Y77675000D02*
X18775000Y76175000D01*
%TO.C,B3*%
X14775000Y92175000D02*
X14775000Y89675000D01*
X14775000Y92175000D02*
X16275000Y93675000D01*
X14775000Y89675000D02*
X16275000Y88175000D01*
X16275000Y93675000D02*
X18775000Y93675000D01*
X16275000Y88175000D02*
X18775000Y88175000D01*
X20275000Y92175000D02*
X18775000Y93675000D01*
X20275000Y92175000D02*
X20275000Y89675000D01*
X20275000Y89675000D02*
X18775000Y88175000D01*
%TO.C,B4*%
X25775000Y80175000D02*
X25775000Y77675000D01*
X25775000Y80175000D02*
X27275000Y81675000D01*
X25775000Y77675000D02*
X27275000Y76175000D01*
X27275000Y81675000D02*
X29775000Y81675000D01*
X27275000Y76175000D02*
X29775000Y76175000D01*
X31275000Y80175000D02*
X29775000Y81675000D01*
X31275000Y80175000D02*
X31275000Y77675000D01*
X31275000Y77675000D02*
X29775000Y76175000D01*
%TO.C,B5*%
X25775000Y92175000D02*
X25775000Y89675000D01*
X25775000Y92175000D02*
X27275000Y93675000D01*
X25775000Y89675000D02*
X27275000Y88175000D01*
X27275000Y93675000D02*
X29775000Y93675000D01*
X27275000Y88175000D02*
X29775000Y88175000D01*
X31275000Y92175000D02*
X29775000Y93675000D01*
X31275000Y92175000D02*
X31275000Y89675000D01*
X31275000Y89675000D02*
X29775000Y88175000D01*
%TO.C,B21*%
X14775000Y20175000D02*
X14775000Y17675000D01*
X14775000Y20175000D02*
X16275000Y21675000D01*
X14775000Y17675000D02*
X16275000Y16175000D01*
X16275000Y21675000D02*
X18775000Y21675000D01*
X16275000Y16175000D02*
X18775000Y16175000D01*
X20275000Y20175000D02*
X18775000Y21675000D01*
X20275000Y20175000D02*
X20275000Y17675000D01*
X20275000Y17675000D02*
X18775000Y16175000D01*
%TO.C,B22*%
X36775000Y56175000D02*
X36775000Y53675000D01*
X36775000Y56175000D02*
X38275000Y57675000D01*
X36775000Y53675000D02*
X38275000Y52175000D01*
X38275000Y57675000D02*
X40775000Y57675000D01*
X38275000Y52175000D02*
X40775000Y52175000D01*
X42275000Y56175000D02*
X40775000Y57675000D01*
X42275000Y56175000D02*
X42275000Y53675000D01*
X42275000Y53675000D02*
X40775000Y52175000D01*
%TO.C,B23*%
X36775000Y44175000D02*
X36775000Y41675000D01*
X36775000Y44175000D02*
X38275000Y45675000D01*
X36775000Y41675000D02*
X38275000Y40175000D01*
X38275000Y45675000D02*
X40775000Y45675000D01*
X38275000Y40175000D02*
X40775000Y40175000D01*
X42275000Y44175000D02*
X40775000Y45675000D01*
X42275000Y44175000D02*
X42275000Y41675000D01*
X42275000Y41675000D02*
X40775000Y40175000D01*
%TO.C,B24*%
X36775000Y32175000D02*
X36775000Y29675000D01*
X36775000Y32175000D02*
X38275000Y33675000D01*
X36775000Y29675000D02*
X38275000Y28175000D01*
X38275000Y33675000D02*
X40775000Y33675000D01*
X38275000Y28175000D02*
X40775000Y28175000D01*
X42275000Y32175000D02*
X40775000Y33675000D01*
X42275000Y32175000D02*
X42275000Y29675000D01*
X42275000Y29675000D02*
X40775000Y28175000D01*
%TO.C,B33*%
X58775000Y20175000D02*
X58775000Y17675000D01*
X58775000Y20175000D02*
X60275000Y21675000D01*
X58775000Y17675000D02*
X60275000Y16175000D01*
X60275000Y21675000D02*
X62775000Y21675000D01*
X60275000Y16175000D02*
X62775000Y16175000D01*
X64275000Y20175000D02*
X62775000Y21675000D01*
X64275000Y20175000D02*
X64275000Y17675000D01*
X64275000Y17675000D02*
X62775000Y16175000D01*
%TO.C,B34*%
X69775000Y56175000D02*
X69775000Y53675000D01*
X69775000Y56175000D02*
X71275000Y57675000D01*
X69775000Y53675000D02*
X71275000Y52175000D01*
X71275000Y57675000D02*
X73775000Y57675000D01*
X71275000Y52175000D02*
X73775000Y52175000D01*
X75275000Y56175000D02*
X73775000Y57675000D01*
X75275000Y56175000D02*
X75275000Y53675000D01*
X75275000Y53675000D02*
X73775000Y52175000D01*
%TO.C,B30*%
X58775000Y56175000D02*
X58775000Y53675000D01*
X58775000Y56175000D02*
X60275000Y57675000D01*
X58775000Y53675000D02*
X60275000Y52175000D01*
X60275000Y57675000D02*
X62775000Y57675000D01*
X60275000Y52175000D02*
X62775000Y52175000D01*
X64275000Y56175000D02*
X62775000Y57675000D01*
X64275000Y56175000D02*
X64275000Y53675000D01*
X64275000Y53675000D02*
X62775000Y52175000D01*
%TO.C,SOFT6*%
X69775000Y104175000D02*
X69775000Y101675000D01*
X69775000Y104175000D02*
X71275000Y105675000D01*
X69775000Y101675000D02*
X71275000Y100175000D01*
X71275000Y105675000D02*
X73775000Y105675000D01*
X71275000Y100175000D02*
X73775000Y100175000D01*
X75275000Y104175000D02*
X73775000Y105675000D01*
X75275000Y104175000D02*
X75275000Y101675000D01*
X75275000Y101675000D02*
X73775000Y100175000D01*
%TO.C,SOFT2*%
X25775000Y104175000D02*
X25775000Y101675000D01*
X25775000Y104175000D02*
X27275000Y105675000D01*
X25775000Y101675000D02*
X27275000Y100175000D01*
X27275000Y105675000D02*
X29775000Y105675000D01*
X27275000Y100175000D02*
X29775000Y100175000D01*
X31275000Y104175000D02*
X29775000Y105675000D01*
X31275000Y104175000D02*
X31275000Y101675000D01*
X31275000Y101675000D02*
X29775000Y100175000D01*
%TO.C,SOFT5*%
X58775000Y104175000D02*
X58775000Y101675000D01*
X58775000Y104175000D02*
X60275000Y105675000D01*
X58775000Y101675000D02*
X60275000Y100175000D01*
X60275000Y105675000D02*
X62775000Y105675000D01*
X60275000Y100175000D02*
X62775000Y100175000D01*
X64275000Y104175000D02*
X62775000Y105675000D01*
X64275000Y104175000D02*
X64275000Y101675000D01*
X64275000Y101675000D02*
X62775000Y100175000D01*
%TO.C,SOFT3*%
X36775000Y104175000D02*
X36775000Y101675000D01*
X36775000Y104175000D02*
X38275000Y105675000D01*
X36775000Y101675000D02*
X38275000Y100175000D01*
X38275000Y105675000D02*
X40775000Y105675000D01*
X38275000Y100175000D02*
X40775000Y100175000D01*
X42275000Y104175000D02*
X40775000Y105675000D01*
X42275000Y104175000D02*
X42275000Y101675000D01*
X42275000Y101675000D02*
X40775000Y100175000D01*
%TO.C,SOFT1*%
X14775000Y104175000D02*
X14775000Y101675000D01*
X14775000Y104175000D02*
X16275000Y105675000D01*
X14775000Y101675000D02*
X16275000Y100175000D01*
X16275000Y105675000D02*
X18775000Y105675000D01*
X16275000Y100175000D02*
X18775000Y100175000D01*
X20275000Y104175000D02*
X18775000Y105675000D01*
X20275000Y104175000D02*
X20275000Y101675000D01*
X20275000Y101675000D02*
X18775000Y100175000D01*
%TO.C,SOFT4*%
X47775000Y104175000D02*
X47775000Y101675000D01*
X47775000Y104175000D02*
X49275000Y105675000D01*
X47775000Y101675000D02*
X49275000Y100175000D01*
X49275000Y105675000D02*
X51775000Y105675000D01*
X49275000Y100175000D02*
X51775000Y100175000D01*
X53275000Y104175000D02*
X51775000Y105675000D01*
X53275000Y104175000D02*
X53275000Y101675000D01*
X53275000Y101675000D02*
X51775000Y100175000D01*
%TD*%
M02*
