0
SECTION
2
HEADER
9
$INSUNITS
70
4
0
ENDSEC
0
SECTION
2
TABLES
0
TABLE
2
LTYPE
0
LTYPE
72
65
70
0
2
CONTINUOUS
3
______
73
0
40
0
0
LTYPE
72
65
70
0
2
DASHED
3
_ _ _ 
73
2
40
7.5
49
5
49
-2.5
0
LTYPE
72
65
70
0
2
DOTTED
3
. . . 
73
2
40
1.5
49
0.5
49
-1
0
ENDTAB
0
TABLE
2
LAYER
0
ENDTAB
0
ENDSEC
0
SECTION
2
ENTITIES
0
LINE
8
0
6
CONTINUOUS
10
10
20
147
11
10
21
14
0
LINE
8
0
6
CONTINUOUS
10
15
20
9
11
75.5
21
9
0
LINE
8
0
6
CONTINUOUS
10
80.5
20
14
11
80.5
21
147
0
LINE
8
0
6
CONTINUOUS
10
75.5
20
152
11
15
21
152
0
ARC
8
0
6
CONTINUOUS
10
15
20
14
40
5
50
180
51
270
0
ARC
8
0
6
CONTINUOUS
10
75.5
20
14
40
5
50
270
51
0
0
ARC
8
0
6
CONTINUOUS
10
75.5
20
147
40
5
50
0
51
90
0
ARC
8
0
6
CONTINUOUS
10
15
20
147
40
5
50
90
51
180
0
ENDSEC
0
EOF