0
SECTION
2
HEADER
9
$INSUNITS
70
4
0
ENDSEC
0
SECTION
2
TABLES
0
TABLE
2
LTYPE
0
LTYPE
72
65
70
0
2
CONTINUOUS
3
______
73
0
40
0
0
LTYPE
72
65
70
0
2
DASHED
3
_ _ _ 
73
2
40
7.5
49
5
49
-2.5
0
LTYPE
72
65
70
0
2
DOTTED
3
. . . 
73
2
40
1.5
49
0.5
49
-1
0
ENDTAB
0
TABLE
2
LAYER
0
ENDTAB
0
ENDSEC
0
SECTION
2
ENTITIES
0
LINE
8
0
6
CONTINUOUS
10
16.75
20
74.5
11
27.75
21
74.5
0
LINE
8
0
6
CONTINUOUS
10
27.75
20
74.5
11
27.75
21
85.5
0
LINE
8
0
6
CONTINUOUS
10
27.75
20
85.5
11
16.75
21
85.5
0
LINE
8
0
6
CONTINUOUS
10
16.75
20
85.5
11
16.75
21
74.5
0
LINE
8
0
6
CONTINUOUS
10
9.5
20
86.5
11
20.5
21
86.5
0
LINE
8
0
6
CONTINUOUS
10
20.5
20
86.5
11
20.5
21
97.5
0
LINE
8
0
6
CONTINUOUS
10
20.5
20
97.5
11
9.5
21
97.5
0
LINE
8
0
6
CONTINUOUS
10
9.5
20
97.5
11
9.5
21
86.5
0
LINE
8
0
6
CONTINUOUS
10
9.5
20
98.5
11
20.5
21
98.5
0
LINE
8
0
6
CONTINUOUS
10
20.5
20
98.5
11
20.5
21
109.5
0
LINE
8
0
6
CONTINUOUS
10
20.5
20
109.5
11
9.5
21
109.5
0
LINE
8
0
6
CONTINUOUS
10
9.5
20
109.5
11
9.5
21
98.5
0
LINE
8
0
6
CONTINUOUS
10
21
20
86.5
11
32
21
86.5
0
LINE
8
0
6
CONTINUOUS
10
32
20
86.5
11
32
21
97.5
0
LINE
8
0
6
CONTINUOUS
10
32
20
97.5
11
21
21
97.5
0
LINE
8
0
6
CONTINUOUS
10
21
20
97.5
11
21
21
86.5
0
LINE
8
0
6
CONTINUOUS
10
21
20
98.5
11
32
21
98.5
0
LINE
8
0
6
CONTINUOUS
10
32
20
98.5
11
32
21
109.5
0
LINE
8
0
6
CONTINUOUS
10
32
20
109.5
11
21
21
109.5
0
LINE
8
0
6
CONTINUOUS
10
21
20
109.5
11
21
21
98.5
0
LINE
8
0
6
CONTINUOUS
10
32.5
20
74.5
11
43.5
21
74.5
0
LINE
8
0
6
CONTINUOUS
10
43.5
20
74.5
11
43.5
21
85.5
0
LINE
8
0
6
CONTINUOUS
10
43.5
20
85.5
11
32.5
21
85.5
0
LINE
8
0
6
CONTINUOUS
10
32.5
20
85.5
11
32.5
21
74.5
0
LINE
8
0
6
CONTINUOUS
10
32.5
20
86.5
11
43.5
21
86.5
0
LINE
8
0
6
CONTINUOUS
10
43.5
20
86.5
11
43.5
21
97.5
0
LINE
8
0
6
CONTINUOUS
10
43.5
20
97.5
11
32.5
21
97.5
0
LINE
8
0
6
CONTINUOUS
10
32.5
20
97.5
11
32.5
21
86.5
0
LINE
8
0
6
CONTINUOUS
10
32.5
20
98.5
11
43.5
21
98.5
0
LINE
8
0
6
CONTINUOUS
10
43.5
20
98.5
11
43.5
21
109.5
0
LINE
8
0
6
CONTINUOUS
10
43.5
20
109.5
11
32.5
21
109.5
0
LINE
8
0
6
CONTINUOUS
10
32.5
20
109.5
11
32.5
21
98.5
0
LINE
8
0
6
CONTINUOUS
10
44
20
74.5
11
55
21
74.5
0
LINE
8
0
6
CONTINUOUS
10
55
20
74.5
11
55
21
85.5
0
LINE
8
0
6
CONTINUOUS
10
55
20
85.5
11
44
21
85.5
0
LINE
8
0
6
CONTINUOUS
10
44
20
85.5
11
44
21
74.5
0
LINE
8
0
6
CONTINUOUS
10
44
20
86.5
11
55
21
86.5
0
LINE
8
0
6
CONTINUOUS
10
55
20
86.5
11
55
21
97.5
0
LINE
8
0
6
CONTINUOUS
10
55
20
97.5
11
44
21
97.5
0
LINE
8
0
6
CONTINUOUS
10
44
20
97.5
11
44
21
86.5
0
LINE
8
0
6
CONTINUOUS
10
44
20
98.5
11
55
21
98.5
0
LINE
8
0
6
CONTINUOUS
10
55
20
98.5
11
55
21
109.5
0
LINE
8
0
6
CONTINUOUS
10
55
20
109.5
11
44
21
109.5
0
LINE
8
0
6
CONTINUOUS
10
44
20
109.5
11
44
21
98.5
0
LINE
8
0
6
CONTINUOUS
10
55.5
20
74.5
11
66.5
21
74.5
0
LINE
8
0
6
CONTINUOUS
10
66.5
20
74.5
11
66.5
21
85.5
0
LINE
8
0
6
CONTINUOUS
10
66.5
20
85.5
11
55.5
21
85.5
0
LINE
8
0
6
CONTINUOUS
10
55.5
20
85.5
11
55.5
21
74.5
0
LINE
8
0
6
CONTINUOUS
10
55.5
20
86.5
11
66.5
21
86.5
0
LINE
8
0
6
CONTINUOUS
10
66.5
20
86.5
11
66.5
21
97.5
0
LINE
8
0
6
CONTINUOUS
10
66.5
20
97.5
11
55.5
21
97.5
0
LINE
8
0
6
CONTINUOUS
10
55.5
20
97.5
11
55.5
21
86.5
0
LINE
8
0
6
CONTINUOUS
10
55.5
20
98.5
11
66.5
21
98.5
0
LINE
8
0
6
CONTINUOUS
10
66.5
20
98.5
11
66.5
21
109.5
0
LINE
8
0
6
CONTINUOUS
10
66.5
20
109.5
11
55.5
21
109.5
0
LINE
8
0
6
CONTINUOUS
10
55.5
20
109.5
11
55.5
21
98.5
0
LINE
8
0
6
CONTINUOUS
10
67
20
74.5
11
78
21
74.5
0
LINE
8
0
6
CONTINUOUS
10
78
20
74.5
11
78
21
85.5
0
LINE
8
0
6
CONTINUOUS
10
78
20
85.5
11
67
21
85.5
0
LINE
8
0
6
CONTINUOUS
10
67
20
85.5
11
67
21
74.5
0
LINE
8
0
6
CONTINUOUS
10
67
20
86.5
11
78
21
86.5
0
LINE
8
0
6
CONTINUOUS
10
78
20
86.5
11
78
21
97.5
0
LINE
8
0
6
CONTINUOUS
10
78
20
97.5
11
67
21
97.5
0
LINE
8
0
6
CONTINUOUS
10
67
20
97.5
11
67
21
86.5
0
LINE
8
0
6
CONTINUOUS
10
67
20
98.5
11
78
21
98.5
0
LINE
8
0
6
CONTINUOUS
10
78
20
98.5
11
78
21
109.5
0
LINE
8
0
6
CONTINUOUS
10
78
20
109.5
11
67
21
109.5
0
LINE
8
0
6
CONTINUOUS
10
67
20
109.5
11
67
21
98.5
0
LINE
8
0
6
CONTINUOUS
10
15.75
20
53.5
11
26.75
21
53.5
0
LINE
8
0
6
CONTINUOUS
10
26.75
20
53.5
11
26.75
21
64.5
0
LINE
8
0
6
CONTINUOUS
10
26.75
20
64.5
11
15.75
21
64.5
0
LINE
8
0
6
CONTINUOUS
10
15.75
20
64.5
11
15.75
21
53.5
0
LINE
8
0
6
CONTINUOUS
10
15.75
20
41.5
11
26.75
21
41.5
0
LINE
8
0
6
CONTINUOUS
10
26.75
20
41.5
11
26.75
21
52.5
0
LINE
8
0
6
CONTINUOUS
10
26.75
20
52.5
11
15.75
21
52.5
0
LINE
8
0
6
CONTINUOUS
10
15.75
20
52.5
11
15.75
21
41.5
0
LINE
8
0
6
CONTINUOUS
10
15.75
20
29.5
11
26.75
21
29.5
0
LINE
8
0
6
CONTINUOUS
10
26.75
20
29.5
11
26.75
21
40.5
0
LINE
8
0
6
CONTINUOUS
10
26.75
20
40.5
11
15.75
21
40.5
0
LINE
8
0
6
CONTINUOUS
10
15.75
20
40.5
11
15.75
21
29.5
0
LINE
8
0
6
CONTINUOUS
10
15.75
20
17.5
11
26.75
21
17.5
0
LINE
8
0
6
CONTINUOUS
10
26.75
20
17.5
11
26.75
21
28.5
0
LINE
8
0
6
CONTINUOUS
10
26.75
20
28.5
11
15.75
21
28.5
0
LINE
8
0
6
CONTINUOUS
10
15.75
20
28.5
11
15.75
21
17.5
0
LINE
8
0
6
CONTINUOUS
10
27.25
20
53.5
11
38.25
21
53.5
0
LINE
8
0
6
CONTINUOUS
10
38.25
20
53.5
11
38.25
21
64.5
0
LINE
8
0
6
CONTINUOUS
10
38.25
20
64.5
11
27.25
21
64.5
0
LINE
8
0
6
CONTINUOUS
10
27.25
20
64.5
11
27.25
21
53.5
0
LINE
8
0
6
CONTINUOUS
10
27.25
20
41.5
11
38.25
21
41.5
0
LINE
8
0
6
CONTINUOUS
10
38.25
20
41.5
11
38.25
21
52.5
0
LINE
8
0
6
CONTINUOUS
10
38.25
20
52.5
11
27.25
21
52.5
0
LINE
8
0
6
CONTINUOUS
10
27.25
20
52.5
11
27.25
21
41.5
0
LINE
8
0
6
CONTINUOUS
10
27.25
20
29.5
11
38.25
21
29.5
0
LINE
8
0
6
CONTINUOUS
10
38.25
20
29.5
11
38.25
21
40.5
0
LINE
8
0
6
CONTINUOUS
10
38.25
20
40.5
11
27.25
21
40.5
0
LINE
8
0
6
CONTINUOUS
10
27.25
20
40.5
11
27.25
21
29.5
0
LINE
8
0
6
CONTINUOUS
10
27.25
20
17.5
11
38.25
21
17.5
0
LINE
8
0
6
CONTINUOUS
10
38.25
20
17.5
11
38.25
21
28.5
0
LINE
8
0
6
CONTINUOUS
10
38.25
20
28.5
11
27.25
21
28.5
0
LINE
8
0
6
CONTINUOUS
10
27.25
20
28.5
11
27.25
21
17.5
0
LINE
8
0
6
CONTINUOUS
10
38.75
20
53.5
11
49.75
21
53.5
0
LINE
8
0
6
CONTINUOUS
10
49.75
20
53.5
11
49.75
21
64.5
0
LINE
8
0
6
CONTINUOUS
10
49.75
20
64.5
11
38.75
21
64.5
0
LINE
8
0
6
CONTINUOUS
10
38.75
20
64.5
11
38.75
21
53.5
0
LINE
8
0
6
CONTINUOUS
10
38.75
20
41.5
11
49.75
21
41.5
0
LINE
8
0
6
CONTINUOUS
10
49.75
20
41.5
11
49.75
21
52.5
0
LINE
8
0
6
CONTINUOUS
10
49.75
20
52.5
11
38.75
21
52.5
0
LINE
8
0
6
CONTINUOUS
10
38.75
20
52.5
11
38.75
21
41.5
0
LINE
8
0
6
CONTINUOUS
10
38.75
20
29.5
11
49.75
21
29.5
0
LINE
8
0
6
CONTINUOUS
10
49.75
20
29.5
11
49.75
21
40.5
0
LINE
8
0
6
CONTINUOUS
10
49.75
20
40.5
11
38.75
21
40.5
0
LINE
8
0
6
CONTINUOUS
10
38.75
20
40.5
11
38.75
21
29.5
0
LINE
8
0
6
CONTINUOUS
10
38.75
20
17.5
11
49.75
21
17.5
0
LINE
8
0
6
CONTINUOUS
10
49.75
20
17.5
11
49.75
21
28.5
0
LINE
8
0
6
CONTINUOUS
10
49.75
20
28.5
11
38.75
21
28.5
0
LINE
8
0
6
CONTINUOUS
10
38.75
20
28.5
11
38.75
21
17.5
0
LINE
8
0
6
CONTINUOUS
10
50.25
20
53.5
11
61.25
21
53.5
0
LINE
8
0
6
CONTINUOUS
10
61.25
20
53.5
11
61.25
21
64.5
0
LINE
8
0
6
CONTINUOUS
10
61.25
20
64.5
11
50.25
21
64.5
0
LINE
8
0
6
CONTINUOUS
10
50.25
20
64.5
11
50.25
21
53.5
0
LINE
8
0
6
CONTINUOUS
10
50.25
20
41.5
11
61.25
21
41.5
0
LINE
8
0
6
CONTINUOUS
10
61.25
20
41.5
11
61.25
21
52.5
0
LINE
8
0
6
CONTINUOUS
10
61.25
20
52.5
11
50.25
21
52.5
0
LINE
8
0
6
CONTINUOUS
10
50.25
20
52.5
11
50.25
21
41.5
0
LINE
8
0
6
CONTINUOUS
10
50.25
20
29.5
11
61.25
21
29.5
0
LINE
8
0
6
CONTINUOUS
10
61.25
20
29.5
11
61.25
21
40.5
0
LINE
8
0
6
CONTINUOUS
10
61.25
20
40.5
11
50.25
21
40.5
0
LINE
8
0
6
CONTINUOUS
10
50.25
20
40.5
11
50.25
21
29.5
0
LINE
8
0
6
CONTINUOUS
10
50.25
20
17.5
11
61.25
21
17.5
0
LINE
8
0
6
CONTINUOUS
10
61.25
20
17.5
11
61.25
21
28.5
0
LINE
8
0
6
CONTINUOUS
10
61.25
20
28.5
11
50.25
21
28.5
0
LINE
8
0
6
CONTINUOUS
10
50.25
20
28.5
11
50.25
21
17.5
0
LINE
8
0
6
CONTINUOUS
10
61.75
20
53.5
11
72.75
21
53.5
0
LINE
8
0
6
CONTINUOUS
10
72.75
20
53.5
11
72.75
21
64.5
0
LINE
8
0
6
CONTINUOUS
10
72.75
20
64.5
11
61.75
21
64.5
0
LINE
8
0
6
CONTINUOUS
10
61.75
20
64.5
11
61.75
21
53.5
0
LINE
8
0
6
CONTINUOUS
10
61.75
20
41.5
11
72.75
21
41.5
0
LINE
8
0
6
CONTINUOUS
10
72.75
20
41.5
11
72.75
21
52.5
0
LINE
8
0
6
CONTINUOUS
10
72.75
20
52.5
11
61.75
21
52.5
0
LINE
8
0
6
CONTINUOUS
10
61.75
20
52.5
11
61.75
21
41.5
0
LINE
8
0
6
CONTINUOUS
10
61.75
20
29.5
11
72.75
21
29.5
0
LINE
8
0
6
CONTINUOUS
10
72.75
20
29.5
11
72.75
21
40.5
0
LINE
8
0
6
CONTINUOUS
10
72.75
20
40.5
11
61.75
21
40.5
0
LINE
8
0
6
CONTINUOUS
10
61.75
20
40.5
11
61.75
21
29.5
0
LINE
8
0
6
CONTINUOUS
10
61.75
20
17.5
11
72.75
21
17.5
0
LINE
8
0
6
CONTINUOUS
10
72.75
20
17.5
11
72.75
21
28.5
0
LINE
8
0
6
CONTINUOUS
10
72.75
20
28.5
11
61.75
21
28.5
0
LINE
8
0
6
CONTINUOUS
10
61.75
20
28.5
11
61.75
21
17.5
0
ENDSEC
0
EOF