%TF.GenerationSoftware,KiCad,Pcbnew,10.0.5*%
%TF.CreationDate,2026-08-24T12:15:47-07:00*%
%TF.ProjectId,calculator,63616c63-756c-4617-946f-722e6b696361,v1.0.0*%
%TF.SameCoordinates,Original*%
%TF.FileFunction,Paste,Top*%
%TF.FilePolarity,Positive*%
%FSLAX46Y46*%
G04 Gerber Fmt 4.6, Leading zero omitted, Abs format (unit mm)*
G04 Created by KiCad (PCBNEW 10.0.5) date 2026-08-24 12:15:47*
%MOMM*%
%LPD*%
G01*
G04 APERTURE LIST*
%ADD10R,1.800000X1.100000*%
%ADD11R,0.300000X1.300000*%
G04 APERTURE END LIST*
D10*
%TO.C,B27*%
X47425000Y44775000D03*
X47425000Y41075000D03*
X53625000Y44775000D03*
X53625000Y41075000D03*
%TD*%
%TO.C,B28*%
X47425000Y32775000D03*
X47425000Y29075000D03*
X53625000Y32775000D03*
X53625000Y29075000D03*
%TD*%
%TO.C,B29*%
X47425000Y20775000D03*
X47425000Y17075000D03*
X53625000Y20775000D03*
X53625000Y17075000D03*
%TD*%
%TO.C,B25*%
X36425000Y20775000D03*
X36425000Y17075000D03*
X42625000Y20775000D03*
X42625000Y17075000D03*
%TD*%
%TO.C,B6*%
X36425000Y68775000D03*
X36425000Y65075000D03*
X42625000Y68775000D03*
X42625000Y65075000D03*
%TD*%
%TO.C,B7*%
X36425000Y80775000D03*
X36425000Y77075000D03*
X42625000Y80775000D03*
X42625000Y77075000D03*
%TD*%
%TO.C,B8*%
X36425000Y92775000D03*
X36425000Y89075000D03*
X42625000Y92775000D03*
X42625000Y89075000D03*
%TD*%
%TO.C,B15*%
X69425000Y68775000D03*
X69425000Y65075000D03*
X75625000Y68775000D03*
X75625000Y65075000D03*
%TD*%
%TO.C,B16*%
X69425000Y80775000D03*
X69425000Y77075000D03*
X75625000Y80775000D03*
X75625000Y77075000D03*
%TD*%
%TO.C,B31*%
X58425000Y44775000D03*
X58425000Y41075000D03*
X64625000Y44775000D03*
X64625000Y41075000D03*
%TD*%
%TO.C,B32*%
X58425000Y32775000D03*
X58425000Y29075000D03*
X64625000Y32775000D03*
X64625000Y29075000D03*
%TD*%
%TO.C,B37*%
X69425000Y20775000D03*
X69425000Y17075000D03*
X75625000Y20775000D03*
X75625000Y17075000D03*
%TD*%
%TO.C,B20*%
X14425000Y32775000D03*
X14425000Y29075000D03*
X20625000Y32775000D03*
X20625000Y29075000D03*
%TD*%
%TO.C,B11*%
X47425000Y92775000D03*
X47425000Y89075000D03*
X53625000Y92775000D03*
X53625000Y89075000D03*
%TD*%
%TO.C,B14*%
X58425000Y92775000D03*
X58425000Y89075000D03*
X64625000Y92775000D03*
X64625000Y89075000D03*
%TD*%
%TO.C,B12*%
X58425000Y68775000D03*
X58425000Y65075000D03*
X64625000Y68775000D03*
X64625000Y65075000D03*
%TD*%
%TO.C,B10*%
X47425000Y80775000D03*
X47425000Y77075000D03*
X53625000Y80775000D03*
X53625000Y77075000D03*
%TD*%
%TO.C,B13*%
X58425000Y80775000D03*
X58425000Y77075000D03*
X64625000Y80775000D03*
X64625000Y77075000D03*
%TD*%
%TO.C,B26*%
X47425000Y56775000D03*
X47425000Y53075000D03*
X53625000Y56775000D03*
X53625000Y53075000D03*
%TD*%
%TO.C,B9*%
X47425000Y68775000D03*
X47425000Y65075000D03*
X53625000Y68775000D03*
X53625000Y65075000D03*
%TD*%
%TO.C,B18*%
X14425000Y56775000D03*
X14425000Y53075000D03*
X20625000Y56775000D03*
X20625000Y53075000D03*
%TD*%
%TO.C,B17*%
X69425000Y92775000D03*
X69425000Y89075000D03*
X75625000Y92775000D03*
X75625000Y89075000D03*
%TD*%
%TO.C,B19*%
X14425000Y44775000D03*
X14425000Y41075000D03*
X20625000Y44775000D03*
X20625000Y41075000D03*
%TD*%
%TO.C,B35*%
X69425000Y44775000D03*
X69425000Y41075000D03*
X75625000Y44775000D03*
X75625000Y41075000D03*
%TD*%
%TO.C,B36*%
X69425000Y32775000D03*
X69425000Y29075000D03*
X75625000Y32775000D03*
X75625000Y29075000D03*
%TD*%
%TO.C,B1*%
X19925000Y68775000D03*
X19925000Y65075000D03*
X26125000Y68775000D03*
X26125000Y65075000D03*
%TD*%
%TO.C,B2*%
X14425000Y80775000D03*
X14425000Y77075000D03*
X20625000Y80775000D03*
X20625000Y77075000D03*
%TD*%
%TO.C,B3*%
X14425000Y92775000D03*
X14425000Y89075000D03*
X20625000Y92775000D03*
X20625000Y89075000D03*
%TD*%
%TO.C,B4*%
X25425000Y80775000D03*
X25425000Y77075000D03*
X31625000Y80775000D03*
X31625000Y77075000D03*
%TD*%
%TO.C,B5*%
X25425000Y92775000D03*
X25425000Y89075000D03*
X31625000Y92775000D03*
X31625000Y89075000D03*
%TD*%
%TO.C,B21*%
X14425000Y20775000D03*
X14425000Y17075000D03*
X20625000Y20775000D03*
X20625000Y17075000D03*
%TD*%
%TO.C,B22*%
X36425000Y56775000D03*
X36425000Y53075000D03*
X42625000Y56775000D03*
X42625000Y53075000D03*
%TD*%
%TO.C,B23*%
X36425000Y44775000D03*
X36425000Y41075000D03*
X42625000Y44775000D03*
X42625000Y41075000D03*
%TD*%
%TO.C,B24*%
X36425000Y32775000D03*
X36425000Y29075000D03*
X42625000Y32775000D03*
X42625000Y29075000D03*
%TD*%
%TO.C,B33*%
X58425000Y20775000D03*
X58425000Y17075000D03*
X64625000Y20775000D03*
X64625000Y17075000D03*
%TD*%
%TO.C,B34*%
X69425000Y56775000D03*
X69425000Y53075000D03*
X75625000Y56775000D03*
X75625000Y53075000D03*
%TD*%
%TO.C,B30*%
X58425000Y56775000D03*
X58425000Y53075000D03*
X64625000Y56775000D03*
X64625000Y53075000D03*
%TD*%
%TO.C,SOFT6*%
X69425000Y104775000D03*
X69425000Y101075000D03*
X75625000Y104775000D03*
X75625000Y101075000D03*
%TD*%
%TO.C,SOFT2*%
X25425000Y104775000D03*
X25425000Y101075000D03*
X31625000Y104775000D03*
X31625000Y101075000D03*
%TD*%
%TO.C,SOFT5*%
X58425000Y104775000D03*
X58425000Y101075000D03*
X64625000Y104775000D03*
X64625000Y101075000D03*
%TD*%
%TO.C,SOFT3*%
X36425000Y104775000D03*
X36425000Y101075000D03*
X42625000Y104775000D03*
X42625000Y101075000D03*
%TD*%
%TO.C,SOFT1*%
X14425000Y104775000D03*
X14425000Y101075000D03*
X20625000Y104775000D03*
X20625000Y101075000D03*
%TD*%
D11*
%TO.C,J1*%
X42750000Y127800000D03*
X43250000Y127800000D03*
X43750000Y127800000D03*
X44250000Y127800000D03*
X44750000Y127800000D03*
X45250000Y127800000D03*
X45750000Y127800000D03*
X46250000Y127800000D03*
X46750000Y127800000D03*
X47250000Y127800000D03*
%TD*%
D10*
%TO.C,SOFT4*%
X47425000Y104775000D03*
X47425000Y101075000D03*
X53625000Y104775000D03*
X53625000Y101075000D03*
%TD*%
M02*
