%TF.GenerationSoftware,KiCad,Pcbnew,10.0.5*%
%TF.CreationDate,2026-08-22T02:20:25-07:00*%
%TF.ProjectId,calculator,63616c63-756c-4617-946f-722e6b696361,v1.0.0*%
%TF.SameCoordinates,Original*%
%TF.FileFunction,Copper,L1,Top*%
%TF.FilePolarity,Positive*%
%FSLAX46Y46*%
G04 Gerber Fmt 4.6, Leading zero omitted, Abs format (unit mm)*
G04 Created by KiCad (PCBNEW 10.0.5) date 2026-08-22 02:20:25*
%MOMM*%
%LPD*%
G01*
G04 APERTURE LIST*
%TA.AperFunction,SMDPad,CuDef*%
%ADD10R,1.800000X1.100000*%
%TD*%
%TA.AperFunction,ComponentPad*%
%ADD11R,1.700000X1.700000*%
%TD*%
%TA.AperFunction,ComponentPad*%
%ADD12C,1.700000*%
%TD*%
G04 APERTURE END LIST*
D10*
%TO.P,B24,1*%
%TO.N,P10*%
X36425000Y34774999D03*
%TO.P,B24,2*%
%TO.N,P8*%
X36425000Y31074999D03*
%TO.P,B24,NC*%
%TO.N,N/C*%
X42625000Y34774999D03*
X42625000Y31074999D03*
%TD*%
%TO.P,B25,1*%
%TO.N,P21*%
X36425000Y22775000D03*
%TO.P,B25,2*%
%TO.N,P8*%
X36425000Y19075000D03*
%TO.P,B25,NC*%
%TO.N,N/C*%
X42625000Y22775000D03*
X42625000Y19075000D03*
%TD*%
%TO.P,B26,1*%
%TO.N,P5*%
X47425000Y58775000D03*
%TO.P,B26,2*%
%TO.N,P9*%
X47425000Y55075000D03*
%TO.P,B26,NC*%
%TO.N,N/C*%
X53625000Y58775000D03*
X53625000Y55075000D03*
%TD*%
%TO.P,B27,1*%
%TO.N,P6*%
X47425000Y46775000D03*
%TO.P,B27,2*%
%TO.N,P9*%
X47425000Y43075000D03*
%TO.P,B27,NC*%
%TO.N,N/C*%
X53625000Y46775000D03*
X53625000Y43075000D03*
%TD*%
%TO.P,B23,1*%
%TO.N,P6*%
X36425000Y46775000D03*
%TO.P,B23,2*%
%TO.N,P8*%
X36425000Y43075000D03*
%TO.P,B23,NC*%
%TO.N,N/C*%
X42625000Y46775000D03*
X42625000Y43075000D03*
%TD*%
%TO.P,B28,1*%
%TO.N,P10*%
X47425000Y34774999D03*
%TO.P,B28,2*%
%TO.N,P9*%
X47425000Y31074999D03*
%TO.P,B28,NC*%
%TO.N,N/C*%
X53625000Y34774999D03*
X53625000Y31074999D03*
%TD*%
%TO.P,B33,1*%
%TO.N,P21*%
X58425000Y22775000D03*
%TO.P,B33,2*%
%TO.N,P15*%
X58425000Y19075000D03*
%TO.P,B33,NC*%
%TO.N,N/C*%
X64625000Y22775000D03*
X64625000Y19075000D03*
%TD*%
%TO.P,B18,1*%
%TO.N,P5*%
X14425000Y58775000D03*
%TO.P,B18,2*%
%TO.N,P7*%
X14425000Y55075000D03*
%TO.P,B18,NC*%
%TO.N,N/C*%
X20625000Y58775000D03*
X20625000Y55075000D03*
%TD*%
%TO.P,B1,1*%
%TO.N,P1*%
X19925000Y74775000D03*
%TO.P,B1,2*%
%TO.N,P7*%
X19925000Y71075000D03*
%TO.P,B1,NC*%
%TO.N,N/C*%
X26125000Y74775000D03*
X26125000Y71075000D03*
%TD*%
%TO.P,B2,1*%
%TO.N,P0*%
X14425000Y86775000D03*
%TO.P,B2,2*%
%TO.N,P7*%
X14425000Y83075000D03*
%TO.P,B2,NC*%
%TO.N,N/C*%
X20625000Y86775000D03*
X20625000Y83075000D03*
%TD*%
%TO.P,B3,1*%
%TO.N,P4*%
X14425000Y98775000D03*
%TO.P,B3,2*%
%TO.N,P7*%
X14425000Y95075000D03*
%TO.P,B3,NC*%
%TO.N,N/C*%
X20625000Y98775000D03*
X20625000Y95075000D03*
%TD*%
%TO.P,B35,1*%
%TO.N,P6*%
X69425000Y46775000D03*
%TO.P,B35,2*%
%TO.N,P14*%
X69425000Y43075000D03*
%TO.P,B35,NC*%
%TO.N,N/C*%
X75625000Y46775000D03*
X75625000Y43075000D03*
%TD*%
%TO.P,B34,1*%
%TO.N,P5*%
X69425000Y58775000D03*
%TO.P,B34,2*%
%TO.N,P14*%
X69425000Y55075000D03*
%TO.P,B34,NC*%
%TO.N,N/C*%
X75625000Y58775000D03*
X75625000Y55075000D03*
%TD*%
%TO.P,B20,1*%
%TO.N,P10*%
X14425000Y34774999D03*
%TO.P,B20,2*%
%TO.N,P7*%
X14425000Y31074999D03*
%TO.P,B20,NC*%
%TO.N,N/C*%
X20625000Y34774999D03*
X20625000Y31074999D03*
%TD*%
%TO.P,B9,1*%
%TO.N,P1*%
X47425000Y74775000D03*
%TO.P,B9,2*%
%TO.N,P15*%
X47425000Y71075000D03*
%TO.P,B9,NC*%
%TO.N,N/C*%
X53625000Y74775000D03*
X53625000Y71075000D03*
%TD*%
%TO.P,B7,1*%
%TO.N,P0*%
X36425000Y86775000D03*
%TO.P,B7,2*%
%TO.N,P9*%
X36425000Y83075000D03*
%TO.P,B7,NC*%
%TO.N,N/C*%
X42625000Y86775000D03*
X42625000Y83075000D03*
%TD*%
%TO.P,B30,1*%
%TO.N,P5*%
X58425000Y58775000D03*
%TO.P,B30,2*%
%TO.N,P15*%
X58425000Y55075000D03*
%TO.P,B30,NC*%
%TO.N,N/C*%
X64625000Y58775000D03*
X64625000Y55075000D03*
%TD*%
%TO.P,B31,1*%
%TO.N,P6*%
X58425000Y46775000D03*
%TO.P,B31,2*%
%TO.N,P15*%
X58425000Y43075000D03*
%TO.P,B31,NC*%
%TO.N,N/C*%
X64625000Y46775000D03*
X64625000Y43075000D03*
%TD*%
%TO.P,B10,1*%
%TO.N,P0*%
X47425000Y86775000D03*
%TO.P,B10,2*%
%TO.N,P15*%
X47425000Y83075000D03*
%TO.P,B10,NC*%
%TO.N,N/C*%
X53625000Y86775000D03*
X53625000Y83075000D03*
%TD*%
%TO.P,B13,1*%
%TO.N,P0*%
X58425000Y86775000D03*
%TO.P,B13,2*%
%TO.N,P14*%
X58425000Y83075000D03*
%TO.P,B13,NC*%
%TO.N,N/C*%
X64625000Y86775000D03*
X64625000Y83075000D03*
%TD*%
%TO.P,B14,1*%
%TO.N,P4*%
X58425000Y98775000D03*
%TO.P,B14,2*%
%TO.N,P14*%
X58425000Y95075000D03*
%TO.P,B14,NC*%
%TO.N,N/C*%
X64625000Y98775000D03*
X64625000Y95075000D03*
%TD*%
%TO.P,B12,1*%
%TO.N,P1*%
X58425000Y74775000D03*
%TO.P,B12,2*%
%TO.N,P14*%
X58425000Y71075000D03*
%TO.P,B12,NC*%
%TO.N,N/C*%
X64625000Y74775000D03*
X64625000Y71075000D03*
%TD*%
%TO.P,B11,1*%
%TO.N,P4*%
X47425000Y98775000D03*
%TO.P,B11,2*%
%TO.N,P15*%
X47425000Y95075000D03*
%TO.P,B11,NC*%
%TO.N,N/C*%
X53625000Y98775000D03*
X53625000Y95075000D03*
%TD*%
%TO.P,B15,1*%
%TO.N,P1*%
X69425000Y74775000D03*
%TO.P,B15,2*%
%TO.N,P16*%
X69425000Y71075000D03*
%TO.P,B15,NC*%
%TO.N,N/C*%
X75625000Y74775000D03*
X75625000Y71075000D03*
%TD*%
%TO.P,B17,1*%
%TO.N,P4*%
X69425000Y98775000D03*
%TO.P,B17,2*%
%TO.N,P16*%
X69425000Y95075000D03*
%TO.P,B17,NC*%
%TO.N,N/C*%
X75625000Y98775000D03*
X75625000Y95075000D03*
%TD*%
%TO.P,B21,1*%
%TO.N,P21*%
X14425000Y22775000D03*
%TO.P,B21,2*%
%TO.N,P7*%
X14425000Y19075000D03*
%TO.P,B21,NC*%
%TO.N,N/C*%
X20625000Y22775000D03*
X20625000Y19075000D03*
%TD*%
%TO.P,B16,1*%
%TO.N,P0*%
X69425000Y86775000D03*
%TO.P,B16,2*%
%TO.N,P16*%
X69425000Y83075000D03*
%TO.P,B16,NC*%
%TO.N,N/C*%
X75625000Y86775000D03*
X75625000Y83075000D03*
%TD*%
%TO.P,B22,1*%
%TO.N,P5*%
X36425000Y58775000D03*
%TO.P,B22,2*%
%TO.N,P8*%
X36425000Y55075000D03*
%TO.P,B22,NC*%
%TO.N,N/C*%
X42625000Y58775000D03*
X42625000Y55075000D03*
%TD*%
%TO.P,B4,1*%
%TO.N,P0*%
X25425000Y86775000D03*
%TO.P,B4,2*%
%TO.N,P8*%
X25425000Y83075000D03*
%TO.P,B4,NC*%
%TO.N,N/C*%
X31625000Y86775000D03*
X31625000Y83075000D03*
%TD*%
%TO.P,B8,1*%
%TO.N,P4*%
X36425000Y98775000D03*
%TO.P,B8,2*%
%TO.N,P9*%
X36425000Y95075000D03*
%TO.P,B8,NC*%
%TO.N,N/C*%
X42625000Y98775000D03*
X42625000Y95075000D03*
%TD*%
%TO.P,B5,1*%
%TO.N,P4*%
X25425000Y98775000D03*
%TO.P,B5,2*%
%TO.N,P8*%
X25425000Y95075000D03*
%TO.P,B5,NC*%
%TO.N,N/C*%
X31625000Y98775000D03*
X31625000Y95075000D03*
%TD*%
%TO.P,B6,1*%
%TO.N,P1*%
X36425000Y74775000D03*
%TO.P,B6,2*%
%TO.N,P9*%
X36425000Y71075000D03*
%TO.P,B6,NC*%
%TO.N,N/C*%
X42625000Y74775000D03*
X42625000Y71075000D03*
%TD*%
%TO.P,B37,1*%
%TO.N,P21*%
X69425000Y22775000D03*
%TO.P,B37,2*%
%TO.N,P14*%
X69425000Y19075000D03*
%TO.P,B37,NC*%
%TO.N,N/C*%
X75625000Y22775000D03*
X75625000Y19075000D03*
%TD*%
%TO.P,B36,1*%
%TO.N,P10*%
X69425000Y34774999D03*
%TO.P,B36,2*%
%TO.N,P14*%
X69425000Y31074999D03*
%TO.P,B36,NC*%
%TO.N,N/C*%
X75625000Y34774999D03*
X75625000Y31074999D03*
%TD*%
%TO.P,B19,1*%
%TO.N,P6*%
X14425000Y46775000D03*
%TO.P,B19,2*%
%TO.N,P7*%
X14425000Y43075000D03*
%TO.P,B19,NC*%
%TO.N,N/C*%
X20625000Y46775000D03*
X20625000Y43075000D03*
%TD*%
%TO.P,B29,1*%
%TO.N,P21*%
X47425000Y22775000D03*
%TO.P,B29,2*%
%TO.N,P9*%
X47425000Y19075000D03*
%TO.P,B29,NC*%
%TO.N,N/C*%
X53625000Y22775000D03*
X53625000Y19075000D03*
%TD*%
%TO.P,B32,1*%
%TO.N,P10*%
X58425000Y34774999D03*
%TO.P,B32,2*%
%TO.N,P15*%
X58425000Y31074999D03*
%TO.P,B32,NC*%
%TO.N,N/C*%
X64625000Y34774999D03*
X64625000Y31074999D03*
%TD*%
%TO.P,SOFT1,1*%
%TO.N,P20*%
X14425000Y110775000D03*
%TO.P,SOFT1,2*%
%TO.N,P7*%
X14425000Y107075000D03*
%TO.P,SOFT1,NC*%
%TO.N,N/C*%
X20625000Y110775000D03*
X20625000Y107075000D03*
%TD*%
D11*
%TO.P,Disp,1*%
%TO.N,VCC*%
X29500000Y125925000D03*
D12*
%TO.P,Disp,2*%
%TO.N,GND*%
X32040000Y125925000D03*
%TO.P,Disp,3*%
%TO.N,P21*%
X34580000Y125925000D03*
%TO.P,Disp,4*%
%TO.N,P20*%
X37120000Y125925000D03*
%TO.P,Disp,5*%
%TO.N,P19*%
X39660000Y125925000D03*
%TO.P,Disp,6*%
%TO.N,P18*%
X42200000Y125925000D03*
%TO.P,Disp,7*%
%TO.N,N/C*%
X44740000Y125925000D03*
%TO.P,Disp,8*%
%TO.N,P10*%
X47280000Y125925000D03*
%TD*%
D10*
%TO.P,SOFT5,1*%
%TO.N,P20*%
X58425000Y110775000D03*
%TO.P,SOFT5,2*%
%TO.N,P14*%
X58425000Y107075000D03*
%TO.P,SOFT5,NC*%
%TO.N,N/C*%
X64625000Y110775000D03*
X64625000Y107075000D03*
%TD*%
%TO.P,SOFT4,1*%
%TO.N,P20*%
X47425000Y110775000D03*
%TO.P,SOFT4,2*%
%TO.N,P15*%
X47425000Y107075000D03*
%TO.P,SOFT4,NC*%
%TO.N,N/C*%
X53625000Y110775000D03*
X53625000Y107075000D03*
%TD*%
%TO.P,SOFT3,1*%
%TO.N,P20*%
X36425000Y110775000D03*
%TO.P,SOFT3,2*%
%TO.N,P9*%
X36425000Y107075000D03*
%TO.P,SOFT3,NC*%
%TO.N,N/C*%
X42625000Y110775000D03*
X42625000Y107075000D03*
%TD*%
%TO.P,SOFT6,1*%
%TO.N,P20*%
X69425000Y110775000D03*
%TO.P,SOFT6,2*%
%TO.N,P16*%
X69425000Y107075000D03*
%TO.P,SOFT6,NC*%
%TO.N,N/C*%
X75625000Y110775000D03*
X75625000Y107075000D03*
%TD*%
%TO.P,SOFT2,1*%
%TO.N,P20*%
X25425000Y110775000D03*
%TO.P,SOFT2,2*%
%TO.N,P8*%
X25425000Y107075000D03*
%TO.P,SOFT2,NC*%
%TO.N,N/C*%
X31625000Y110775000D03*
X31625000Y107075000D03*
%TD*%
M02*
